G04 #@! TF.GenerationSoftware,KiCad,Pcbnew,(5.1.2-1)-1*
G04 #@! TF.CreationDate,2019-07-09T09:57:47-07:00*
G04 #@! TF.ProjectId,ProCoRat,50726f43-6f52-4617-942e-6b696361645f,1.0*
G04 #@! TF.SameCoordinates,Original*
G04 #@! TF.FileFunction,Other,User*
%FSLAX46Y46*%
G04 Gerber Fmt 4.6, Leading zero omitted, Abs format (unit mm)*
G04 Created by KiCad (PCBNEW (5.1.2-1)-1) date 2019-07-09 09:57:47*
%MOMM*%
%LPD*%
G04 APERTURE LIST*
%ADD10C,0.050000*%
G04 APERTURE END LIST*
D10*
X158842500Y-54856500D02*
X158842500Y-48106500D01*
X158842500Y-48106500D02*
X147942500Y-48106500D01*
X147942500Y-48106500D02*
X147942500Y-54856500D01*
X147942500Y-54856500D02*
X158842500Y-54856500D01*
X112360500Y-54920000D02*
X112360500Y-48170000D01*
X112360500Y-48170000D02*
X101460500Y-48170000D01*
X101460500Y-48170000D02*
X101460500Y-54920000D01*
X101460500Y-54920000D02*
X112360500Y-54920000D01*
X136260000Y-54920000D02*
X136260000Y-48170000D01*
X136260000Y-48170000D02*
X125360000Y-48170000D01*
X125360000Y-48170000D02*
X125360000Y-54920000D01*
X125360000Y-54920000D02*
X136260000Y-54920000D01*
X127669000Y-85659000D02*
X127669000Y-78679000D01*
X125569000Y-85659000D02*
X127669000Y-85659000D01*
X125569000Y-78679000D02*
X125569000Y-85659000D01*
X127669000Y-78679000D02*
X125569000Y-78679000D01*
X128507000Y-86959000D02*
X133357000Y-86959000D01*
X128507000Y-82459000D02*
X128507000Y-86959000D01*
X133357000Y-82459000D02*
X128507000Y-82459000D01*
X133357000Y-86959000D02*
X133357000Y-82459000D01*
X144800000Y-64990000D02*
X144800000Y-74710000D01*
X147300000Y-64990000D02*
X144800000Y-64990000D01*
X147300000Y-74710000D02*
X147300000Y-64990000D01*
X144800000Y-74710000D02*
X147300000Y-74710000D01*
X151110000Y-74710000D02*
X151110000Y-64990000D01*
X148610000Y-74710000D02*
X151110000Y-74710000D01*
X148610000Y-64990000D02*
X148610000Y-74710000D01*
X151110000Y-64990000D02*
X148610000Y-64990000D01*
X146097000Y-83261000D02*
X156417000Y-83261000D01*
X146097000Y-80061000D02*
X146097000Y-83261000D01*
X156417000Y-80061000D02*
X146097000Y-80061000D01*
X156417000Y-83261000D02*
X156417000Y-80061000D01*
X148744000Y-56920000D02*
X141244000Y-56920000D01*
X148744000Y-59920000D02*
X148744000Y-56920000D01*
X141244000Y-59920000D02*
X148744000Y-59920000D01*
X141244000Y-56920000D02*
X141244000Y-59920000D01*
X145950000Y-49300000D02*
X138450000Y-49300000D01*
X145950000Y-52300000D02*
X145950000Y-49300000D01*
X138450000Y-52300000D02*
X145950000Y-52300000D01*
X138450000Y-49300000D02*
X138450000Y-52300000D01*
X153697000Y-76351000D02*
X146197000Y-76351000D01*
X153697000Y-79351000D02*
X153697000Y-76351000D01*
X146197000Y-79351000D02*
X153697000Y-79351000D01*
X146197000Y-76351000D02*
X146197000Y-79351000D01*
X131980000Y-62635000D02*
X124480000Y-62635000D01*
X131980000Y-65635000D02*
X131980000Y-62635000D01*
X124480000Y-65635000D02*
X131980000Y-65635000D01*
X124480000Y-62635000D02*
X124480000Y-65635000D01*
X139346000Y-78573500D02*
X131846000Y-78573500D01*
X139346000Y-81573500D02*
X139346000Y-78573500D01*
X131846000Y-81573500D02*
X139346000Y-81573500D01*
X131846000Y-78573500D02*
X131846000Y-81573500D01*
X115760000Y-72390000D02*
G75*
G03X115760000Y-72390000I-2750000J0D01*
G01*
X121919500Y-59690000D02*
G75*
G03X121919500Y-59690000I-2750000J0D01*
G01*
X157710000Y-59055000D02*
G75*
G03X157710000Y-59055000I-2750000J0D01*
G01*
X119610000Y-51435000D02*
G75*
G03X119610000Y-51435000I-2750000J0D01*
G01*
X143740000Y-76200000D02*
G75*
G03X143740000Y-76200000I-2750000J0D01*
G01*
X129750000Y-57805000D02*
G75*
G03X129750000Y-57805000I-2750000J0D01*
G01*
X115760000Y-78740000D02*
G75*
G03X115760000Y-78740000I-2750000J0D01*
G01*
X124360000Y-69620000D02*
X116860000Y-69620000D01*
X124360000Y-72620000D02*
X124360000Y-69620000D01*
X116860000Y-72620000D02*
X124360000Y-72620000D01*
X116860000Y-69620000D02*
X116860000Y-72620000D01*
X108180000Y-81815000D02*
X108180000Y-74315000D01*
X105180000Y-81815000D02*
X108180000Y-81815000D01*
X105180000Y-74315000D02*
X105180000Y-81815000D01*
X108180000Y-74315000D02*
X105180000Y-74315000D01*
X138073000Y-87574000D02*
X141073000Y-87574000D01*
X138073000Y-82574000D02*
X138073000Y-87574000D01*
X141073000Y-82574000D02*
X138073000Y-82574000D01*
X141073000Y-87574000D02*
X141073000Y-82574000D01*
X120801000Y-87542500D02*
X123801000Y-87542500D01*
X120801000Y-82542500D02*
X120801000Y-87542500D01*
X123801000Y-82542500D02*
X120801000Y-82542500D01*
X123801000Y-87542500D02*
X123801000Y-82542500D01*
X107730000Y-73848000D02*
X107730000Y-66868000D01*
X105630000Y-73848000D02*
X107730000Y-73848000D01*
X105630000Y-66868000D02*
X105630000Y-73848000D01*
X107730000Y-66868000D02*
X105630000Y-66868000D01*
X137370000Y-67030000D02*
X126820000Y-67030000D01*
X137370000Y-77730000D02*
X137370000Y-67030000D01*
X126820000Y-77730000D02*
X137370000Y-77730000D01*
X126820000Y-67030000D02*
X126820000Y-77730000D01*
X141544000Y-63851500D02*
X148524000Y-63851500D01*
X141544000Y-61751500D02*
X141544000Y-63851500D01*
X148524000Y-61751500D02*
X141544000Y-61751500D01*
X148524000Y-63851500D02*
X148524000Y-61751500D01*
X140655000Y-55660000D02*
X147635000Y-55660000D01*
X140655000Y-53560000D02*
X140655000Y-55660000D01*
X147635000Y-53560000D02*
X140655000Y-53560000D01*
X147635000Y-55660000D02*
X147635000Y-53560000D01*
X121187500Y-50485000D02*
X121187500Y-57465000D01*
X123287500Y-50485000D02*
X121187500Y-50485000D01*
X123287500Y-57465000D02*
X123287500Y-50485000D01*
X121187500Y-57465000D02*
X123287500Y-57465000D01*
X115313500Y-55782500D02*
X108333500Y-55782500D01*
X115313500Y-57882500D02*
X115313500Y-55782500D01*
X108333500Y-57882500D02*
X115313500Y-57882500D01*
X108333500Y-55782500D02*
X108333500Y-57882500D01*
X141190000Y-65090000D02*
X141190000Y-72070000D01*
X143290000Y-65090000D02*
X141190000Y-65090000D01*
X143290000Y-72070000D02*
X143290000Y-65090000D01*
X141190000Y-72070000D02*
X143290000Y-72070000D01*
X124140000Y-73880000D02*
X117160000Y-73880000D01*
X124140000Y-75980000D02*
X124140000Y-73880000D01*
X117160000Y-75980000D02*
X124140000Y-75980000D01*
X117160000Y-73880000D02*
X117160000Y-75980000D01*
X124013000Y-77690000D02*
X117033000Y-77690000D01*
X124013000Y-79790000D02*
X124013000Y-77690000D01*
X117033000Y-79790000D02*
X124013000Y-79790000D01*
X117033000Y-77690000D02*
X117033000Y-79790000D01*
X122870000Y-64990000D02*
X115890000Y-64990000D01*
X122870000Y-67090000D02*
X122870000Y-64990000D01*
X115890000Y-67090000D02*
X122870000Y-67090000D01*
X115890000Y-64990000D02*
X115890000Y-67090000D01*
X133035000Y-65185000D02*
X140015000Y-65185000D01*
X133035000Y-63085000D02*
X133035000Y-65185000D01*
X140015000Y-63085000D02*
X133035000Y-63085000D01*
X140015000Y-65185000D02*
X140015000Y-63085000D01*
X132935000Y-55247500D02*
X132935000Y-62227500D01*
X135035000Y-55247500D02*
X132935000Y-55247500D01*
X135035000Y-62227500D02*
X135035000Y-55247500D01*
X132935000Y-62227500D02*
X135035000Y-62227500D01*
X115250000Y-58640000D02*
X108270000Y-58640000D01*
X115250000Y-60740000D02*
X115250000Y-58640000D01*
X108270000Y-60740000D02*
X115250000Y-60740000D01*
X108270000Y-58640000D02*
X108270000Y-60740000D01*
X107730000Y-65720000D02*
X107730000Y-58740000D01*
X105630000Y-65720000D02*
X107730000Y-65720000D01*
X105630000Y-58740000D02*
X105630000Y-65720000D01*
X107730000Y-58740000D02*
X105630000Y-58740000D01*
X151985000Y-65217000D02*
X151985000Y-72197000D01*
X154085000Y-65217000D02*
X151985000Y-65217000D01*
X154085000Y-72197000D02*
X154085000Y-65217000D01*
X151985000Y-72197000D02*
X154085000Y-72197000D01*
X140343500Y-55105000D02*
X140343500Y-60605000D01*
X140343500Y-55105000D02*
X135743500Y-55105000D01*
X135743500Y-60605000D02*
X140343500Y-60605000D01*
X135743500Y-60605000D02*
X135743500Y-55105000D01*
X113610000Y-62090000D02*
X113610000Y-67590000D01*
X113610000Y-62090000D02*
X109010000Y-62090000D01*
X109010000Y-67590000D02*
X113610000Y-67590000D01*
X109010000Y-67590000D02*
X109010000Y-62090000D01*
X157710000Y-71430000D02*
X154710000Y-71430000D01*
X157710000Y-76430000D02*
X157710000Y-71430000D01*
X154710000Y-76430000D02*
X157710000Y-76430000D01*
X154710000Y-71430000D02*
X154710000Y-76430000D01*
X157710000Y-61810000D02*
X154710000Y-61810000D01*
X157710000Y-68810000D02*
X157710000Y-61810000D01*
X154710000Y-68810000D02*
X157710000Y-68810000D01*
X154710000Y-61810000D02*
X154710000Y-68810000D01*
M02*
