M48
; DRILL file {KiCad (5.1.2-1)-1} date Tuesday, July 09, 2019 at 09:57:49 AM
; FORMAT={-:-/ absolute / inch / decimal}
; #@! TF.CreationDate,2019-07-09T09:57:49-07:00
; #@! TF.GenerationSoftware,Kicad,Pcbnew,(5.1.2-1)-1
; #@! TF.FileFunction,Plated,1,2,PTH
FMAT,2
INCH
T1C0.0276
T2C0.0295
T3C0.0315
T4C0.0354
T5C0.0394
T6C0.0433
T7C0.0886
%
G90
G05
T1
X4.2Y-2.67
X4.2Y-2.87
X4.8125Y-2.025
X4.8125Y-2.225
X5.575Y-2.15
X5.775Y-2.15
X4.985Y-3.135
X4.985Y-3.335
X4.3Y-2.35
X4.5Y-2.35
X4.2Y-2.35
X4.2Y-2.55
X5.6Y-2.6
X5.6Y-2.8
X5.275Y-2.2125
X5.275Y-2.4125
X4.3025Y-2.2375
X4.5025Y-2.2375
X4.645Y-3.1
X4.845Y-3.1
X4.65Y-2.95
X4.85Y-2.95
X5.61Y-2.4725
X5.81Y-2.4725
X4.6Y-2.6
X4.8Y-2.6
X5.275Y-2.525
X5.475Y-2.525
X6.025Y-2.605
X6.025Y-2.805
T2
X4.4Y-2.5
X4.4Y-2.55
X4.4Y-2.6
X5.4525Y-2.225
X5.4525Y-2.275
X5.4525Y-2.325
T3
X5.495Y-3.31
X5.495Y-3.3887
X4.5516Y-2.025
X4.65Y-2.025
X5.61Y-2.3
X5.8069Y-2.3
X4.65Y-2.8
X4.8469Y-2.8
X5.0Y-2.2266
X5.0Y-2.325
X5.24Y-3.1525
X5.4369Y-3.1525
X4.815Y-3.3088
X4.815Y-3.3875
X6.15Y-2.4925
X6.15Y-2.5713
X6.15Y-2.65
X5.9Y-2.6
X5.9Y-2.9
X5.05Y-2.7
X5.05Y-2.8
X5.05Y-2.9
X5.05Y-3.0
X5.35Y-2.7
X5.35Y-2.8
X5.35Y-2.9
X5.35Y-3.0
X5.75Y-2.6
X5.75Y-2.9
X6.0516Y-2.325
X6.15Y-2.325
X4.95Y-2.525
X5.1469Y-2.525
X4.4Y-2.85
X4.4984Y-2.85
X5.805Y-3.065
X6.0019Y-3.065
X4.4Y-3.1
X4.4984Y-3.1
X4.6425Y-2.35
X4.7409Y-2.35
X5.5Y-2.0
X5.6969Y-2.0
X6.15Y-2.8713
X6.15Y-2.95
X4.2Y-2.975
X4.2Y-3.1719
X5.5016Y-3.0
X5.6Y-3.0
T4
X5.105Y-3.335
X5.205Y-3.335
T5
X4.1106Y-2.05
X4.2091Y-2.05
X4.3075Y-2.05
X5.9406Y-2.0475
X6.0391Y-2.0475
X6.1375Y-2.0475
X5.0516Y-2.05
X5.15Y-2.05
X5.2484Y-2.05
T6
X5.805Y-3.215
X6.105Y-3.215
T7
X4.9413Y-3.621
X4.9413Y-3.81
X4.9413Y-3.999
X5.15Y-3.621
X5.15Y-3.81
X5.15Y-3.999
X5.3587Y-3.621
X5.3587Y-3.81
X5.3587Y-3.999
T0
M30
