G04 #@! TF.GenerationSoftware,KiCad,Pcbnew,(5.1.2-1)-1*
G04 #@! TF.CreationDate,2019-07-09T09:57:47-07:00*
G04 #@! TF.ProjectId,ProCoRat,50726f43-6f52-4617-942e-6b696361645f,1.0*
G04 #@! TF.SameCoordinates,Original*
G04 #@! TF.FileFunction,Copper,L1,Top*
G04 #@! TF.FilePolarity,Positive*
%FSLAX46Y46*%
G04 Gerber Fmt 4.6, Leading zero omitted, Abs format (unit mm)*
G04 Created by KiCad (PCBNEW (5.1.2-1)-1) date 2019-07-09 09:57:47*
%MOMM*%
%LPD*%
G04 APERTURE LIST*
%ADD10R,1.750000X1.750000*%
%ADD11C,1.750000*%
%ADD12C,3.250000*%
%ADD13C,3.500000*%
%ADD14O,1.400000X1.400000*%
%ADD15C,1.400000*%
%ADD16C,1.800000*%
%ADD17R,1.800000X1.800000*%
%ADD18O,1.600000X1.600000*%
%ADD19R,1.600000X1.600000*%
%ADD20O,2.200000X2.200000*%
%ADD21R,2.200000X2.200000*%
%ADD22C,1.600000*%
%ADD23O,1.350000X1.350000*%
%ADD24R,1.350000X1.350000*%
%ADD25O,2.400000X1.600000*%
%ADD26R,2.400000X1.600000*%
%ADD27R,1.500000X1.050000*%
%ADD28C,0.100000*%
%ADD29C,1.050000*%
%ADD30C,0.508000*%
%ADD31C,0.254000*%
G04 APERTURE END LIST*
D10*
X155892500Y-52006500D03*
D11*
X153392500Y-52006500D03*
X150892500Y-52006500D03*
D10*
X109410500Y-52070000D03*
D11*
X106910500Y-52070000D03*
X104410500Y-52070000D03*
D10*
X133310000Y-52070000D03*
D11*
X130810000Y-52070000D03*
X128310000Y-52070000D03*
D12*
X125510000Y-91974000D03*
D13*
X125510000Y-96774000D03*
D12*
X125510000Y-101574000D03*
X130810000Y-91974000D03*
X130810000Y-96774000D03*
X130810000Y-101574000D03*
X136110000Y-91974000D03*
X136110000Y-96774000D03*
X136110000Y-101574000D03*
D14*
X126619000Y-84709000D03*
D15*
X126619000Y-79629000D03*
D16*
X129667000Y-84709000D03*
D17*
X132207000Y-84709000D03*
D18*
X146050000Y-66040000D03*
D19*
X146050000Y-73660000D03*
D18*
X149860000Y-73660000D03*
D19*
X149860000Y-66040000D03*
D20*
X147447000Y-81661000D03*
D21*
X155067000Y-81661000D03*
D22*
X147494000Y-58420000D03*
X142494000Y-58420000D03*
X144700000Y-50800000D03*
X139700000Y-50800000D03*
X152447000Y-77851000D03*
X147447000Y-77851000D03*
X130730000Y-64135000D03*
X125730000Y-64135000D03*
X138096000Y-80073500D03*
X133096000Y-80073500D03*
X111760000Y-72390000D03*
D19*
X114260000Y-72390000D03*
D22*
X120419500Y-59690000D03*
D19*
X117919500Y-59690000D03*
D22*
X156210000Y-59055000D03*
D19*
X153710000Y-59055000D03*
D22*
X115610000Y-51435000D03*
D19*
X118110000Y-51435000D03*
D22*
X142240000Y-76200000D03*
D19*
X139740000Y-76200000D03*
D22*
X127000000Y-56555000D03*
D19*
X127000000Y-59055000D03*
D22*
X111760000Y-78740000D03*
D19*
X114260000Y-78740000D03*
D22*
X123110000Y-71120000D03*
X118110000Y-71120000D03*
X106680000Y-80565000D03*
X106680000Y-75565000D03*
D23*
X139573000Y-84074000D03*
D24*
X139573000Y-86074000D03*
D23*
X122301000Y-84042500D03*
D24*
X122301000Y-86042500D03*
D14*
X106680000Y-72898000D03*
D15*
X106680000Y-67818000D03*
D25*
X135890000Y-68580000D03*
X128270000Y-76200000D03*
X135890000Y-71120000D03*
X128270000Y-73660000D03*
X135890000Y-73660000D03*
X128270000Y-71120000D03*
X135890000Y-76200000D03*
D26*
X128270000Y-68580000D03*
D14*
X142494000Y-62801500D03*
D15*
X147574000Y-62801500D03*
D14*
X141605000Y-54610000D03*
D15*
X146685000Y-54610000D03*
D14*
X122237500Y-51435000D03*
D15*
X122237500Y-56515000D03*
D14*
X114363500Y-56832500D03*
D15*
X109283500Y-56832500D03*
D14*
X142240000Y-66040000D03*
D15*
X142240000Y-71120000D03*
D14*
X123190000Y-74930000D03*
D15*
X118110000Y-74930000D03*
D14*
X123063000Y-78740000D03*
D15*
X117983000Y-78740000D03*
D14*
X121920000Y-66040000D03*
D15*
X116840000Y-66040000D03*
D14*
X133985000Y-64135000D03*
D15*
X139065000Y-64135000D03*
D14*
X133985000Y-56197500D03*
D15*
X133985000Y-61277500D03*
D14*
X114300000Y-59690000D03*
D15*
X109220000Y-59690000D03*
D14*
X106680000Y-64770000D03*
D15*
X106680000Y-59690000D03*
D14*
X153035000Y-66167000D03*
D15*
X153035000Y-71247000D03*
D27*
X138493500Y-59055000D03*
D28*
G36*
X139006729Y-55991264D02*
G01*
X139032211Y-55995044D01*
X139057200Y-56001303D01*
X139081454Y-56009982D01*
X139104742Y-56020996D01*
X139126837Y-56034239D01*
X139147528Y-56049585D01*
X139166616Y-56066884D01*
X139183915Y-56085972D01*
X139199261Y-56106663D01*
X139212504Y-56128758D01*
X139223518Y-56152046D01*
X139232197Y-56176300D01*
X139238456Y-56201289D01*
X139242236Y-56226771D01*
X139243500Y-56252500D01*
X139243500Y-56777500D01*
X139242236Y-56803229D01*
X139238456Y-56828711D01*
X139232197Y-56853700D01*
X139223518Y-56877954D01*
X139212504Y-56901242D01*
X139199261Y-56923337D01*
X139183915Y-56944028D01*
X139166616Y-56963116D01*
X139147528Y-56980415D01*
X139126837Y-56995761D01*
X139104742Y-57009004D01*
X139081454Y-57020018D01*
X139057200Y-57028697D01*
X139032211Y-57034956D01*
X139006729Y-57038736D01*
X138981000Y-57040000D01*
X138006000Y-57040000D01*
X137980271Y-57038736D01*
X137954789Y-57034956D01*
X137929800Y-57028697D01*
X137905546Y-57020018D01*
X137882258Y-57009004D01*
X137860163Y-56995761D01*
X137839472Y-56980415D01*
X137820384Y-56963116D01*
X137803085Y-56944028D01*
X137787739Y-56923337D01*
X137774496Y-56901242D01*
X137763482Y-56877954D01*
X137754803Y-56853700D01*
X137748544Y-56828711D01*
X137744764Y-56803229D01*
X137743500Y-56777500D01*
X137743500Y-56252500D01*
X137744764Y-56226771D01*
X137748544Y-56201289D01*
X137754803Y-56176300D01*
X137763482Y-56152046D01*
X137774496Y-56128758D01*
X137787739Y-56106663D01*
X137803085Y-56085972D01*
X137820384Y-56066884D01*
X137839472Y-56049585D01*
X137860163Y-56034239D01*
X137882258Y-56020996D01*
X137905546Y-56009982D01*
X137929800Y-56001303D01*
X137954789Y-55995044D01*
X137980271Y-55991264D01*
X138006000Y-55990000D01*
X138981000Y-55990000D01*
X139006729Y-55991264D01*
X139006729Y-55991264D01*
G37*
D29*
X138493500Y-56515000D03*
D28*
G36*
X139006729Y-57261264D02*
G01*
X139032211Y-57265044D01*
X139057200Y-57271303D01*
X139081454Y-57279982D01*
X139104742Y-57290996D01*
X139126837Y-57304239D01*
X139147528Y-57319585D01*
X139166616Y-57336884D01*
X139183915Y-57355972D01*
X139199261Y-57376663D01*
X139212504Y-57398758D01*
X139223518Y-57422046D01*
X139232197Y-57446300D01*
X139238456Y-57471289D01*
X139242236Y-57496771D01*
X139243500Y-57522500D01*
X139243500Y-58047500D01*
X139242236Y-58073229D01*
X139238456Y-58098711D01*
X139232197Y-58123700D01*
X139223518Y-58147954D01*
X139212504Y-58171242D01*
X139199261Y-58193337D01*
X139183915Y-58214028D01*
X139166616Y-58233116D01*
X139147528Y-58250415D01*
X139126837Y-58265761D01*
X139104742Y-58279004D01*
X139081454Y-58290018D01*
X139057200Y-58298697D01*
X139032211Y-58304956D01*
X139006729Y-58308736D01*
X138981000Y-58310000D01*
X138006000Y-58310000D01*
X137980271Y-58308736D01*
X137954789Y-58304956D01*
X137929800Y-58298697D01*
X137905546Y-58290018D01*
X137882258Y-58279004D01*
X137860163Y-58265761D01*
X137839472Y-58250415D01*
X137820384Y-58233116D01*
X137803085Y-58214028D01*
X137787739Y-58193337D01*
X137774496Y-58171242D01*
X137763482Y-58147954D01*
X137754803Y-58123700D01*
X137748544Y-58098711D01*
X137744764Y-58073229D01*
X137743500Y-58047500D01*
X137743500Y-57522500D01*
X137744764Y-57496771D01*
X137748544Y-57471289D01*
X137754803Y-57446300D01*
X137763482Y-57422046D01*
X137774496Y-57398758D01*
X137787739Y-57376663D01*
X137803085Y-57355972D01*
X137820384Y-57336884D01*
X137839472Y-57319585D01*
X137860163Y-57304239D01*
X137882258Y-57290996D01*
X137905546Y-57279982D01*
X137929800Y-57271303D01*
X137954789Y-57265044D01*
X137980271Y-57261264D01*
X138006000Y-57260000D01*
X138981000Y-57260000D01*
X139006729Y-57261264D01*
X139006729Y-57261264D01*
G37*
D29*
X138493500Y-57785000D03*
D27*
X111760000Y-66040000D03*
D28*
G36*
X112273229Y-62976264D02*
G01*
X112298711Y-62980044D01*
X112323700Y-62986303D01*
X112347954Y-62994982D01*
X112371242Y-63005996D01*
X112393337Y-63019239D01*
X112414028Y-63034585D01*
X112433116Y-63051884D01*
X112450415Y-63070972D01*
X112465761Y-63091663D01*
X112479004Y-63113758D01*
X112490018Y-63137046D01*
X112498697Y-63161300D01*
X112504956Y-63186289D01*
X112508736Y-63211771D01*
X112510000Y-63237500D01*
X112510000Y-63762500D01*
X112508736Y-63788229D01*
X112504956Y-63813711D01*
X112498697Y-63838700D01*
X112490018Y-63862954D01*
X112479004Y-63886242D01*
X112465761Y-63908337D01*
X112450415Y-63929028D01*
X112433116Y-63948116D01*
X112414028Y-63965415D01*
X112393337Y-63980761D01*
X112371242Y-63994004D01*
X112347954Y-64005018D01*
X112323700Y-64013697D01*
X112298711Y-64019956D01*
X112273229Y-64023736D01*
X112247500Y-64025000D01*
X111272500Y-64025000D01*
X111246771Y-64023736D01*
X111221289Y-64019956D01*
X111196300Y-64013697D01*
X111172046Y-64005018D01*
X111148758Y-63994004D01*
X111126663Y-63980761D01*
X111105972Y-63965415D01*
X111086884Y-63948116D01*
X111069585Y-63929028D01*
X111054239Y-63908337D01*
X111040996Y-63886242D01*
X111029982Y-63862954D01*
X111021303Y-63838700D01*
X111015044Y-63813711D01*
X111011264Y-63788229D01*
X111010000Y-63762500D01*
X111010000Y-63237500D01*
X111011264Y-63211771D01*
X111015044Y-63186289D01*
X111021303Y-63161300D01*
X111029982Y-63137046D01*
X111040996Y-63113758D01*
X111054239Y-63091663D01*
X111069585Y-63070972D01*
X111086884Y-63051884D01*
X111105972Y-63034585D01*
X111126663Y-63019239D01*
X111148758Y-63005996D01*
X111172046Y-62994982D01*
X111196300Y-62986303D01*
X111221289Y-62980044D01*
X111246771Y-62976264D01*
X111272500Y-62975000D01*
X112247500Y-62975000D01*
X112273229Y-62976264D01*
X112273229Y-62976264D01*
G37*
D29*
X111760000Y-63500000D03*
D28*
G36*
X112273229Y-64246264D02*
G01*
X112298711Y-64250044D01*
X112323700Y-64256303D01*
X112347954Y-64264982D01*
X112371242Y-64275996D01*
X112393337Y-64289239D01*
X112414028Y-64304585D01*
X112433116Y-64321884D01*
X112450415Y-64340972D01*
X112465761Y-64361663D01*
X112479004Y-64383758D01*
X112490018Y-64407046D01*
X112498697Y-64431300D01*
X112504956Y-64456289D01*
X112508736Y-64481771D01*
X112510000Y-64507500D01*
X112510000Y-65032500D01*
X112508736Y-65058229D01*
X112504956Y-65083711D01*
X112498697Y-65108700D01*
X112490018Y-65132954D01*
X112479004Y-65156242D01*
X112465761Y-65178337D01*
X112450415Y-65199028D01*
X112433116Y-65218116D01*
X112414028Y-65235415D01*
X112393337Y-65250761D01*
X112371242Y-65264004D01*
X112347954Y-65275018D01*
X112323700Y-65283697D01*
X112298711Y-65289956D01*
X112273229Y-65293736D01*
X112247500Y-65295000D01*
X111272500Y-65295000D01*
X111246771Y-65293736D01*
X111221289Y-65289956D01*
X111196300Y-65283697D01*
X111172046Y-65275018D01*
X111148758Y-65264004D01*
X111126663Y-65250761D01*
X111105972Y-65235415D01*
X111086884Y-65218116D01*
X111069585Y-65199028D01*
X111054239Y-65178337D01*
X111040996Y-65156242D01*
X111029982Y-65132954D01*
X111021303Y-65108700D01*
X111015044Y-65083711D01*
X111011264Y-65058229D01*
X111010000Y-65032500D01*
X111010000Y-64507500D01*
X111011264Y-64481771D01*
X111015044Y-64456289D01*
X111021303Y-64431300D01*
X111029982Y-64407046D01*
X111040996Y-64383758D01*
X111054239Y-64361663D01*
X111069585Y-64340972D01*
X111086884Y-64321884D01*
X111105972Y-64304585D01*
X111126663Y-64289239D01*
X111148758Y-64275996D01*
X111172046Y-64264982D01*
X111196300Y-64256303D01*
X111221289Y-64250044D01*
X111246771Y-64246264D01*
X111272500Y-64245000D01*
X112247500Y-64245000D01*
X112273229Y-64246264D01*
X112273229Y-64246264D01*
G37*
D29*
X111760000Y-64770000D03*
D23*
X156210000Y-74930000D03*
D24*
X156210000Y-72930000D03*
D23*
X156210000Y-67310000D03*
X156210000Y-65310000D03*
D24*
X156210000Y-63310000D03*
D30*
X106680000Y-75565000D02*
X106680000Y-72898000D01*
X119578412Y-83340990D02*
X120695999Y-84458577D01*
X109455990Y-83340990D02*
X119578412Y-83340990D01*
X120695999Y-84458577D02*
X120695999Y-97200999D01*
X106680000Y-80565000D02*
X109455990Y-83340990D01*
X120695999Y-97200999D02*
X122809000Y-99314000D01*
X133758000Y-99314000D02*
X136110000Y-96962000D01*
X122809000Y-99314000D02*
X133758000Y-99314000D01*
X111760000Y-62230000D02*
X114300000Y-59690000D01*
X111760000Y-63500000D02*
X111760000Y-62230000D01*
X114300000Y-59690000D02*
X118110000Y-59690000D01*
X128270000Y-71120000D02*
X123110000Y-71120000D01*
X121920000Y-71120000D02*
X116840000Y-66040000D01*
X123110000Y-71120000D02*
X121920000Y-71120000D01*
X120419500Y-59690000D02*
X120419500Y-60821370D01*
X116840000Y-64400870D02*
X118909685Y-62331185D01*
X116840000Y-66040000D02*
X116840000Y-64400870D01*
X118909685Y-62331185D02*
X118629870Y-62611000D01*
X120419500Y-60821370D02*
X118909685Y-62331185D01*
X117983000Y-78740000D02*
X114260000Y-78740000D01*
X125692000Y-59055000D02*
X121920000Y-62827000D01*
X121920000Y-65050051D02*
X121920000Y-66040000D01*
X121920000Y-62827000D02*
X121920000Y-65050051D01*
X127000000Y-59055000D02*
X125692000Y-59055000D01*
X133985000Y-64135000D02*
X133985000Y-61277500D01*
X131762500Y-59055000D02*
X127000000Y-59055000D01*
X133985000Y-61277500D02*
X131762500Y-59055000D01*
X114260000Y-73698000D02*
X114260000Y-72390000D01*
X115492000Y-74930000D02*
X114260000Y-73698000D01*
X118110000Y-74930000D02*
X115492000Y-74930000D01*
X124460000Y-73660000D02*
X123190000Y-74930000D01*
X128270000Y-73660000D02*
X124460000Y-73660000D01*
X123063000Y-75057000D02*
X123190000Y-74930000D01*
X123063000Y-78740000D02*
X123063000Y-75057000D01*
X133096000Y-78942130D02*
X133096000Y-80073500D01*
X133096000Y-76778000D02*
X133096000Y-78942130D01*
X129978000Y-73660000D02*
X133096000Y-76778000D01*
X128270000Y-73660000D02*
X129978000Y-73660000D01*
X139740000Y-74892000D02*
X138508000Y-73660000D01*
X139740000Y-76200000D02*
X139740000Y-74892000D01*
X138508000Y-73660000D02*
X135890000Y-73660000D01*
X133310000Y-52070000D02*
X130810000Y-52070000D01*
X139740000Y-78429500D02*
X138096000Y-80073500D01*
X139740000Y-76200000D02*
X139740000Y-78429500D01*
X127870000Y-68580000D02*
X128270000Y-68580000D01*
X125730000Y-66440000D02*
X127870000Y-68580000D01*
X125730000Y-64135000D02*
X125730000Y-66440000D01*
X130730000Y-63820000D02*
X130730000Y-63500000D01*
X135890000Y-68580000D02*
X135490000Y-68580000D01*
X134043630Y-68580000D02*
X134182000Y-68580000D01*
X130730000Y-65266370D02*
X134043630Y-68580000D01*
X134182000Y-68580000D02*
X135890000Y-68580000D01*
X130730000Y-64135000D02*
X130730000Y-65266370D01*
X142240000Y-71628000D02*
X142748000Y-71120000D01*
X142240000Y-76200000D02*
X142240000Y-71120000D01*
X121856500Y-51435000D02*
X122237500Y-51054000D01*
X137643500Y-56515000D02*
X135421000Y-54292500D01*
X138493500Y-56515000D02*
X137643500Y-56515000D01*
X118110000Y-51435000D02*
X122237500Y-51435000D01*
X122237500Y-51435000D02*
X125095000Y-54292500D01*
X125095000Y-54292500D02*
X126873000Y-54292500D01*
X126873000Y-54292500D02*
X125476000Y-54292500D01*
X135421000Y-54292500D02*
X126873000Y-54292500D01*
X115570000Y-50840000D02*
X115610000Y-50800000D01*
X114363500Y-52681500D02*
X115610000Y-51435000D01*
X114363500Y-56832500D02*
X114363500Y-52681500D01*
X114403500Y-50228500D02*
X115610000Y-51435000D01*
X104410500Y-52070000D02*
X106252000Y-50228500D01*
X106426000Y-50228500D02*
X114403500Y-50228500D01*
X106252000Y-50228500D02*
X106426000Y-50228500D01*
X141605000Y-53895000D02*
X141605000Y-54610000D01*
X144700000Y-50800000D02*
X141605000Y-53895000D01*
X141859000Y-57785000D02*
X142494000Y-58420000D01*
X138493500Y-57785000D02*
X141859000Y-57785000D01*
X142494000Y-62801500D02*
X142494000Y-58420000D01*
X146050000Y-66040000D02*
X149860000Y-66040000D01*
X146050000Y-66040000D02*
X142240000Y-66040000D01*
X150892500Y-65007500D02*
X149860000Y-66040000D01*
X150892500Y-52006500D02*
X150892500Y-65007500D01*
X156210000Y-72930000D02*
X156210000Y-67310000D01*
X153892000Y-65310000D02*
X153035000Y-66167000D01*
X156210000Y-65310000D02*
X153892000Y-65310000D01*
X106680000Y-67818000D02*
X106680000Y-64770000D01*
X106680000Y-64770000D02*
X111760000Y-64770000D01*
X146685000Y-54610000D02*
X146685000Y-52197000D01*
X146685000Y-52197000D02*
X148717000Y-50165000D01*
X151551000Y-50165000D02*
X153392500Y-52006500D01*
X148717000Y-50165000D02*
X151551000Y-50165000D01*
X155892500Y-52006500D02*
X153392500Y-52006500D01*
X136110000Y-101762000D02*
X137674001Y-100197999D01*
X137219999Y-100652001D02*
X137219999Y-100651001D01*
X136110000Y-101762000D02*
X137219999Y-100652001D01*
X137219999Y-100651001D02*
X138938000Y-98933000D01*
X130810000Y-92162000D02*
X129185001Y-90537001D01*
X124714000Y-86042500D02*
X122301000Y-86042500D01*
X129185001Y-90513501D02*
X124714000Y-86042500D01*
X130810000Y-91974000D02*
X133197000Y-94361000D01*
X133197000Y-94361000D02*
X137731500Y-94361000D01*
X138938000Y-95567500D02*
X138938000Y-96964500D01*
X137731500Y-94361000D02*
X138938000Y-95567500D01*
X138938000Y-96964500D02*
X138938000Y-96393000D01*
X138938000Y-98933000D02*
X138938000Y-96964500D01*
X126619000Y-79629000D02*
X129032000Y-79629000D01*
X132207000Y-82804000D02*
X132207000Y-84709000D01*
X129032000Y-79629000D02*
X132207000Y-82804000D01*
D31*
G36*
X158090001Y-83160000D02*
G01*
X156661012Y-83160000D01*
X156697537Y-83115494D01*
X156756502Y-83005180D01*
X156792812Y-82885482D01*
X156805072Y-82761000D01*
X156802000Y-81946750D01*
X156643250Y-81788000D01*
X155194000Y-81788000D01*
X155194000Y-81808000D01*
X154940000Y-81808000D01*
X154940000Y-81788000D01*
X153490750Y-81788000D01*
X153332000Y-81946750D01*
X153328928Y-82761000D01*
X153341188Y-82885482D01*
X153377498Y-83005180D01*
X153436463Y-83115494D01*
X153472988Y-83160000D01*
X148323118Y-83160000D01*
X148415578Y-83110579D01*
X148679766Y-82893766D01*
X148896579Y-82629578D01*
X149057686Y-82328168D01*
X149156895Y-82001119D01*
X149190394Y-81661000D01*
X149156895Y-81320881D01*
X149057686Y-80993832D01*
X148896579Y-80692422D01*
X148788724Y-80561000D01*
X153328928Y-80561000D01*
X153332000Y-81375250D01*
X153490750Y-81534000D01*
X154940000Y-81534000D01*
X154940000Y-80084750D01*
X155194000Y-80084750D01*
X155194000Y-81534000D01*
X156643250Y-81534000D01*
X156802000Y-81375250D01*
X156805072Y-80561000D01*
X156792812Y-80436518D01*
X156756502Y-80316820D01*
X156697537Y-80206506D01*
X156618185Y-80109815D01*
X156521494Y-80030463D01*
X156411180Y-79971498D01*
X156291482Y-79935188D01*
X156167000Y-79922928D01*
X155352750Y-79926000D01*
X155194000Y-80084750D01*
X154940000Y-80084750D01*
X154781250Y-79926000D01*
X153967000Y-79922928D01*
X153842518Y-79935188D01*
X153722820Y-79971498D01*
X153612506Y-80030463D01*
X153515815Y-80109815D01*
X153436463Y-80206506D01*
X153377498Y-80316820D01*
X153341188Y-80436518D01*
X153328928Y-80561000D01*
X148788724Y-80561000D01*
X148679766Y-80428234D01*
X148415578Y-80211421D01*
X148114168Y-80050314D01*
X147787119Y-79951105D01*
X147532225Y-79926000D01*
X147361775Y-79926000D01*
X147106881Y-79951105D01*
X146779832Y-80050314D01*
X146478422Y-80211421D01*
X146214234Y-80428234D01*
X145997421Y-80692422D01*
X145836314Y-80993832D01*
X145737105Y-81320881D01*
X145703606Y-81661000D01*
X145737105Y-82001119D01*
X145836314Y-82328168D01*
X145997421Y-82629578D01*
X146214234Y-82893766D01*
X146478422Y-83110579D01*
X146570882Y-83160000D01*
X142272419Y-83160000D01*
X142240000Y-83156807D01*
X142207581Y-83160000D01*
X142110617Y-83169550D01*
X141986207Y-83207290D01*
X141871550Y-83268575D01*
X141771052Y-83351052D01*
X141688575Y-83451550D01*
X141627290Y-83566207D01*
X141589550Y-83690617D01*
X141576807Y-83820000D01*
X141580001Y-83852429D01*
X141580000Y-104750000D01*
X120040000Y-104750000D01*
X120040000Y-97802999D01*
X120064341Y-97832658D01*
X120098258Y-97860493D01*
X122149506Y-99911742D01*
X122177341Y-99945659D01*
X122312709Y-100056753D01*
X122467149Y-100139303D01*
X122583892Y-100174716D01*
X122634725Y-100190136D01*
X122651325Y-100191771D01*
X122765333Y-100203000D01*
X122765340Y-100203000D01*
X122809000Y-100207300D01*
X122852660Y-100203000D01*
X123707995Y-100203000D01*
X123507214Y-100503489D01*
X123336851Y-100914782D01*
X123250000Y-101351409D01*
X123250000Y-101796591D01*
X123336851Y-102233218D01*
X123507214Y-102644511D01*
X123754544Y-103014666D01*
X124069334Y-103329456D01*
X124439489Y-103576786D01*
X124850782Y-103747149D01*
X125287409Y-103834000D01*
X125732591Y-103834000D01*
X126169218Y-103747149D01*
X126580511Y-103576786D01*
X126950666Y-103329456D01*
X127265456Y-103014666D01*
X127512786Y-102644511D01*
X127683149Y-102233218D01*
X127770000Y-101796591D01*
X127770000Y-101351409D01*
X127683149Y-100914782D01*
X127512786Y-100503489D01*
X127312005Y-100203000D01*
X129007995Y-100203000D01*
X128807214Y-100503489D01*
X128636851Y-100914782D01*
X128550000Y-101351409D01*
X128550000Y-101796591D01*
X128636851Y-102233218D01*
X128807214Y-102644511D01*
X129054544Y-103014666D01*
X129369334Y-103329456D01*
X129739489Y-103576786D01*
X130150782Y-103747149D01*
X130587409Y-103834000D01*
X131032591Y-103834000D01*
X131469218Y-103747149D01*
X131880511Y-103576786D01*
X132250666Y-103329456D01*
X132565456Y-103014666D01*
X132812786Y-102644511D01*
X132983149Y-102233218D01*
X133070000Y-101796591D01*
X133070000Y-101351409D01*
X132983149Y-100914782D01*
X132812786Y-100503489D01*
X132612005Y-100203000D01*
X133714340Y-100203000D01*
X133758000Y-100207300D01*
X133801660Y-100203000D01*
X133801667Y-100203000D01*
X133932274Y-100190136D01*
X134099851Y-100139303D01*
X134254291Y-100056753D01*
X134389659Y-99945659D01*
X134417499Y-99911736D01*
X135402207Y-98927028D01*
X135450782Y-98947149D01*
X135887409Y-99034000D01*
X136332591Y-99034000D01*
X136769218Y-98947149D01*
X137180511Y-98776786D01*
X137550666Y-98529456D01*
X137865456Y-98214666D01*
X138049001Y-97939973D01*
X138049000Y-98564765D01*
X137082959Y-99530806D01*
X136769218Y-99400851D01*
X136332591Y-99314000D01*
X135887409Y-99314000D01*
X135450782Y-99400851D01*
X135039489Y-99571214D01*
X134669334Y-99818544D01*
X134354544Y-100133334D01*
X134107214Y-100503489D01*
X133936851Y-100914782D01*
X133850000Y-101351409D01*
X133850000Y-101796591D01*
X133936851Y-102233218D01*
X134107214Y-102644511D01*
X134354544Y-103014666D01*
X134669334Y-103329456D01*
X135039489Y-103576786D01*
X135450782Y-103747149D01*
X135887409Y-103834000D01*
X136332591Y-103834000D01*
X136769218Y-103747149D01*
X137180511Y-103576786D01*
X137550666Y-103329456D01*
X137865456Y-103014666D01*
X138112786Y-102644511D01*
X138283149Y-102233218D01*
X138370000Y-101796591D01*
X138370000Y-101351409D01*
X138283149Y-100914782D01*
X138263028Y-100866207D01*
X138333495Y-100795740D01*
X138338072Y-100790163D01*
X139535737Y-99592498D01*
X139569659Y-99564659D01*
X139680753Y-99429291D01*
X139763303Y-99274851D01*
X139783296Y-99208942D01*
X139814136Y-99107276D01*
X139821353Y-99034000D01*
X139827000Y-98976667D01*
X139827000Y-98976661D01*
X139831300Y-98933001D01*
X139827000Y-98889341D01*
X139827000Y-95611160D01*
X139831300Y-95567500D01*
X139827000Y-95523840D01*
X139827000Y-95523833D01*
X139814136Y-95393226D01*
X139763303Y-95225649D01*
X139680753Y-95071209D01*
X139632206Y-95012054D01*
X139597495Y-94969759D01*
X139597494Y-94969758D01*
X139569659Y-94935841D01*
X139535743Y-94908007D01*
X138390999Y-93763264D01*
X138363159Y-93729341D01*
X138227791Y-93618247D01*
X138073351Y-93535697D01*
X137905774Y-93484864D01*
X137805167Y-93474955D01*
X137865456Y-93414666D01*
X138112786Y-93044511D01*
X138283149Y-92633218D01*
X138370000Y-92196591D01*
X138370000Y-91751409D01*
X138283149Y-91314782D01*
X138112786Y-90903489D01*
X137865456Y-90533334D01*
X137550666Y-90218544D01*
X137180511Y-89971214D01*
X136769218Y-89800851D01*
X136332591Y-89714000D01*
X135887409Y-89714000D01*
X135450782Y-89800851D01*
X135039489Y-89971214D01*
X134669334Y-90218544D01*
X134354544Y-90533334D01*
X134107214Y-90903489D01*
X133936851Y-91314782D01*
X133850000Y-91751409D01*
X133850000Y-92196591D01*
X133936851Y-92633218D01*
X134107214Y-93044511D01*
X134354544Y-93414666D01*
X134411878Y-93472000D01*
X133565236Y-93472000D01*
X132907965Y-92814729D01*
X132983149Y-92633218D01*
X133070000Y-92196591D01*
X133070000Y-91751409D01*
X132983149Y-91314782D01*
X132812786Y-90903489D01*
X132565456Y-90533334D01*
X132250666Y-90218544D01*
X131880511Y-89971214D01*
X131469218Y-89800851D01*
X131032591Y-89714000D01*
X130587409Y-89714000D01*
X130150782Y-89800851D01*
X129851820Y-89924685D01*
X129844495Y-89915760D01*
X125373499Y-85444764D01*
X125345659Y-85410841D01*
X125210291Y-85299747D01*
X125055851Y-85217197D01*
X124888274Y-85166364D01*
X124757667Y-85153500D01*
X124757660Y-85153500D01*
X124714000Y-85149200D01*
X124670340Y-85153500D01*
X123574657Y-85153500D01*
X123565502Y-85123320D01*
X123506537Y-85013006D01*
X123427185Y-84916315D01*
X123338369Y-84843426D01*
X123395495Y-84773818D01*
X123430141Y-84709000D01*
X125277541Y-84709000D01*
X125303317Y-84970706D01*
X125379653Y-85222354D01*
X125503618Y-85454275D01*
X125670445Y-85657555D01*
X125873725Y-85824382D01*
X126105646Y-85948347D01*
X126357294Y-86024683D01*
X126553421Y-86044000D01*
X126684579Y-86044000D01*
X126880706Y-86024683D01*
X127132354Y-85948347D01*
X127364275Y-85824382D01*
X127567555Y-85657555D01*
X127734382Y-85454275D01*
X127858347Y-85222354D01*
X127934683Y-84970706D01*
X127960459Y-84709000D01*
X127934683Y-84447294D01*
X127858347Y-84195646D01*
X127734382Y-83963725D01*
X127567555Y-83760445D01*
X127364275Y-83593618D01*
X127132354Y-83469653D01*
X126880706Y-83393317D01*
X126684579Y-83374000D01*
X126553421Y-83374000D01*
X126357294Y-83393317D01*
X126105646Y-83469653D01*
X125873725Y-83593618D01*
X125670445Y-83760445D01*
X125503618Y-83963725D01*
X125379653Y-84195646D01*
X125303317Y-84447294D01*
X125277541Y-84709000D01*
X123430141Y-84709000D01*
X123517138Y-84546241D01*
X123592045Y-84299305D01*
X123617338Y-84042500D01*
X123592045Y-83785695D01*
X123517138Y-83538759D01*
X123395495Y-83311182D01*
X123231792Y-83111708D01*
X123032318Y-82948005D01*
X122804741Y-82826362D01*
X122557805Y-82751455D01*
X122365351Y-82732500D01*
X122236649Y-82732500D01*
X122044195Y-82751455D01*
X121797259Y-82826362D01*
X121569682Y-82948005D01*
X121370208Y-83111708D01*
X121206505Y-83311182D01*
X121084862Y-83538759D01*
X121072888Y-83578231D01*
X120237911Y-82743254D01*
X120210071Y-82709331D01*
X120074703Y-82598237D01*
X119920263Y-82515687D01*
X119752686Y-82464854D01*
X119622079Y-82451990D01*
X119622072Y-82451990D01*
X119578412Y-82447690D01*
X119534752Y-82451990D01*
X109824226Y-82451990D01*
X108108956Y-80736721D01*
X108115000Y-80706335D01*
X108115000Y-80423665D01*
X108059853Y-80146426D01*
X107951680Y-79885273D01*
X107794637Y-79650241D01*
X107594759Y-79450363D01*
X107359727Y-79293320D01*
X107098574Y-79185147D01*
X106821335Y-79130000D01*
X106538665Y-79130000D01*
X106261426Y-79185147D01*
X106000273Y-79293320D01*
X105765241Y-79450363D01*
X105565363Y-79650241D01*
X105408320Y-79885273D01*
X105300147Y-80146426D01*
X105245000Y-80423665D01*
X105245000Y-80706335D01*
X105300147Y-80983574D01*
X105408320Y-81244727D01*
X105565363Y-81479759D01*
X105765241Y-81679637D01*
X106000273Y-81836680D01*
X106261426Y-81944853D01*
X106538665Y-82000000D01*
X106821335Y-82000000D01*
X106851721Y-81993956D01*
X108017764Y-83160000D01*
X102260000Y-83160000D01*
X102260000Y-78598665D01*
X110325000Y-78598665D01*
X110325000Y-78881335D01*
X110380147Y-79158574D01*
X110488320Y-79419727D01*
X110645363Y-79654759D01*
X110845241Y-79854637D01*
X111080273Y-80011680D01*
X111341426Y-80119853D01*
X111618665Y-80175000D01*
X111901335Y-80175000D01*
X112178574Y-80119853D01*
X112439727Y-80011680D01*
X112674759Y-79854637D01*
X112841339Y-79688057D01*
X112870498Y-79784180D01*
X112929463Y-79894494D01*
X113008815Y-79991185D01*
X113105506Y-80070537D01*
X113215820Y-80129502D01*
X113335518Y-80165812D01*
X113460000Y-80178072D01*
X115060000Y-80178072D01*
X115184482Y-80165812D01*
X115304180Y-80129502D01*
X115414494Y-80070537D01*
X115511185Y-79991185D01*
X115590537Y-79894494D01*
X115649502Y-79784180D01*
X115685812Y-79664482D01*
X115689307Y-79629000D01*
X116984025Y-79629000D01*
X117131987Y-79776962D01*
X117350641Y-79923061D01*
X117593595Y-80023696D01*
X117851514Y-80075000D01*
X118114486Y-80075000D01*
X118372405Y-80023696D01*
X118615359Y-79923061D01*
X118834013Y-79776962D01*
X119019962Y-79591013D01*
X119166061Y-79372359D01*
X119266696Y-79129405D01*
X119318000Y-78871486D01*
X119318000Y-78608514D01*
X119266696Y-78350595D01*
X119166061Y-78107641D01*
X119019962Y-77888987D01*
X118834013Y-77703038D01*
X118615359Y-77556939D01*
X118372405Y-77456304D01*
X118114486Y-77405000D01*
X117851514Y-77405000D01*
X117593595Y-77456304D01*
X117350641Y-77556939D01*
X117131987Y-77703038D01*
X116984025Y-77851000D01*
X115689307Y-77851000D01*
X115685812Y-77815518D01*
X115649502Y-77695820D01*
X115590537Y-77585506D01*
X115511185Y-77488815D01*
X115414494Y-77409463D01*
X115304180Y-77350498D01*
X115184482Y-77314188D01*
X115060000Y-77301928D01*
X113460000Y-77301928D01*
X113335518Y-77314188D01*
X113215820Y-77350498D01*
X113105506Y-77409463D01*
X113008815Y-77488815D01*
X112929463Y-77585506D01*
X112870498Y-77695820D01*
X112841339Y-77791943D01*
X112674759Y-77625363D01*
X112439727Y-77468320D01*
X112178574Y-77360147D01*
X111901335Y-77305000D01*
X111618665Y-77305000D01*
X111341426Y-77360147D01*
X111080273Y-77468320D01*
X110845241Y-77625363D01*
X110645363Y-77825241D01*
X110488320Y-78060273D01*
X110380147Y-78321426D01*
X110325000Y-78598665D01*
X102260000Y-78598665D01*
X102260000Y-75423665D01*
X105245000Y-75423665D01*
X105245000Y-75706335D01*
X105300147Y-75983574D01*
X105408320Y-76244727D01*
X105565363Y-76479759D01*
X105765241Y-76679637D01*
X106000273Y-76836680D01*
X106261426Y-76944853D01*
X106538665Y-77000000D01*
X106821335Y-77000000D01*
X107098574Y-76944853D01*
X107359727Y-76836680D01*
X107594759Y-76679637D01*
X107794637Y-76479759D01*
X107951680Y-76244727D01*
X108059853Y-75983574D01*
X108115000Y-75706335D01*
X108115000Y-75423665D01*
X108059853Y-75146426D01*
X107951680Y-74885273D01*
X107794637Y-74650241D01*
X107594759Y-74450363D01*
X107569000Y-74433151D01*
X107569000Y-73895430D01*
X107628555Y-73846555D01*
X107795382Y-73643275D01*
X107919347Y-73411354D01*
X107995683Y-73159706D01*
X108021459Y-72898000D01*
X107995683Y-72636294D01*
X107919347Y-72384646D01*
X107846664Y-72248665D01*
X110325000Y-72248665D01*
X110325000Y-72531335D01*
X110380147Y-72808574D01*
X110488320Y-73069727D01*
X110645363Y-73304759D01*
X110845241Y-73504637D01*
X111080273Y-73661680D01*
X111341426Y-73769853D01*
X111618665Y-73825000D01*
X111901335Y-73825000D01*
X112178574Y-73769853D01*
X112439727Y-73661680D01*
X112674759Y-73504637D01*
X112841339Y-73338057D01*
X112870498Y-73434180D01*
X112929463Y-73544494D01*
X113008815Y-73641185D01*
X113105506Y-73720537D01*
X113215820Y-73779502D01*
X113335518Y-73815812D01*
X113378722Y-73820067D01*
X113383864Y-73872273D01*
X113434697Y-74039850D01*
X113517247Y-74194290D01*
X113628341Y-74329659D01*
X113662264Y-74357499D01*
X114832504Y-75527740D01*
X114860341Y-75561659D01*
X114995709Y-75672753D01*
X115150149Y-75755303D01*
X115192455Y-75768136D01*
X115317724Y-75806136D01*
X115350924Y-75809406D01*
X115448333Y-75819000D01*
X115448339Y-75819000D01*
X115491999Y-75823300D01*
X115535659Y-75819000D01*
X117111025Y-75819000D01*
X117258987Y-75966962D01*
X117477641Y-76113061D01*
X117720595Y-76213696D01*
X117978514Y-76265000D01*
X118241486Y-76265000D01*
X118499405Y-76213696D01*
X118742359Y-76113061D01*
X118961013Y-75966962D01*
X119146962Y-75781013D01*
X119293061Y-75562359D01*
X119393696Y-75319405D01*
X119445000Y-75061486D01*
X119445000Y-74798514D01*
X119393696Y-74540595D01*
X119293061Y-74297641D01*
X119146962Y-74078987D01*
X118961013Y-73893038D01*
X118742359Y-73746939D01*
X118499405Y-73646304D01*
X118241486Y-73595000D01*
X117978514Y-73595000D01*
X117720595Y-73646304D01*
X117477641Y-73746939D01*
X117258987Y-73893038D01*
X117111025Y-74041000D01*
X115860236Y-74041000D01*
X115483303Y-73664067D01*
X115511185Y-73641185D01*
X115590537Y-73544494D01*
X115649502Y-73434180D01*
X115685812Y-73314482D01*
X115698072Y-73190000D01*
X115698072Y-71590000D01*
X115685812Y-71465518D01*
X115649502Y-71345820D01*
X115590537Y-71235506D01*
X115511185Y-71138815D01*
X115414494Y-71059463D01*
X115304180Y-71000498D01*
X115232207Y-70978665D01*
X116675000Y-70978665D01*
X116675000Y-71261335D01*
X116730147Y-71538574D01*
X116838320Y-71799727D01*
X116995363Y-72034759D01*
X117195241Y-72234637D01*
X117430273Y-72391680D01*
X117691426Y-72499853D01*
X117968665Y-72555000D01*
X118251335Y-72555000D01*
X118528574Y-72499853D01*
X118789727Y-72391680D01*
X119024759Y-72234637D01*
X119224637Y-72034759D01*
X119381680Y-71799727D01*
X119489853Y-71538574D01*
X119545000Y-71261335D01*
X119545000Y-70978665D01*
X119489853Y-70701426D01*
X119381680Y-70440273D01*
X119224637Y-70205241D01*
X119024759Y-70005363D01*
X118789727Y-69848320D01*
X118528574Y-69740147D01*
X118251335Y-69685000D01*
X117968665Y-69685000D01*
X117691426Y-69740147D01*
X117430273Y-69848320D01*
X117195241Y-70005363D01*
X116995363Y-70205241D01*
X116838320Y-70440273D01*
X116730147Y-70701426D01*
X116675000Y-70978665D01*
X115232207Y-70978665D01*
X115184482Y-70964188D01*
X115060000Y-70951928D01*
X113460000Y-70951928D01*
X113335518Y-70964188D01*
X113215820Y-71000498D01*
X113105506Y-71059463D01*
X113008815Y-71138815D01*
X112929463Y-71235506D01*
X112870498Y-71345820D01*
X112841339Y-71441943D01*
X112674759Y-71275363D01*
X112439727Y-71118320D01*
X112178574Y-71010147D01*
X111901335Y-70955000D01*
X111618665Y-70955000D01*
X111341426Y-71010147D01*
X111080273Y-71118320D01*
X110845241Y-71275363D01*
X110645363Y-71475241D01*
X110488320Y-71710273D01*
X110380147Y-71971426D01*
X110325000Y-72248665D01*
X107846664Y-72248665D01*
X107795382Y-72152725D01*
X107628555Y-71949445D01*
X107425275Y-71782618D01*
X107193354Y-71658653D01*
X106941706Y-71582317D01*
X106745579Y-71563000D01*
X106614421Y-71563000D01*
X106418294Y-71582317D01*
X106166646Y-71658653D01*
X105934725Y-71782618D01*
X105731445Y-71949445D01*
X105564618Y-72152725D01*
X105440653Y-72384646D01*
X105364317Y-72636294D01*
X105338541Y-72898000D01*
X105364317Y-73159706D01*
X105440653Y-73411354D01*
X105564618Y-73643275D01*
X105731445Y-73846555D01*
X105791001Y-73895431D01*
X105791000Y-74433151D01*
X105765241Y-74450363D01*
X105565363Y-74650241D01*
X105408320Y-74885273D01*
X105300147Y-75146426D01*
X105245000Y-75423665D01*
X102260000Y-75423665D01*
X102260000Y-64770000D01*
X105338541Y-64770000D01*
X105364317Y-65031706D01*
X105440653Y-65283354D01*
X105564618Y-65515275D01*
X105731445Y-65718555D01*
X105791001Y-65767431D01*
X105791000Y-66819025D01*
X105643038Y-66966987D01*
X105496939Y-67185641D01*
X105396304Y-67428595D01*
X105345000Y-67686514D01*
X105345000Y-67949486D01*
X105396304Y-68207405D01*
X105496939Y-68450359D01*
X105643038Y-68669013D01*
X105828987Y-68854962D01*
X106047641Y-69001061D01*
X106290595Y-69101696D01*
X106548514Y-69153000D01*
X106811486Y-69153000D01*
X107069405Y-69101696D01*
X107312359Y-69001061D01*
X107531013Y-68854962D01*
X107716962Y-68669013D01*
X107863061Y-68450359D01*
X107963696Y-68207405D01*
X108015000Y-67949486D01*
X108015000Y-67686514D01*
X107963696Y-67428595D01*
X107863061Y-67185641D01*
X107716962Y-66966987D01*
X107569000Y-66819025D01*
X107569000Y-66565000D01*
X110371928Y-66565000D01*
X110384188Y-66689482D01*
X110420498Y-66809180D01*
X110479463Y-66919494D01*
X110558815Y-67016185D01*
X110655506Y-67095537D01*
X110765820Y-67154502D01*
X110885518Y-67190812D01*
X111010000Y-67203072D01*
X111474250Y-67200000D01*
X111633000Y-67041250D01*
X111633000Y-66167000D01*
X111887000Y-66167000D01*
X111887000Y-67041250D01*
X112045750Y-67200000D01*
X112510000Y-67203072D01*
X112634482Y-67190812D01*
X112754180Y-67154502D01*
X112864494Y-67095537D01*
X112961185Y-67016185D01*
X113040537Y-66919494D01*
X113099502Y-66809180D01*
X113135812Y-66689482D01*
X113148072Y-66565000D01*
X113145000Y-66325750D01*
X112986250Y-66167000D01*
X111887000Y-66167000D01*
X111633000Y-66167000D01*
X110533750Y-66167000D01*
X110375000Y-66325750D01*
X110371928Y-66565000D01*
X107569000Y-66565000D01*
X107569000Y-65767430D01*
X107628555Y-65718555D01*
X107677430Y-65659000D01*
X110373777Y-65659000D01*
X110375000Y-65754250D01*
X110533750Y-65913000D01*
X111087682Y-65913000D01*
X111096807Y-65915768D01*
X111272500Y-65933072D01*
X112247500Y-65933072D01*
X112423193Y-65915768D01*
X112432318Y-65913000D01*
X112986250Y-65913000D01*
X113145000Y-65754250D01*
X113148072Y-65515000D01*
X113135812Y-65390518D01*
X113105636Y-65291041D01*
X113130768Y-65208193D01*
X113148072Y-65032500D01*
X113148072Y-64507500D01*
X113130768Y-64331807D01*
X113079520Y-64162866D01*
X113064625Y-64135000D01*
X113079520Y-64107134D01*
X113130768Y-63938193D01*
X113148072Y-63762500D01*
X113148072Y-63237500D01*
X113130768Y-63061807D01*
X113079520Y-62892866D01*
X112996298Y-62737169D01*
X112884301Y-62600699D01*
X112753709Y-62493526D01*
X114223328Y-61023907D01*
X114234421Y-61025000D01*
X114365579Y-61025000D01*
X114561706Y-61005683D01*
X114813354Y-60929347D01*
X115045275Y-60805382D01*
X115248555Y-60638555D01*
X115297430Y-60579000D01*
X116490193Y-60579000D01*
X116493688Y-60614482D01*
X116529998Y-60734180D01*
X116588963Y-60844494D01*
X116668315Y-60941185D01*
X116765006Y-61020537D01*
X116875320Y-61079502D01*
X116995018Y-61115812D01*
X117119500Y-61128072D01*
X118719500Y-61128072D01*
X118843982Y-61115812D01*
X118878204Y-61105431D01*
X118311949Y-61671686D01*
X118311944Y-61671690D01*
X116242259Y-63741376D01*
X116208342Y-63769211D01*
X116180507Y-63803128D01*
X116180505Y-63803130D01*
X116097248Y-63904579D01*
X116014698Y-64059018D01*
X115963864Y-64226596D01*
X115946700Y-64400870D01*
X115951001Y-64444540D01*
X115951001Y-65041024D01*
X115803038Y-65188987D01*
X115656939Y-65407641D01*
X115556304Y-65650595D01*
X115505000Y-65908514D01*
X115505000Y-66171486D01*
X115556304Y-66429405D01*
X115656939Y-66672359D01*
X115803038Y-66891013D01*
X115988987Y-67076962D01*
X116207641Y-67223061D01*
X116450595Y-67323696D01*
X116708514Y-67375000D01*
X116917765Y-67375000D01*
X121260505Y-71717741D01*
X121288341Y-71751659D01*
X121322258Y-71779494D01*
X121322259Y-71779495D01*
X121346912Y-71799727D01*
X121423709Y-71862753D01*
X121578149Y-71945303D01*
X121659078Y-71969852D01*
X121745725Y-71996136D01*
X121762325Y-71997771D01*
X121876333Y-72009000D01*
X121876340Y-72009000D01*
X121920000Y-72013300D01*
X121963660Y-72009000D01*
X121978151Y-72009000D01*
X121995363Y-72034759D01*
X122195241Y-72234637D01*
X122430273Y-72391680D01*
X122691426Y-72499853D01*
X122968665Y-72555000D01*
X123251335Y-72555000D01*
X123528574Y-72499853D01*
X123789727Y-72391680D01*
X124024759Y-72234637D01*
X124224637Y-72034759D01*
X124241849Y-72009000D01*
X126743205Y-72009000D01*
X126850392Y-72139608D01*
X127068899Y-72318932D01*
X127201858Y-72390000D01*
X127068899Y-72461068D01*
X126850392Y-72640392D01*
X126743205Y-72771000D01*
X124503659Y-72771000D01*
X124459999Y-72766700D01*
X124416339Y-72771000D01*
X124416333Y-72771000D01*
X124318924Y-72780594D01*
X124285724Y-72783864D01*
X124184058Y-72814704D01*
X124118149Y-72834697D01*
X123963709Y-72917247D01*
X123828341Y-73028341D01*
X123800506Y-73062259D01*
X123266672Y-73596093D01*
X123255579Y-73595000D01*
X123124421Y-73595000D01*
X122928294Y-73614317D01*
X122676646Y-73690653D01*
X122444725Y-73814618D01*
X122241445Y-73981445D01*
X122074618Y-74184725D01*
X121950653Y-74416646D01*
X121874317Y-74668294D01*
X121848541Y-74930000D01*
X121874317Y-75191706D01*
X121950653Y-75443354D01*
X122074618Y-75675275D01*
X122174001Y-75796374D01*
X122174000Y-77742569D01*
X122114445Y-77791445D01*
X121947618Y-77994725D01*
X121823653Y-78226646D01*
X121747317Y-78478294D01*
X121721541Y-78740000D01*
X121747317Y-79001706D01*
X121823653Y-79253354D01*
X121947618Y-79485275D01*
X122114445Y-79688555D01*
X122317725Y-79855382D01*
X122549646Y-79979347D01*
X122801294Y-80055683D01*
X122997421Y-80075000D01*
X123128579Y-80075000D01*
X123324706Y-80055683D01*
X123576354Y-79979347D01*
X123808275Y-79855382D01*
X124011555Y-79688555D01*
X124168337Y-79497514D01*
X125284000Y-79497514D01*
X125284000Y-79760486D01*
X125335304Y-80018405D01*
X125435939Y-80261359D01*
X125582038Y-80480013D01*
X125767987Y-80665962D01*
X125986641Y-80812061D01*
X126229595Y-80912696D01*
X126487514Y-80964000D01*
X126750486Y-80964000D01*
X127008405Y-80912696D01*
X127251359Y-80812061D01*
X127470013Y-80665962D01*
X127617975Y-80518000D01*
X128663765Y-80518000D01*
X131316692Y-83170928D01*
X131307000Y-83170928D01*
X131182518Y-83183188D01*
X131062820Y-83219498D01*
X130952506Y-83278463D01*
X130855815Y-83357815D01*
X130776463Y-83454506D01*
X130717498Y-83564820D01*
X130711944Y-83583127D01*
X130645505Y-83516688D01*
X130394095Y-83348701D01*
X130114743Y-83232989D01*
X129818184Y-83174000D01*
X129515816Y-83174000D01*
X129219257Y-83232989D01*
X128939905Y-83348701D01*
X128688495Y-83516688D01*
X128474688Y-83730495D01*
X128306701Y-83981905D01*
X128190989Y-84261257D01*
X128132000Y-84557816D01*
X128132000Y-84860184D01*
X128190989Y-85156743D01*
X128306701Y-85436095D01*
X128474688Y-85687505D01*
X128688495Y-85901312D01*
X128939905Y-86069299D01*
X129219257Y-86185011D01*
X129515816Y-86244000D01*
X129818184Y-86244000D01*
X130114743Y-86185011D01*
X130394095Y-86069299D01*
X130645505Y-85901312D01*
X130711944Y-85834873D01*
X130717498Y-85853180D01*
X130776463Y-85963494D01*
X130855815Y-86060185D01*
X130952506Y-86139537D01*
X131062820Y-86198502D01*
X131182518Y-86234812D01*
X131307000Y-86247072D01*
X133107000Y-86247072D01*
X133231482Y-86234812D01*
X133351180Y-86198502D01*
X133461494Y-86139537D01*
X133558185Y-86060185D01*
X133637537Y-85963494D01*
X133696502Y-85853180D01*
X133732812Y-85733482D01*
X133745072Y-85609000D01*
X133745072Y-84074000D01*
X138256662Y-84074000D01*
X138281955Y-84330805D01*
X138356862Y-84577741D01*
X138478505Y-84805318D01*
X138535631Y-84874926D01*
X138446815Y-84947815D01*
X138367463Y-85044506D01*
X138308498Y-85154820D01*
X138272188Y-85274518D01*
X138259928Y-85399000D01*
X138259928Y-86749000D01*
X138272188Y-86873482D01*
X138308498Y-86993180D01*
X138367463Y-87103494D01*
X138446815Y-87200185D01*
X138543506Y-87279537D01*
X138653820Y-87338502D01*
X138773518Y-87374812D01*
X138898000Y-87387072D01*
X140248000Y-87387072D01*
X140372482Y-87374812D01*
X140492180Y-87338502D01*
X140602494Y-87279537D01*
X140699185Y-87200185D01*
X140778537Y-87103494D01*
X140837502Y-86993180D01*
X140873812Y-86873482D01*
X140886072Y-86749000D01*
X140886072Y-85399000D01*
X140873812Y-85274518D01*
X140837502Y-85154820D01*
X140778537Y-85044506D01*
X140699185Y-84947815D01*
X140610369Y-84874926D01*
X140667495Y-84805318D01*
X140789138Y-84577741D01*
X140864045Y-84330805D01*
X140889338Y-84074000D01*
X140864045Y-83817195D01*
X140789138Y-83570259D01*
X140667495Y-83342682D01*
X140503792Y-83143208D01*
X140304318Y-82979505D01*
X140076741Y-82857862D01*
X139829805Y-82782955D01*
X139637351Y-82764000D01*
X139508649Y-82764000D01*
X139316195Y-82782955D01*
X139069259Y-82857862D01*
X138841682Y-82979505D01*
X138642208Y-83143208D01*
X138478505Y-83342682D01*
X138356862Y-83570259D01*
X138281955Y-83817195D01*
X138256662Y-84074000D01*
X133745072Y-84074000D01*
X133745072Y-83809000D01*
X133732812Y-83684518D01*
X133696502Y-83564820D01*
X133637537Y-83454506D01*
X133558185Y-83357815D01*
X133461494Y-83278463D01*
X133351180Y-83219498D01*
X133231482Y-83183188D01*
X133107000Y-83170928D01*
X133096000Y-83170928D01*
X133096000Y-82847659D01*
X133100300Y-82803999D01*
X133096000Y-82760339D01*
X133096000Y-82760333D01*
X133083136Y-82629726D01*
X133073585Y-82598238D01*
X133061002Y-82556758D01*
X133032303Y-82462149D01*
X132949753Y-82307709D01*
X132838659Y-82172341D01*
X132804743Y-82144507D01*
X129691499Y-79031264D01*
X129663659Y-78997341D01*
X129528291Y-78886247D01*
X129373851Y-78803697D01*
X129206274Y-78752864D01*
X129075667Y-78740000D01*
X129075660Y-78740000D01*
X129032000Y-78735700D01*
X128988340Y-78740000D01*
X127617975Y-78740000D01*
X127470013Y-78592038D01*
X127251359Y-78445939D01*
X127008405Y-78345304D01*
X126750486Y-78294000D01*
X126487514Y-78294000D01*
X126229595Y-78345304D01*
X125986641Y-78445939D01*
X125767987Y-78592038D01*
X125582038Y-78777987D01*
X125435939Y-78996641D01*
X125335304Y-79239595D01*
X125284000Y-79497514D01*
X124168337Y-79497514D01*
X124178382Y-79485275D01*
X124302347Y-79253354D01*
X124378683Y-79001706D01*
X124404459Y-78740000D01*
X124378683Y-78478294D01*
X124302347Y-78226646D01*
X124178382Y-77994725D01*
X124011555Y-77791445D01*
X123952000Y-77742570D01*
X123952000Y-76031656D01*
X124138555Y-75878555D01*
X124305382Y-75675275D01*
X124429347Y-75443354D01*
X124505683Y-75191706D01*
X124531459Y-74930000D01*
X124523907Y-74853328D01*
X124828236Y-74549000D01*
X126743205Y-74549000D01*
X126850392Y-74679608D01*
X127068899Y-74858932D01*
X127201858Y-74930000D01*
X127068899Y-75001068D01*
X126850392Y-75180392D01*
X126671068Y-75398899D01*
X126537818Y-75648192D01*
X126455764Y-75918691D01*
X126428057Y-76200000D01*
X126455764Y-76481309D01*
X126537818Y-76751808D01*
X126671068Y-77001101D01*
X126850392Y-77219608D01*
X127068899Y-77398932D01*
X127318192Y-77532182D01*
X127588691Y-77614236D01*
X127799508Y-77635000D01*
X128740492Y-77635000D01*
X128951309Y-77614236D01*
X129221808Y-77532182D01*
X129471101Y-77398932D01*
X129689608Y-77219608D01*
X129868932Y-77001101D01*
X130002182Y-76751808D01*
X130084236Y-76481309D01*
X130111943Y-76200000D01*
X130084236Y-75918691D01*
X130002182Y-75648192D01*
X129868932Y-75398899D01*
X129689608Y-75180392D01*
X129471101Y-75001068D01*
X129338142Y-74930000D01*
X129471101Y-74858932D01*
X129689608Y-74679608D01*
X129712490Y-74651726D01*
X132207000Y-77146236D01*
X132207001Y-78898454D01*
X132207000Y-78898464D01*
X132207000Y-78941651D01*
X132181241Y-78958863D01*
X131981363Y-79158741D01*
X131824320Y-79393773D01*
X131716147Y-79654926D01*
X131661000Y-79932165D01*
X131661000Y-80214835D01*
X131716147Y-80492074D01*
X131824320Y-80753227D01*
X131981363Y-80988259D01*
X132181241Y-81188137D01*
X132416273Y-81345180D01*
X132677426Y-81453353D01*
X132954665Y-81508500D01*
X133237335Y-81508500D01*
X133514574Y-81453353D01*
X133775727Y-81345180D01*
X134010759Y-81188137D01*
X134210637Y-80988259D01*
X134367680Y-80753227D01*
X134475853Y-80492074D01*
X134531000Y-80214835D01*
X134531000Y-79932165D01*
X134475853Y-79654926D01*
X134367680Y-79393773D01*
X134210637Y-79158741D01*
X134010759Y-78958863D01*
X133985000Y-78941651D01*
X133985000Y-76821660D01*
X133989300Y-76778000D01*
X133985000Y-76734340D01*
X133985000Y-76734333D01*
X133972136Y-76603726D01*
X133953367Y-76541850D01*
X133935002Y-76481309D01*
X133921303Y-76436149D01*
X133838753Y-76281709D01*
X133727659Y-76146341D01*
X133693743Y-76118507D01*
X131235236Y-73660000D01*
X134048057Y-73660000D01*
X134075764Y-73941309D01*
X134157818Y-74211808D01*
X134291068Y-74461101D01*
X134470392Y-74679608D01*
X134688899Y-74858932D01*
X134821858Y-74930000D01*
X134688899Y-75001068D01*
X134470392Y-75180392D01*
X134291068Y-75398899D01*
X134157818Y-75648192D01*
X134075764Y-75918691D01*
X134048057Y-76200000D01*
X134075764Y-76481309D01*
X134157818Y-76751808D01*
X134291068Y-77001101D01*
X134470392Y-77219608D01*
X134688899Y-77398932D01*
X134938192Y-77532182D01*
X135208691Y-77614236D01*
X135419508Y-77635000D01*
X136360492Y-77635000D01*
X136571309Y-77614236D01*
X136841808Y-77532182D01*
X137091101Y-77398932D01*
X137309608Y-77219608D01*
X137488932Y-77001101D01*
X137622182Y-76751808D01*
X137704236Y-76481309D01*
X137731943Y-76200000D01*
X137704236Y-75918691D01*
X137622182Y-75648192D01*
X137488932Y-75398899D01*
X137309608Y-75180392D01*
X137091101Y-75001068D01*
X136958142Y-74930000D01*
X137091101Y-74858932D01*
X137309608Y-74679608D01*
X137416795Y-74549000D01*
X138139765Y-74549000D01*
X138516697Y-74925933D01*
X138488815Y-74948815D01*
X138409463Y-75045506D01*
X138350498Y-75155820D01*
X138314188Y-75275518D01*
X138301928Y-75400000D01*
X138301928Y-77000000D01*
X138314188Y-77124482D01*
X138350498Y-77244180D01*
X138409463Y-77354494D01*
X138488815Y-77451185D01*
X138585506Y-77530537D01*
X138695820Y-77589502D01*
X138815518Y-77625812D01*
X138851001Y-77629307D01*
X138851001Y-78061263D01*
X138267720Y-78644544D01*
X138237335Y-78638500D01*
X137954665Y-78638500D01*
X137677426Y-78693647D01*
X137416273Y-78801820D01*
X137181241Y-78958863D01*
X136981363Y-79158741D01*
X136824320Y-79393773D01*
X136716147Y-79654926D01*
X136661000Y-79932165D01*
X136661000Y-80214835D01*
X136716147Y-80492074D01*
X136824320Y-80753227D01*
X136981363Y-80988259D01*
X137181241Y-81188137D01*
X137416273Y-81345180D01*
X137677426Y-81453353D01*
X137954665Y-81508500D01*
X138237335Y-81508500D01*
X138514574Y-81453353D01*
X138775727Y-81345180D01*
X139010759Y-81188137D01*
X139210637Y-80988259D01*
X139367680Y-80753227D01*
X139475853Y-80492074D01*
X139531000Y-80214835D01*
X139531000Y-79932165D01*
X139524956Y-79901780D01*
X140337742Y-79088994D01*
X140371659Y-79061159D01*
X140482753Y-78925791D01*
X140526630Y-78843702D01*
X146633903Y-78843702D01*
X146705486Y-79087671D01*
X146960996Y-79208571D01*
X147235184Y-79277300D01*
X147517512Y-79291217D01*
X147797130Y-79249787D01*
X148063292Y-79154603D01*
X148188514Y-79087671D01*
X148260097Y-78843702D01*
X147447000Y-78030605D01*
X146633903Y-78843702D01*
X140526630Y-78843702D01*
X140565303Y-78771351D01*
X140597838Y-78664097D01*
X140616136Y-78603776D01*
X140619883Y-78565726D01*
X140629000Y-78473167D01*
X140629000Y-78473161D01*
X140633300Y-78429501D01*
X140629000Y-78385841D01*
X140629000Y-77921512D01*
X146006783Y-77921512D01*
X146048213Y-78201130D01*
X146143397Y-78467292D01*
X146210329Y-78592514D01*
X146454298Y-78664097D01*
X147267395Y-77851000D01*
X147626605Y-77851000D01*
X148439702Y-78664097D01*
X148683671Y-78592514D01*
X148804571Y-78337004D01*
X148873300Y-78062816D01*
X148887217Y-77780488D01*
X148876724Y-77709665D01*
X151012000Y-77709665D01*
X151012000Y-77992335D01*
X151067147Y-78269574D01*
X151175320Y-78530727D01*
X151332363Y-78765759D01*
X151532241Y-78965637D01*
X151767273Y-79122680D01*
X152028426Y-79230853D01*
X152305665Y-79286000D01*
X152588335Y-79286000D01*
X152865574Y-79230853D01*
X153126727Y-79122680D01*
X153361759Y-78965637D01*
X153561637Y-78765759D01*
X153718680Y-78530727D01*
X153826853Y-78269574D01*
X153882000Y-77992335D01*
X153882000Y-77709665D01*
X153826853Y-77432426D01*
X153718680Y-77171273D01*
X153561637Y-76936241D01*
X153361759Y-76736363D01*
X153126727Y-76579320D01*
X152865574Y-76471147D01*
X152588335Y-76416000D01*
X152305665Y-76416000D01*
X152028426Y-76471147D01*
X151767273Y-76579320D01*
X151532241Y-76736363D01*
X151332363Y-76936241D01*
X151175320Y-77171273D01*
X151067147Y-77432426D01*
X151012000Y-77709665D01*
X148876724Y-77709665D01*
X148845787Y-77500870D01*
X148750603Y-77234708D01*
X148683671Y-77109486D01*
X148439702Y-77037903D01*
X147626605Y-77851000D01*
X147267395Y-77851000D01*
X146454298Y-77037903D01*
X146210329Y-77109486D01*
X146089429Y-77364996D01*
X146020700Y-77639184D01*
X146006783Y-77921512D01*
X140629000Y-77921512D01*
X140629000Y-77629307D01*
X140664482Y-77625812D01*
X140784180Y-77589502D01*
X140894494Y-77530537D01*
X140991185Y-77451185D01*
X141070537Y-77354494D01*
X141129502Y-77244180D01*
X141158661Y-77148057D01*
X141325241Y-77314637D01*
X141560273Y-77471680D01*
X141821426Y-77579853D01*
X142098665Y-77635000D01*
X142381335Y-77635000D01*
X142658574Y-77579853D01*
X142919727Y-77471680D01*
X143154759Y-77314637D01*
X143354637Y-77114759D01*
X143511680Y-76879727D01*
X143520556Y-76858298D01*
X146633903Y-76858298D01*
X147447000Y-77671395D01*
X148260097Y-76858298D01*
X148188514Y-76614329D01*
X147933004Y-76493429D01*
X147658816Y-76424700D01*
X147376488Y-76410783D01*
X147096870Y-76452213D01*
X146830708Y-76547397D01*
X146705486Y-76614329D01*
X146633903Y-76858298D01*
X143520556Y-76858298D01*
X143619853Y-76618574D01*
X143675000Y-76341335D01*
X143675000Y-76058665D01*
X143619853Y-75781426D01*
X143511680Y-75520273D01*
X143354637Y-75285241D01*
X143154759Y-75085363D01*
X143129000Y-75068151D01*
X143129000Y-72860000D01*
X144611928Y-72860000D01*
X144611928Y-74460000D01*
X144624188Y-74584482D01*
X144660498Y-74704180D01*
X144719463Y-74814494D01*
X144798815Y-74911185D01*
X144895506Y-74990537D01*
X145005820Y-75049502D01*
X145125518Y-75085812D01*
X145250000Y-75098072D01*
X146850000Y-75098072D01*
X146974482Y-75085812D01*
X147094180Y-75049502D01*
X147204494Y-74990537D01*
X147301185Y-74911185D01*
X147380537Y-74814494D01*
X147439502Y-74704180D01*
X147475812Y-74584482D01*
X147488072Y-74460000D01*
X147488072Y-73660000D01*
X148418057Y-73660000D01*
X148445764Y-73941309D01*
X148527818Y-74211808D01*
X148661068Y-74461101D01*
X148840392Y-74679608D01*
X149058899Y-74858932D01*
X149308192Y-74992182D01*
X149578691Y-75074236D01*
X149789508Y-75095000D01*
X149930492Y-75095000D01*
X150141309Y-75074236D01*
X150411808Y-74992182D01*
X150661101Y-74858932D01*
X150879608Y-74679608D01*
X151058932Y-74461101D01*
X151192182Y-74211808D01*
X151274236Y-73941309D01*
X151301943Y-73660000D01*
X151274236Y-73378691D01*
X151192182Y-73108192D01*
X151058932Y-72858899D01*
X150879608Y-72640392D01*
X150661101Y-72461068D01*
X150411808Y-72327818D01*
X150141309Y-72245764D01*
X149930492Y-72225000D01*
X149789508Y-72225000D01*
X149578691Y-72245764D01*
X149308192Y-72327818D01*
X149058899Y-72461068D01*
X148840392Y-72640392D01*
X148661068Y-72858899D01*
X148527818Y-73108192D01*
X148445764Y-73378691D01*
X148418057Y-73660000D01*
X147488072Y-73660000D01*
X147488072Y-72860000D01*
X147475812Y-72735518D01*
X147439502Y-72615820D01*
X147380537Y-72505506D01*
X147301185Y-72408815D01*
X147204494Y-72329463D01*
X147094180Y-72270498D01*
X146974482Y-72234188D01*
X146850000Y-72221928D01*
X145250000Y-72221928D01*
X145125518Y-72234188D01*
X145005820Y-72270498D01*
X144895506Y-72329463D01*
X144798815Y-72408815D01*
X144719463Y-72505506D01*
X144660498Y-72615820D01*
X144624188Y-72735518D01*
X144611928Y-72860000D01*
X143129000Y-72860000D01*
X143129000Y-72168269D01*
X152293336Y-72168269D01*
X152352797Y-72402037D01*
X152591242Y-72512934D01*
X152846740Y-72575183D01*
X153109473Y-72586390D01*
X153369344Y-72546125D01*
X153616366Y-72455935D01*
X153717203Y-72402037D01*
X153776664Y-72168269D01*
X153035000Y-71426605D01*
X152293336Y-72168269D01*
X143129000Y-72168269D01*
X143129000Y-72118975D01*
X143276962Y-71971013D01*
X143423061Y-71752359D01*
X143467877Y-71644164D01*
X143490751Y-71616292D01*
X143573302Y-71461853D01*
X143615885Y-71321473D01*
X151695610Y-71321473D01*
X151735875Y-71581344D01*
X151826065Y-71828366D01*
X151879963Y-71929203D01*
X152113731Y-71988664D01*
X152855395Y-71247000D01*
X153214605Y-71247000D01*
X153956269Y-71988664D01*
X154190037Y-71929203D01*
X154300934Y-71690758D01*
X154363183Y-71435260D01*
X154374390Y-71172527D01*
X154334125Y-70912656D01*
X154243935Y-70665634D01*
X154190037Y-70564797D01*
X153956269Y-70505336D01*
X153214605Y-71247000D01*
X152855395Y-71247000D01*
X152113731Y-70505336D01*
X151879963Y-70564797D01*
X151769066Y-70803242D01*
X151706817Y-71058740D01*
X151695610Y-71321473D01*
X143615885Y-71321473D01*
X143624136Y-71294276D01*
X143641300Y-71120001D01*
X143624136Y-70945726D01*
X143573302Y-70778149D01*
X143490751Y-70623709D01*
X143467878Y-70595838D01*
X143423061Y-70487641D01*
X143314877Y-70325731D01*
X152293336Y-70325731D01*
X153035000Y-71067395D01*
X153776664Y-70325731D01*
X153717203Y-70091963D01*
X153478758Y-69981066D01*
X153223260Y-69918817D01*
X152960527Y-69907610D01*
X152700656Y-69947875D01*
X152453634Y-70038065D01*
X152352797Y-70091963D01*
X152293336Y-70325731D01*
X143314877Y-70325731D01*
X143276962Y-70268987D01*
X143091013Y-70083038D01*
X142872359Y-69936939D01*
X142629405Y-69836304D01*
X142371486Y-69785000D01*
X142108514Y-69785000D01*
X141850595Y-69836304D01*
X141607641Y-69936939D01*
X141388987Y-70083038D01*
X141203038Y-70268987D01*
X141056939Y-70487641D01*
X140956304Y-70730595D01*
X140905000Y-70988514D01*
X140905000Y-71251486D01*
X140956304Y-71509405D01*
X141056939Y-71752359D01*
X141203038Y-71971013D01*
X141351001Y-72118976D01*
X141351000Y-75068151D01*
X141325241Y-75085363D01*
X141158661Y-75251943D01*
X141129502Y-75155820D01*
X141070537Y-75045506D01*
X140991185Y-74948815D01*
X140894494Y-74869463D01*
X140784180Y-74810498D01*
X140664482Y-74774188D01*
X140621278Y-74769933D01*
X140616136Y-74717726D01*
X140616136Y-74717724D01*
X140576830Y-74588149D01*
X140565303Y-74550149D01*
X140482753Y-74395709D01*
X140402845Y-74298341D01*
X140399495Y-74294259D01*
X140399494Y-74294258D01*
X140371659Y-74260341D01*
X140337741Y-74232505D01*
X139167499Y-73062264D01*
X139139659Y-73028341D01*
X139004291Y-72917247D01*
X138849851Y-72834697D01*
X138682274Y-72783864D01*
X138551667Y-72771000D01*
X138551660Y-72771000D01*
X138508000Y-72766700D01*
X138464340Y-72771000D01*
X137416795Y-72771000D01*
X137309608Y-72640392D01*
X137091101Y-72461068D01*
X136963259Y-72392735D01*
X137192839Y-72242601D01*
X137394500Y-72044895D01*
X137553715Y-71811646D01*
X137664367Y-71551818D01*
X137681904Y-71469039D01*
X137559915Y-71247000D01*
X136017000Y-71247000D01*
X136017000Y-71267000D01*
X135763000Y-71267000D01*
X135763000Y-71247000D01*
X134220085Y-71247000D01*
X134098096Y-71469039D01*
X134115633Y-71551818D01*
X134226285Y-71811646D01*
X134385500Y-72044895D01*
X134587161Y-72242601D01*
X134816741Y-72392735D01*
X134688899Y-72461068D01*
X134470392Y-72640392D01*
X134291068Y-72858899D01*
X134157818Y-73108192D01*
X134075764Y-73378691D01*
X134048057Y-73660000D01*
X131235236Y-73660000D01*
X130637499Y-73062264D01*
X130609659Y-73028341D01*
X130474291Y-72917247D01*
X130319851Y-72834697D01*
X130152274Y-72783864D01*
X130021667Y-72771000D01*
X130021660Y-72771000D01*
X129978000Y-72766700D01*
X129934340Y-72771000D01*
X129796795Y-72771000D01*
X129689608Y-72640392D01*
X129471101Y-72461068D01*
X129338142Y-72390000D01*
X129471101Y-72318932D01*
X129689608Y-72139608D01*
X129868932Y-71921101D01*
X130002182Y-71671808D01*
X130084236Y-71401309D01*
X130111943Y-71120000D01*
X130084236Y-70838691D01*
X130002182Y-70568192D01*
X129868932Y-70318899D01*
X129689608Y-70100392D01*
X129576518Y-70007581D01*
X129594482Y-70005812D01*
X129714180Y-69969502D01*
X129824494Y-69910537D01*
X129921185Y-69831185D01*
X130000537Y-69734494D01*
X130059502Y-69624180D01*
X130095812Y-69504482D01*
X130108072Y-69380000D01*
X130108072Y-67780000D01*
X130095812Y-67655518D01*
X130059502Y-67535820D01*
X130000537Y-67425506D01*
X129921185Y-67328815D01*
X129824494Y-67249463D01*
X129714180Y-67190498D01*
X129594482Y-67154188D01*
X129470000Y-67141928D01*
X127689164Y-67141928D01*
X126619000Y-66071765D01*
X126619000Y-65266849D01*
X126644759Y-65249637D01*
X126844637Y-65049759D01*
X127001680Y-64814727D01*
X127109853Y-64553574D01*
X127165000Y-64276335D01*
X127165000Y-63993665D01*
X129295000Y-63993665D01*
X129295000Y-64276335D01*
X129350147Y-64553574D01*
X129458320Y-64814727D01*
X129615363Y-65049759D01*
X129815241Y-65249637D01*
X129836921Y-65264123D01*
X129836700Y-65266370D01*
X129853864Y-65440644D01*
X129904698Y-65608222D01*
X129963673Y-65718555D01*
X129987248Y-65762661D01*
X130098342Y-65898029D01*
X130132259Y-65925864D01*
X133384136Y-69177742D01*
X133411971Y-69211659D01*
X133547339Y-69322753D01*
X133701779Y-69405303D01*
X133767688Y-69425296D01*
X133869354Y-69456136D01*
X133902554Y-69459406D01*
X133999963Y-69469000D01*
X133999969Y-69469000D01*
X134043629Y-69473300D01*
X134087289Y-69469000D01*
X134363205Y-69469000D01*
X134470392Y-69599608D01*
X134688899Y-69778932D01*
X134816741Y-69847265D01*
X134587161Y-69997399D01*
X134385500Y-70195105D01*
X134226285Y-70428354D01*
X134115633Y-70688182D01*
X134098096Y-70770961D01*
X134220085Y-70993000D01*
X135763000Y-70993000D01*
X135763000Y-70973000D01*
X136017000Y-70973000D01*
X136017000Y-70993000D01*
X137559915Y-70993000D01*
X137681904Y-70770961D01*
X137664367Y-70688182D01*
X137553715Y-70428354D01*
X137394500Y-70195105D01*
X137192839Y-69997399D01*
X136963259Y-69847265D01*
X137091101Y-69778932D01*
X137309608Y-69599608D01*
X137488932Y-69381101D01*
X137622182Y-69131808D01*
X137704236Y-68861309D01*
X137731943Y-68580000D01*
X137704236Y-68298691D01*
X137622182Y-68028192D01*
X137488932Y-67778899D01*
X137309608Y-67560392D01*
X137091101Y-67381068D01*
X136841808Y-67247818D01*
X136571309Y-67165764D01*
X136360492Y-67145000D01*
X135419508Y-67145000D01*
X135208691Y-67165764D01*
X134938192Y-67247818D01*
X134688899Y-67381068D01*
X134470392Y-67560392D01*
X134385139Y-67664273D01*
X132760866Y-66040000D01*
X140898541Y-66040000D01*
X140924317Y-66301706D01*
X141000653Y-66553354D01*
X141124618Y-66785275D01*
X141291445Y-66988555D01*
X141494725Y-67155382D01*
X141726646Y-67279347D01*
X141978294Y-67355683D01*
X142174421Y-67375000D01*
X142305579Y-67375000D01*
X142501706Y-67355683D01*
X142753354Y-67279347D01*
X142985275Y-67155382D01*
X143188555Y-66988555D01*
X143237430Y-66929000D01*
X144923205Y-66929000D01*
X145030392Y-67059608D01*
X145248899Y-67238932D01*
X145498192Y-67372182D01*
X145768691Y-67454236D01*
X145979508Y-67475000D01*
X146120492Y-67475000D01*
X146331309Y-67454236D01*
X146601808Y-67372182D01*
X146851101Y-67238932D01*
X147069608Y-67059608D01*
X147176795Y-66929000D01*
X148430693Y-66929000D01*
X148434188Y-66964482D01*
X148470498Y-67084180D01*
X148529463Y-67194494D01*
X148608815Y-67291185D01*
X148705506Y-67370537D01*
X148815820Y-67429502D01*
X148935518Y-67465812D01*
X149060000Y-67478072D01*
X150660000Y-67478072D01*
X150784482Y-67465812D01*
X150904180Y-67429502D01*
X151014494Y-67370537D01*
X151111185Y-67291185D01*
X151190537Y-67194494D01*
X151249502Y-67084180D01*
X151285812Y-66964482D01*
X151298072Y-66840000D01*
X151298072Y-66167000D01*
X151693541Y-66167000D01*
X151719317Y-66428706D01*
X151795653Y-66680354D01*
X151919618Y-66912275D01*
X152086445Y-67115555D01*
X152289725Y-67282382D01*
X152521646Y-67406347D01*
X152773294Y-67482683D01*
X152969421Y-67502000D01*
X153100579Y-67502000D01*
X153296706Y-67482683D01*
X153548354Y-67406347D01*
X153780275Y-67282382D01*
X153983555Y-67115555D01*
X154150382Y-66912275D01*
X154274347Y-66680354D01*
X154350683Y-66428706D01*
X154373307Y-66199000D01*
X155244910Y-66199000D01*
X155279208Y-66240792D01*
X155363539Y-66310000D01*
X155279208Y-66379208D01*
X155115505Y-66578682D01*
X154993862Y-66806259D01*
X154918955Y-67053195D01*
X154893662Y-67310000D01*
X154918955Y-67566805D01*
X154993862Y-67813741D01*
X155115505Y-68041318D01*
X155279208Y-68240792D01*
X155321001Y-68275090D01*
X155321000Y-71656343D01*
X155290820Y-71665498D01*
X155180506Y-71724463D01*
X155083815Y-71803815D01*
X155004463Y-71900506D01*
X154945498Y-72010820D01*
X154909188Y-72130518D01*
X154896928Y-72255000D01*
X154896928Y-73605000D01*
X154909188Y-73729482D01*
X154945498Y-73849180D01*
X155004463Y-73959494D01*
X155083815Y-74056185D01*
X155172631Y-74129074D01*
X155115505Y-74198682D01*
X154993862Y-74426259D01*
X154918955Y-74673195D01*
X154893662Y-74930000D01*
X154918955Y-75186805D01*
X154993862Y-75433741D01*
X155115505Y-75661318D01*
X155279208Y-75860792D01*
X155478682Y-76024495D01*
X155706259Y-76146138D01*
X155953195Y-76221045D01*
X156145649Y-76240000D01*
X156274351Y-76240000D01*
X156466805Y-76221045D01*
X156713741Y-76146138D01*
X156941318Y-76024495D01*
X157140792Y-75860792D01*
X157304495Y-75661318D01*
X157426138Y-75433741D01*
X157501045Y-75186805D01*
X157526338Y-74930000D01*
X157501045Y-74673195D01*
X157426138Y-74426259D01*
X157304495Y-74198682D01*
X157247369Y-74129074D01*
X157336185Y-74056185D01*
X157415537Y-73959494D01*
X157474502Y-73849180D01*
X157510812Y-73729482D01*
X157523072Y-73605000D01*
X157523072Y-72255000D01*
X157510812Y-72130518D01*
X157474502Y-72010820D01*
X157415537Y-71900506D01*
X157336185Y-71803815D01*
X157239494Y-71724463D01*
X157129180Y-71665498D01*
X157099000Y-71656343D01*
X157099000Y-68275090D01*
X157140792Y-68240792D01*
X157304495Y-68041318D01*
X157426138Y-67813741D01*
X157501045Y-67566805D01*
X157526338Y-67310000D01*
X157501045Y-67053195D01*
X157426138Y-66806259D01*
X157304495Y-66578682D01*
X157140792Y-66379208D01*
X157056461Y-66310000D01*
X157140792Y-66240792D01*
X157304495Y-66041318D01*
X157426138Y-65813741D01*
X157501045Y-65566805D01*
X157526338Y-65310000D01*
X157501045Y-65053195D01*
X157426138Y-64806259D01*
X157304495Y-64578682D01*
X157247369Y-64509074D01*
X157336185Y-64436185D01*
X157415537Y-64339494D01*
X157474502Y-64229180D01*
X157510812Y-64109482D01*
X157523072Y-63985000D01*
X157523072Y-62635000D01*
X157510812Y-62510518D01*
X157474502Y-62390820D01*
X157415537Y-62280506D01*
X157336185Y-62183815D01*
X157239494Y-62104463D01*
X157129180Y-62045498D01*
X157009482Y-62009188D01*
X156885000Y-61996928D01*
X155535000Y-61996928D01*
X155410518Y-62009188D01*
X155290820Y-62045498D01*
X155180506Y-62104463D01*
X155083815Y-62183815D01*
X155004463Y-62280506D01*
X154945498Y-62390820D01*
X154909188Y-62510518D01*
X154896928Y-62635000D01*
X154896928Y-63985000D01*
X154909188Y-64109482D01*
X154945498Y-64229180D01*
X155004463Y-64339494D01*
X155071353Y-64421000D01*
X153935659Y-64421000D01*
X153891999Y-64416700D01*
X153848339Y-64421000D01*
X153848333Y-64421000D01*
X153736073Y-64432057D01*
X153717725Y-64433864D01*
X153644758Y-64455998D01*
X153550149Y-64484697D01*
X153395709Y-64567247D01*
X153260341Y-64678341D01*
X153232505Y-64712259D01*
X153111672Y-64833093D01*
X153100579Y-64832000D01*
X152969421Y-64832000D01*
X152773294Y-64851317D01*
X152521646Y-64927653D01*
X152289725Y-65051618D01*
X152086445Y-65218445D01*
X151919618Y-65421725D01*
X151795653Y-65653646D01*
X151719317Y-65905294D01*
X151693541Y-66167000D01*
X151298072Y-66167000D01*
X151298072Y-65859164D01*
X151490241Y-65666995D01*
X151524159Y-65639159D01*
X151635253Y-65503791D01*
X151717803Y-65349351D01*
X151768636Y-65181774D01*
X151769603Y-65171962D01*
X151785801Y-65007500D01*
X151781500Y-64963832D01*
X151781500Y-59855000D01*
X152271928Y-59855000D01*
X152284188Y-59979482D01*
X152320498Y-60099180D01*
X152379463Y-60209494D01*
X152458815Y-60306185D01*
X152555506Y-60385537D01*
X152665820Y-60444502D01*
X152785518Y-60480812D01*
X152910000Y-60493072D01*
X153424250Y-60490000D01*
X153583000Y-60331250D01*
X153583000Y-59182000D01*
X152433750Y-59182000D01*
X152275000Y-59340750D01*
X152271928Y-59855000D01*
X151781500Y-59855000D01*
X151781500Y-58255000D01*
X152271928Y-58255000D01*
X152275000Y-58769250D01*
X152433750Y-58928000D01*
X153583000Y-58928000D01*
X153583000Y-57778750D01*
X153837000Y-57778750D01*
X153837000Y-58928000D01*
X153857000Y-58928000D01*
X153857000Y-59182000D01*
X153837000Y-59182000D01*
X153837000Y-60331250D01*
X153995750Y-60490000D01*
X154510000Y-60493072D01*
X154634482Y-60480812D01*
X154754180Y-60444502D01*
X154864494Y-60385537D01*
X154961185Y-60306185D01*
X155040537Y-60209494D01*
X155099502Y-60099180D01*
X155128661Y-60003057D01*
X155295241Y-60169637D01*
X155530273Y-60326680D01*
X155791426Y-60434853D01*
X156068665Y-60490000D01*
X156351335Y-60490000D01*
X156628574Y-60434853D01*
X156889727Y-60326680D01*
X157124759Y-60169637D01*
X157324637Y-59969759D01*
X157481680Y-59734727D01*
X157589853Y-59473574D01*
X157645000Y-59196335D01*
X157645000Y-58913665D01*
X157589853Y-58636426D01*
X157481680Y-58375273D01*
X157324637Y-58140241D01*
X157124759Y-57940363D01*
X156889727Y-57783320D01*
X156628574Y-57675147D01*
X156351335Y-57620000D01*
X156068665Y-57620000D01*
X155791426Y-57675147D01*
X155530273Y-57783320D01*
X155295241Y-57940363D01*
X155128661Y-58106943D01*
X155099502Y-58010820D01*
X155040537Y-57900506D01*
X154961185Y-57803815D01*
X154864494Y-57724463D01*
X154754180Y-57665498D01*
X154634482Y-57629188D01*
X154510000Y-57616928D01*
X153995750Y-57620000D01*
X153837000Y-57778750D01*
X153583000Y-57778750D01*
X153424250Y-57620000D01*
X152910000Y-57616928D01*
X152785518Y-57629188D01*
X152665820Y-57665498D01*
X152555506Y-57724463D01*
X152458815Y-57803815D01*
X152379463Y-57900506D01*
X152320498Y-58010820D01*
X152284188Y-58130518D01*
X152271928Y-58255000D01*
X151781500Y-58255000D01*
X151781500Y-53228550D01*
X151855069Y-53179393D01*
X152065393Y-52969069D01*
X152142500Y-52853670D01*
X152219607Y-52969069D01*
X152429931Y-53179393D01*
X152677247Y-53344644D01*
X152952049Y-53458471D01*
X153243778Y-53516500D01*
X153541222Y-53516500D01*
X153832951Y-53458471D01*
X154107753Y-53344644D01*
X154355069Y-53179393D01*
X154423526Y-53110936D01*
X154427998Y-53125680D01*
X154486963Y-53235994D01*
X154566315Y-53332685D01*
X154663006Y-53412037D01*
X154773320Y-53471002D01*
X154893018Y-53507312D01*
X155017500Y-53519572D01*
X156767500Y-53519572D01*
X156891982Y-53507312D01*
X157011680Y-53471002D01*
X157121994Y-53412037D01*
X157218685Y-53332685D01*
X157298037Y-53235994D01*
X157357002Y-53125680D01*
X157393312Y-53005982D01*
X157405572Y-52881500D01*
X157405572Y-51131500D01*
X157393312Y-51007018D01*
X157357002Y-50887320D01*
X157298037Y-50777006D01*
X157218685Y-50680315D01*
X157121994Y-50600963D01*
X157011680Y-50541998D01*
X156891982Y-50505688D01*
X156767500Y-50493428D01*
X155017500Y-50493428D01*
X154893018Y-50505688D01*
X154773320Y-50541998D01*
X154663006Y-50600963D01*
X154566315Y-50680315D01*
X154486963Y-50777006D01*
X154427998Y-50887320D01*
X154423526Y-50902064D01*
X154355069Y-50833607D01*
X154107753Y-50668356D01*
X153832951Y-50554529D01*
X153541222Y-50496500D01*
X153243778Y-50496500D01*
X153156997Y-50513762D01*
X152210499Y-49567264D01*
X152182659Y-49533341D01*
X152047291Y-49422247D01*
X151892851Y-49339697D01*
X151725274Y-49288864D01*
X151594667Y-49276000D01*
X151594660Y-49276000D01*
X151551000Y-49271700D01*
X151507340Y-49276000D01*
X148760660Y-49276000D01*
X148717000Y-49271700D01*
X148673340Y-49276000D01*
X148673333Y-49276000D01*
X148559325Y-49287229D01*
X148542725Y-49288864D01*
X148469758Y-49310998D01*
X148375149Y-49339697D01*
X148220709Y-49422247D01*
X148085341Y-49533341D01*
X148057506Y-49567258D01*
X146087259Y-51537506D01*
X146053342Y-51565341D01*
X146025507Y-51599258D01*
X146025505Y-51599260D01*
X145942248Y-51700709D01*
X145859698Y-51855148D01*
X145808864Y-52022726D01*
X145791700Y-52197000D01*
X145796001Y-52240670D01*
X145796000Y-53611025D01*
X145648038Y-53758987D01*
X145501939Y-53977641D01*
X145401304Y-54220595D01*
X145350000Y-54478514D01*
X145350000Y-54741486D01*
X145401304Y-54999405D01*
X145501939Y-55242359D01*
X145648038Y-55461013D01*
X145833987Y-55646962D01*
X146052641Y-55793061D01*
X146295595Y-55893696D01*
X146553514Y-55945000D01*
X146816486Y-55945000D01*
X147074405Y-55893696D01*
X147317359Y-55793061D01*
X147536013Y-55646962D01*
X147721962Y-55461013D01*
X147868061Y-55242359D01*
X147968696Y-54999405D01*
X148020000Y-54741486D01*
X148020000Y-54478514D01*
X147968696Y-54220595D01*
X147868061Y-53977641D01*
X147721962Y-53758987D01*
X147574000Y-53611025D01*
X147574000Y-52565235D01*
X149085236Y-51054000D01*
X149712879Y-51054000D01*
X149554356Y-51291247D01*
X149440529Y-51566049D01*
X149382500Y-51857778D01*
X149382500Y-52155222D01*
X149440529Y-52446951D01*
X149554356Y-52721753D01*
X149719607Y-52969069D01*
X149929931Y-53179393D01*
X150003500Y-53228550D01*
X150003501Y-64601928D01*
X149060000Y-64601928D01*
X148935518Y-64614188D01*
X148815820Y-64650498D01*
X148705506Y-64709463D01*
X148608815Y-64788815D01*
X148529463Y-64885506D01*
X148470498Y-64995820D01*
X148434188Y-65115518D01*
X148430693Y-65151000D01*
X147176795Y-65151000D01*
X147069608Y-65020392D01*
X146851101Y-64841068D01*
X146601808Y-64707818D01*
X146331309Y-64625764D01*
X146120492Y-64605000D01*
X145979508Y-64605000D01*
X145768691Y-64625764D01*
X145498192Y-64707818D01*
X145248899Y-64841068D01*
X145030392Y-65020392D01*
X144923205Y-65151000D01*
X143237430Y-65151000D01*
X143188555Y-65091445D01*
X142985275Y-64924618D01*
X142753354Y-64800653D01*
X142501706Y-64724317D01*
X142305579Y-64705000D01*
X142174421Y-64705000D01*
X141978294Y-64724317D01*
X141726646Y-64800653D01*
X141494725Y-64924618D01*
X141291445Y-65091445D01*
X141124618Y-65294725D01*
X141000653Y-65526646D01*
X140924317Y-65778294D01*
X140898541Y-66040000D01*
X132760866Y-66040000D01*
X131807631Y-65086765D01*
X131844637Y-65049759D01*
X132001680Y-64814727D01*
X132109853Y-64553574D01*
X132165000Y-64276335D01*
X132165000Y-63993665D01*
X132109853Y-63716426D01*
X132001680Y-63455273D01*
X131844637Y-63220241D01*
X131644759Y-63020363D01*
X131409727Y-62863320D01*
X131300322Y-62818003D01*
X131226291Y-62757247D01*
X131071851Y-62674697D01*
X130904274Y-62623864D01*
X130730000Y-62606699D01*
X130555727Y-62623864D01*
X130388150Y-62674697D01*
X130233710Y-62757247D01*
X130159680Y-62818002D01*
X130050273Y-62863320D01*
X129815241Y-63020363D01*
X129615363Y-63220241D01*
X129458320Y-63455273D01*
X129350147Y-63716426D01*
X129295000Y-63993665D01*
X127165000Y-63993665D01*
X127109853Y-63716426D01*
X127001680Y-63455273D01*
X126844637Y-63220241D01*
X126644759Y-63020363D01*
X126409727Y-62863320D01*
X126148574Y-62755147D01*
X125871335Y-62700000D01*
X125588665Y-62700000D01*
X125311426Y-62755147D01*
X125050273Y-62863320D01*
X124815241Y-63020363D01*
X124615363Y-63220241D01*
X124458320Y-63455273D01*
X124350147Y-63716426D01*
X124295000Y-63993665D01*
X124295000Y-64276335D01*
X124350147Y-64553574D01*
X124458320Y-64814727D01*
X124615363Y-65049759D01*
X124815241Y-65249637D01*
X124841000Y-65266849D01*
X124841001Y-66396330D01*
X124836700Y-66440000D01*
X124853864Y-66614274D01*
X124904698Y-66781852D01*
X124987248Y-66936291D01*
X125052816Y-67016185D01*
X125098342Y-67071659D01*
X125132259Y-67099494D01*
X126431928Y-68399164D01*
X126431928Y-69380000D01*
X126444188Y-69504482D01*
X126480498Y-69624180D01*
X126539463Y-69734494D01*
X126618815Y-69831185D01*
X126715506Y-69910537D01*
X126825820Y-69969502D01*
X126945518Y-70005812D01*
X126963482Y-70007581D01*
X126850392Y-70100392D01*
X126743205Y-70231000D01*
X124241849Y-70231000D01*
X124224637Y-70205241D01*
X124024759Y-70005363D01*
X123789727Y-69848320D01*
X123528574Y-69740147D01*
X123251335Y-69685000D01*
X122968665Y-69685000D01*
X122691426Y-69740147D01*
X122430273Y-69848320D01*
X122195241Y-70005363D01*
X122128920Y-70071684D01*
X118175000Y-66117765D01*
X118175000Y-65908514D01*
X118123696Y-65650595D01*
X118023061Y-65407641D01*
X117876962Y-65188987D01*
X117729000Y-65041025D01*
X117729000Y-64769105D01*
X119569180Y-62928926D01*
X119569184Y-62928921D01*
X121017241Y-61480864D01*
X121051159Y-61453029D01*
X121162253Y-61317661D01*
X121244803Y-61163221D01*
X121295636Y-60995644D01*
X121308500Y-60865037D01*
X121308500Y-60865030D01*
X121312800Y-60821370D01*
X121312579Y-60819123D01*
X121334259Y-60804637D01*
X121534137Y-60604759D01*
X121691180Y-60369727D01*
X121799353Y-60108574D01*
X121854500Y-59831335D01*
X121854500Y-59548665D01*
X121799353Y-59271426D01*
X121691180Y-59010273D01*
X121534137Y-58775241D01*
X121334259Y-58575363D01*
X121099227Y-58418320D01*
X120838074Y-58310147D01*
X120560835Y-58255000D01*
X120278165Y-58255000D01*
X120000926Y-58310147D01*
X119739773Y-58418320D01*
X119504741Y-58575363D01*
X119338161Y-58741943D01*
X119309002Y-58645820D01*
X119250037Y-58535506D01*
X119170685Y-58438815D01*
X119073994Y-58359463D01*
X118963680Y-58300498D01*
X118843982Y-58264188D01*
X118719500Y-58251928D01*
X117119500Y-58251928D01*
X116995018Y-58264188D01*
X116875320Y-58300498D01*
X116765006Y-58359463D01*
X116668315Y-58438815D01*
X116588963Y-58535506D01*
X116529998Y-58645820D01*
X116493688Y-58765518D01*
X116490193Y-58801000D01*
X115297430Y-58801000D01*
X115248555Y-58741445D01*
X115045275Y-58574618D01*
X114813354Y-58450653D01*
X114561706Y-58374317D01*
X114365579Y-58355000D01*
X114234421Y-58355000D01*
X114038294Y-58374317D01*
X113786646Y-58450653D01*
X113554725Y-58574618D01*
X113351445Y-58741445D01*
X113184618Y-58944725D01*
X113060653Y-59176646D01*
X112984317Y-59428294D01*
X112958541Y-59690000D01*
X112966093Y-59766672D01*
X111162259Y-61570506D01*
X111128342Y-61598341D01*
X111100507Y-61632258D01*
X111100505Y-61632260D01*
X111017248Y-61733709D01*
X110934698Y-61888148D01*
X110883864Y-62055726D01*
X110866700Y-62230000D01*
X110871001Y-62273669D01*
X110871001Y-62435875D01*
X110772169Y-62488702D01*
X110635699Y-62600699D01*
X110523702Y-62737169D01*
X110440480Y-62892866D01*
X110389232Y-63061807D01*
X110371928Y-63237500D01*
X110371928Y-63762500D01*
X110383599Y-63881000D01*
X107677430Y-63881000D01*
X107628555Y-63821445D01*
X107425275Y-63654618D01*
X107193354Y-63530653D01*
X106941706Y-63454317D01*
X106745579Y-63435000D01*
X106614421Y-63435000D01*
X106418294Y-63454317D01*
X106166646Y-63530653D01*
X105934725Y-63654618D01*
X105731445Y-63821445D01*
X105564618Y-64024725D01*
X105440653Y-64256646D01*
X105364317Y-64508294D01*
X105338541Y-64770000D01*
X102260000Y-64770000D01*
X102260000Y-59558514D01*
X105345000Y-59558514D01*
X105345000Y-59821486D01*
X105396304Y-60079405D01*
X105496939Y-60322359D01*
X105643038Y-60541013D01*
X105828987Y-60726962D01*
X106047641Y-60873061D01*
X106290595Y-60973696D01*
X106548514Y-61025000D01*
X106811486Y-61025000D01*
X107069405Y-60973696D01*
X107312359Y-60873061D01*
X107531013Y-60726962D01*
X107716962Y-60541013D01*
X107863061Y-60322359D01*
X107950000Y-60112470D01*
X108036939Y-60322359D01*
X108183038Y-60541013D01*
X108368987Y-60726962D01*
X108587641Y-60873061D01*
X108830595Y-60973696D01*
X109088514Y-61025000D01*
X109351486Y-61025000D01*
X109609405Y-60973696D01*
X109852359Y-60873061D01*
X110071013Y-60726962D01*
X110256962Y-60541013D01*
X110403061Y-60322359D01*
X110503696Y-60079405D01*
X110555000Y-59821486D01*
X110555000Y-59558514D01*
X110503696Y-59300595D01*
X110403061Y-59057641D01*
X110256962Y-58838987D01*
X110071013Y-58653038D01*
X109852359Y-58506939D01*
X109609405Y-58406304D01*
X109351486Y-58355000D01*
X109088514Y-58355000D01*
X108830595Y-58406304D01*
X108587641Y-58506939D01*
X108368987Y-58653038D01*
X108183038Y-58838987D01*
X108036939Y-59057641D01*
X107950000Y-59267530D01*
X107863061Y-59057641D01*
X107716962Y-58838987D01*
X107531013Y-58653038D01*
X107312359Y-58506939D01*
X107069405Y-58406304D01*
X106811486Y-58355000D01*
X106548514Y-58355000D01*
X106290595Y-58406304D01*
X106047641Y-58506939D01*
X105828987Y-58653038D01*
X105643038Y-58838987D01*
X105496939Y-59057641D01*
X105396304Y-59300595D01*
X105345000Y-59558514D01*
X102260000Y-59558514D01*
X102260000Y-56701014D01*
X107948500Y-56701014D01*
X107948500Y-56963986D01*
X107999804Y-57221905D01*
X108100439Y-57464859D01*
X108246538Y-57683513D01*
X108432487Y-57869462D01*
X108651141Y-58015561D01*
X108894095Y-58116196D01*
X109152014Y-58167500D01*
X109414986Y-58167500D01*
X109672905Y-58116196D01*
X109915859Y-58015561D01*
X110134513Y-57869462D01*
X110320462Y-57683513D01*
X110466561Y-57464859D01*
X110567196Y-57221905D01*
X110618500Y-56963986D01*
X110618500Y-56701014D01*
X110567196Y-56443095D01*
X110466561Y-56200141D01*
X110320462Y-55981487D01*
X110134513Y-55795538D01*
X109915859Y-55649439D01*
X109672905Y-55548804D01*
X109414986Y-55497500D01*
X109152014Y-55497500D01*
X108894095Y-55548804D01*
X108651141Y-55649439D01*
X108432487Y-55795538D01*
X108246538Y-55981487D01*
X108100439Y-56200141D01*
X107999804Y-56443095D01*
X107948500Y-56701014D01*
X102260000Y-56701014D01*
X102260000Y-51921278D01*
X102900500Y-51921278D01*
X102900500Y-52218722D01*
X102958529Y-52510451D01*
X103072356Y-52785253D01*
X103237607Y-53032569D01*
X103447931Y-53242893D01*
X103695247Y-53408144D01*
X103970049Y-53521971D01*
X104261778Y-53580000D01*
X104559222Y-53580000D01*
X104850951Y-53521971D01*
X105125753Y-53408144D01*
X105373069Y-53242893D01*
X105583393Y-53032569D01*
X105660500Y-52917170D01*
X105737607Y-53032569D01*
X105947931Y-53242893D01*
X106195247Y-53408144D01*
X106470049Y-53521971D01*
X106761778Y-53580000D01*
X107059222Y-53580000D01*
X107350951Y-53521971D01*
X107625753Y-53408144D01*
X107873069Y-53242893D01*
X107941526Y-53174436D01*
X107945998Y-53189180D01*
X108004963Y-53299494D01*
X108084315Y-53396185D01*
X108181006Y-53475537D01*
X108291320Y-53534502D01*
X108411018Y-53570812D01*
X108535500Y-53583072D01*
X110285500Y-53583072D01*
X110409982Y-53570812D01*
X110529680Y-53534502D01*
X110639994Y-53475537D01*
X110736685Y-53396185D01*
X110816037Y-53299494D01*
X110875002Y-53189180D01*
X110911312Y-53069482D01*
X110923572Y-52945000D01*
X110923572Y-51195000D01*
X110915939Y-51117500D01*
X114035265Y-51117500D01*
X114181044Y-51263279D01*
X114175000Y-51293665D01*
X114175000Y-51576335D01*
X114181044Y-51606721D01*
X113765759Y-52022006D01*
X113731842Y-52049841D01*
X113704007Y-52083758D01*
X113704005Y-52083760D01*
X113620748Y-52185209D01*
X113538198Y-52339648D01*
X113487364Y-52507226D01*
X113470200Y-52681500D01*
X113474501Y-52725170D01*
X113474500Y-55835069D01*
X113414945Y-55883945D01*
X113248118Y-56087225D01*
X113124153Y-56319146D01*
X113047817Y-56570794D01*
X113022041Y-56832500D01*
X113047817Y-57094206D01*
X113124153Y-57345854D01*
X113248118Y-57577775D01*
X113414945Y-57781055D01*
X113618225Y-57947882D01*
X113850146Y-58071847D01*
X114101794Y-58148183D01*
X114297921Y-58167500D01*
X114429079Y-58167500D01*
X114625206Y-58148183D01*
X114876854Y-58071847D01*
X115108775Y-57947882D01*
X115312055Y-57781055D01*
X115478882Y-57577775D01*
X115602847Y-57345854D01*
X115679183Y-57094206D01*
X115704959Y-56832500D01*
X115679183Y-56570794D01*
X115622373Y-56383514D01*
X120902500Y-56383514D01*
X120902500Y-56646486D01*
X120953804Y-56904405D01*
X121054439Y-57147359D01*
X121200538Y-57366013D01*
X121386487Y-57551962D01*
X121605141Y-57698061D01*
X121848095Y-57798696D01*
X122106014Y-57850000D01*
X122368986Y-57850000D01*
X122626905Y-57798696D01*
X122869859Y-57698061D01*
X123088513Y-57551962D01*
X123274462Y-57366013D01*
X123420561Y-57147359D01*
X123521196Y-56904405D01*
X123572500Y-56646486D01*
X123572500Y-56383514D01*
X123521196Y-56125595D01*
X123420561Y-55882641D01*
X123274462Y-55663987D01*
X123088513Y-55478038D01*
X122869859Y-55331939D01*
X122626905Y-55231304D01*
X122368986Y-55180000D01*
X122106014Y-55180000D01*
X121848095Y-55231304D01*
X121605141Y-55331939D01*
X121386487Y-55478038D01*
X121200538Y-55663987D01*
X121054439Y-55882641D01*
X120953804Y-56125595D01*
X120902500Y-56383514D01*
X115622373Y-56383514D01*
X115602847Y-56319146D01*
X115478882Y-56087225D01*
X115312055Y-55883945D01*
X115252500Y-55835070D01*
X115252500Y-53049735D01*
X115438279Y-52863956D01*
X115468665Y-52870000D01*
X115751335Y-52870000D01*
X116028574Y-52814853D01*
X116289727Y-52706680D01*
X116524759Y-52549637D01*
X116691339Y-52383057D01*
X116720498Y-52479180D01*
X116779463Y-52589494D01*
X116858815Y-52686185D01*
X116955506Y-52765537D01*
X117065820Y-52824502D01*
X117185518Y-52860812D01*
X117310000Y-52873072D01*
X118910000Y-52873072D01*
X119034482Y-52860812D01*
X119154180Y-52824502D01*
X119264494Y-52765537D01*
X119361185Y-52686185D01*
X119440537Y-52589494D01*
X119499502Y-52479180D01*
X119535812Y-52359482D01*
X119539307Y-52324000D01*
X121240070Y-52324000D01*
X121288945Y-52383555D01*
X121492225Y-52550382D01*
X121724146Y-52674347D01*
X121975794Y-52750683D01*
X122171921Y-52770000D01*
X122303079Y-52770000D01*
X122314172Y-52768907D01*
X124435501Y-54890236D01*
X124463341Y-54924159D01*
X124598709Y-55035253D01*
X124753149Y-55117803D01*
X124771449Y-55123354D01*
X124920724Y-55168636D01*
X124953924Y-55171906D01*
X125051333Y-55181500D01*
X125051339Y-55181500D01*
X125094999Y-55185800D01*
X125138659Y-55181500D01*
X126566088Y-55181500D01*
X126320273Y-55283320D01*
X126085241Y-55440363D01*
X125885363Y-55640241D01*
X125728320Y-55875273D01*
X125620147Y-56136426D01*
X125565000Y-56413665D01*
X125565000Y-56696335D01*
X125620147Y-56973574D01*
X125728320Y-57234727D01*
X125885363Y-57469759D01*
X126051943Y-57636339D01*
X125955820Y-57665498D01*
X125845506Y-57724463D01*
X125748815Y-57803815D01*
X125669463Y-57900506D01*
X125610498Y-58010820D01*
X125574188Y-58130518D01*
X125569933Y-58173722D01*
X125517725Y-58178864D01*
X125466892Y-58194284D01*
X125350149Y-58229697D01*
X125195709Y-58312247D01*
X125060341Y-58423341D01*
X125032506Y-58457258D01*
X121322264Y-62167501D01*
X121288341Y-62195341D01*
X121177247Y-62330710D01*
X121094697Y-62485150D01*
X121088536Y-62505460D01*
X121056067Y-62612500D01*
X121043864Y-62652727D01*
X121031000Y-62783334D01*
X121031000Y-62783340D01*
X121026700Y-62827000D01*
X121031000Y-62870660D01*
X121031001Y-65006375D01*
X121031000Y-65006385D01*
X121031000Y-65042570D01*
X120971445Y-65091445D01*
X120804618Y-65294725D01*
X120680653Y-65526646D01*
X120604317Y-65778294D01*
X120578541Y-66040000D01*
X120604317Y-66301706D01*
X120680653Y-66553354D01*
X120804618Y-66785275D01*
X120971445Y-66988555D01*
X121174725Y-67155382D01*
X121406646Y-67279347D01*
X121658294Y-67355683D01*
X121854421Y-67375000D01*
X121985579Y-67375000D01*
X122181706Y-67355683D01*
X122433354Y-67279347D01*
X122665275Y-67155382D01*
X122868555Y-66988555D01*
X123035382Y-66785275D01*
X123159347Y-66553354D01*
X123235683Y-66301706D01*
X123261459Y-66040000D01*
X123235683Y-65778294D01*
X123159347Y-65526646D01*
X123035382Y-65294725D01*
X122868555Y-65091445D01*
X122809000Y-65042570D01*
X122809000Y-63195235D01*
X125725933Y-60278303D01*
X125748815Y-60306185D01*
X125845506Y-60385537D01*
X125955820Y-60444502D01*
X126075518Y-60480812D01*
X126200000Y-60493072D01*
X127800000Y-60493072D01*
X127924482Y-60480812D01*
X128044180Y-60444502D01*
X128154494Y-60385537D01*
X128251185Y-60306185D01*
X128330537Y-60209494D01*
X128389502Y-60099180D01*
X128425812Y-59979482D01*
X128429307Y-59944000D01*
X131394265Y-59944000D01*
X132650000Y-61199736D01*
X132650000Y-61408986D01*
X132701304Y-61666905D01*
X132801939Y-61909859D01*
X132948038Y-62128513D01*
X133096001Y-62276476D01*
X133096000Y-63137569D01*
X133036445Y-63186445D01*
X132869618Y-63389725D01*
X132745653Y-63621646D01*
X132669317Y-63873294D01*
X132643541Y-64135000D01*
X132669317Y-64396706D01*
X132745653Y-64648354D01*
X132869618Y-64880275D01*
X133036445Y-65083555D01*
X133239725Y-65250382D01*
X133471646Y-65374347D01*
X133723294Y-65450683D01*
X133919421Y-65470000D01*
X134050579Y-65470000D01*
X134246706Y-65450683D01*
X134498354Y-65374347D01*
X134730275Y-65250382D01*
X134933555Y-65083555D01*
X135100382Y-64880275D01*
X135224347Y-64648354D01*
X135300683Y-64396706D01*
X135326459Y-64135000D01*
X135313509Y-64003514D01*
X137730000Y-64003514D01*
X137730000Y-64266486D01*
X137781304Y-64524405D01*
X137881939Y-64767359D01*
X138028038Y-64986013D01*
X138213987Y-65171962D01*
X138432641Y-65318061D01*
X138675595Y-65418696D01*
X138933514Y-65470000D01*
X139196486Y-65470000D01*
X139454405Y-65418696D01*
X139697359Y-65318061D01*
X139916013Y-65171962D01*
X140101962Y-64986013D01*
X140248061Y-64767359D01*
X140348696Y-64524405D01*
X140400000Y-64266486D01*
X140400000Y-64003514D01*
X140348696Y-63745595D01*
X140248061Y-63502641D01*
X140101962Y-63283987D01*
X139916013Y-63098038D01*
X139697359Y-62951939D01*
X139454405Y-62851304D01*
X139196486Y-62800000D01*
X138933514Y-62800000D01*
X138675595Y-62851304D01*
X138432641Y-62951939D01*
X138213987Y-63098038D01*
X138028038Y-63283987D01*
X137881939Y-63502641D01*
X137781304Y-63745595D01*
X137730000Y-64003514D01*
X135313509Y-64003514D01*
X135300683Y-63873294D01*
X135224347Y-63621646D01*
X135100382Y-63389725D01*
X134933555Y-63186445D01*
X134874000Y-63137570D01*
X134874000Y-62276475D01*
X135021962Y-62128513D01*
X135168061Y-61909859D01*
X135268696Y-61666905D01*
X135320000Y-61408986D01*
X135320000Y-61146014D01*
X135268696Y-60888095D01*
X135168061Y-60645141D01*
X135021962Y-60426487D01*
X134836013Y-60240538D01*
X134617359Y-60094439D01*
X134374405Y-59993804D01*
X134116486Y-59942500D01*
X133907236Y-59942500D01*
X133544736Y-59580000D01*
X137105428Y-59580000D01*
X137117688Y-59704482D01*
X137153998Y-59824180D01*
X137212963Y-59934494D01*
X137292315Y-60031185D01*
X137389006Y-60110537D01*
X137499320Y-60169502D01*
X137619018Y-60205812D01*
X137743500Y-60218072D01*
X138207750Y-60215000D01*
X138366500Y-60056250D01*
X138366500Y-59182000D01*
X138620500Y-59182000D01*
X138620500Y-60056250D01*
X138779250Y-60215000D01*
X139243500Y-60218072D01*
X139367982Y-60205812D01*
X139487680Y-60169502D01*
X139597994Y-60110537D01*
X139694685Y-60031185D01*
X139774037Y-59934494D01*
X139833002Y-59824180D01*
X139869312Y-59704482D01*
X139881572Y-59580000D01*
X139878500Y-59340750D01*
X139719750Y-59182000D01*
X138620500Y-59182000D01*
X138366500Y-59182000D01*
X137267250Y-59182000D01*
X137108500Y-59340750D01*
X137105428Y-59580000D01*
X133544736Y-59580000D01*
X132421999Y-58457264D01*
X132394159Y-58423341D01*
X132258791Y-58312247D01*
X132104351Y-58229697D01*
X131936774Y-58178864D01*
X131806167Y-58166000D01*
X131806160Y-58166000D01*
X131762500Y-58161700D01*
X131718840Y-58166000D01*
X128429307Y-58166000D01*
X128425812Y-58130518D01*
X128389502Y-58010820D01*
X128330537Y-57900506D01*
X128251185Y-57803815D01*
X128154494Y-57724463D01*
X128044180Y-57665498D01*
X127948057Y-57636339D01*
X128114637Y-57469759D01*
X128271680Y-57234727D01*
X128379853Y-56973574D01*
X128435000Y-56696335D01*
X128435000Y-56530830D01*
X132692278Y-56530830D01*
X132782147Y-56776623D01*
X132918241Y-57000160D01*
X133095330Y-57192851D01*
X133306608Y-57347292D01*
X133543956Y-57457547D01*
X133651671Y-57490216D01*
X133858000Y-57366874D01*
X133858000Y-56324500D01*
X134112000Y-56324500D01*
X134112000Y-57366874D01*
X134318329Y-57490216D01*
X134426044Y-57457547D01*
X134663392Y-57347292D01*
X134874670Y-57192851D01*
X135051759Y-57000160D01*
X135187853Y-56776623D01*
X135277722Y-56530830D01*
X135155201Y-56324500D01*
X134112000Y-56324500D01*
X133858000Y-56324500D01*
X132814799Y-56324500D01*
X132692278Y-56530830D01*
X128435000Y-56530830D01*
X128435000Y-56413665D01*
X128379853Y-56136426D01*
X128271680Y-55875273D01*
X128114637Y-55640241D01*
X127914759Y-55440363D01*
X127679727Y-55283320D01*
X127433912Y-55181500D01*
X133123578Y-55181500D01*
X133095330Y-55202149D01*
X132918241Y-55394840D01*
X132782147Y-55618377D01*
X132692278Y-55864170D01*
X132814799Y-56070500D01*
X133858000Y-56070500D01*
X133858000Y-56050500D01*
X134112000Y-56050500D01*
X134112000Y-56070500D01*
X135155201Y-56070500D01*
X135277722Y-55864170D01*
X135187853Y-55618377D01*
X135051759Y-55394840D01*
X134874670Y-55202149D01*
X134846422Y-55181500D01*
X135052765Y-55181500D01*
X136984006Y-57112742D01*
X137011841Y-57146659D01*
X137147209Y-57257753D01*
X137149392Y-57258920D01*
X137122732Y-57346807D01*
X137105428Y-57522500D01*
X137105428Y-58047500D01*
X137122732Y-58223193D01*
X137147864Y-58306041D01*
X137117688Y-58405518D01*
X137105428Y-58530000D01*
X137108500Y-58769250D01*
X137267250Y-58928000D01*
X137821182Y-58928000D01*
X137830307Y-58930768D01*
X138006000Y-58948072D01*
X138981000Y-58948072D01*
X139156693Y-58930768D01*
X139165818Y-58928000D01*
X139719750Y-58928000D01*
X139878500Y-58769250D01*
X139879723Y-58674000D01*
X141081411Y-58674000D01*
X141114147Y-58838574D01*
X141222320Y-59099727D01*
X141379363Y-59334759D01*
X141579241Y-59534637D01*
X141605001Y-59551849D01*
X141605000Y-61804069D01*
X141545445Y-61852945D01*
X141378618Y-62056225D01*
X141254653Y-62288146D01*
X141178317Y-62539794D01*
X141152541Y-62801500D01*
X141178317Y-63063206D01*
X141254653Y-63314854D01*
X141378618Y-63546775D01*
X141545445Y-63750055D01*
X141748725Y-63916882D01*
X141980646Y-64040847D01*
X142232294Y-64117183D01*
X142428421Y-64136500D01*
X142559579Y-64136500D01*
X142755706Y-64117183D01*
X143007354Y-64040847D01*
X143239275Y-63916882D01*
X143442555Y-63750055D01*
X143609382Y-63546775D01*
X143733347Y-63314854D01*
X143809683Y-63063206D01*
X143835459Y-62801500D01*
X143822509Y-62670014D01*
X146239000Y-62670014D01*
X146239000Y-62932986D01*
X146290304Y-63190905D01*
X146390939Y-63433859D01*
X146537038Y-63652513D01*
X146722987Y-63838462D01*
X146941641Y-63984561D01*
X147184595Y-64085196D01*
X147442514Y-64136500D01*
X147705486Y-64136500D01*
X147963405Y-64085196D01*
X148206359Y-63984561D01*
X148425013Y-63838462D01*
X148610962Y-63652513D01*
X148757061Y-63433859D01*
X148857696Y-63190905D01*
X148909000Y-62932986D01*
X148909000Y-62670014D01*
X148857696Y-62412095D01*
X148757061Y-62169141D01*
X148610962Y-61950487D01*
X148425013Y-61764538D01*
X148206359Y-61618439D01*
X147963405Y-61517804D01*
X147705486Y-61466500D01*
X147442514Y-61466500D01*
X147184595Y-61517804D01*
X146941641Y-61618439D01*
X146722987Y-61764538D01*
X146537038Y-61950487D01*
X146390939Y-62169141D01*
X146290304Y-62412095D01*
X146239000Y-62670014D01*
X143822509Y-62670014D01*
X143809683Y-62539794D01*
X143733347Y-62288146D01*
X143609382Y-62056225D01*
X143442555Y-61852945D01*
X143383000Y-61804070D01*
X143383000Y-59551849D01*
X143408759Y-59534637D01*
X143608637Y-59334759D01*
X143765680Y-59099727D01*
X143873853Y-58838574D01*
X143929000Y-58561335D01*
X143929000Y-58278665D01*
X146059000Y-58278665D01*
X146059000Y-58561335D01*
X146114147Y-58838574D01*
X146222320Y-59099727D01*
X146379363Y-59334759D01*
X146579241Y-59534637D01*
X146814273Y-59691680D01*
X147075426Y-59799853D01*
X147352665Y-59855000D01*
X147635335Y-59855000D01*
X147912574Y-59799853D01*
X148173727Y-59691680D01*
X148408759Y-59534637D01*
X148608637Y-59334759D01*
X148765680Y-59099727D01*
X148873853Y-58838574D01*
X148929000Y-58561335D01*
X148929000Y-58278665D01*
X148873853Y-58001426D01*
X148765680Y-57740273D01*
X148608637Y-57505241D01*
X148408759Y-57305363D01*
X148173727Y-57148320D01*
X147912574Y-57040147D01*
X147635335Y-56985000D01*
X147352665Y-56985000D01*
X147075426Y-57040147D01*
X146814273Y-57148320D01*
X146579241Y-57305363D01*
X146379363Y-57505241D01*
X146222320Y-57740273D01*
X146114147Y-58001426D01*
X146059000Y-58278665D01*
X143929000Y-58278665D01*
X143873853Y-58001426D01*
X143765680Y-57740273D01*
X143608637Y-57505241D01*
X143408759Y-57305363D01*
X143173727Y-57148320D01*
X142912574Y-57040147D01*
X142635335Y-56985000D01*
X142352665Y-56985000D01*
X142276525Y-57000145D01*
X142200851Y-56959697D01*
X142033274Y-56908864D01*
X141902667Y-56896000D01*
X141902660Y-56896000D01*
X141859000Y-56891700D01*
X141815340Y-56896000D01*
X139869901Y-56896000D01*
X139881572Y-56777500D01*
X139881572Y-56252500D01*
X139864268Y-56076807D01*
X139813020Y-55907866D01*
X139729798Y-55752169D01*
X139617801Y-55615699D01*
X139481331Y-55503702D01*
X139325634Y-55420480D01*
X139156693Y-55369232D01*
X138981000Y-55351928D01*
X138006000Y-55351928D01*
X137830307Y-55369232D01*
X137772503Y-55386767D01*
X136995736Y-54610000D01*
X140263541Y-54610000D01*
X140289317Y-54871706D01*
X140365653Y-55123354D01*
X140489618Y-55355275D01*
X140656445Y-55558555D01*
X140859725Y-55725382D01*
X141091646Y-55849347D01*
X141343294Y-55925683D01*
X141539421Y-55945000D01*
X141670579Y-55945000D01*
X141866706Y-55925683D01*
X142118354Y-55849347D01*
X142350275Y-55725382D01*
X142553555Y-55558555D01*
X142720382Y-55355275D01*
X142844347Y-55123354D01*
X142920683Y-54871706D01*
X142946459Y-54610000D01*
X142920683Y-54348294D01*
X142844347Y-54096646D01*
X142780339Y-53976896D01*
X144528280Y-52228956D01*
X144558665Y-52235000D01*
X144841335Y-52235000D01*
X145118574Y-52179853D01*
X145379727Y-52071680D01*
X145614759Y-51914637D01*
X145814637Y-51714759D01*
X145971680Y-51479727D01*
X146079853Y-51218574D01*
X146135000Y-50941335D01*
X146135000Y-50658665D01*
X146079853Y-50381426D01*
X145971680Y-50120273D01*
X145814637Y-49885241D01*
X145614759Y-49685363D01*
X145379727Y-49528320D01*
X145118574Y-49420147D01*
X144841335Y-49365000D01*
X144558665Y-49365000D01*
X144281426Y-49420147D01*
X144020273Y-49528320D01*
X143785241Y-49685363D01*
X143585363Y-49885241D01*
X143428320Y-50120273D01*
X143320147Y-50381426D01*
X143265000Y-50658665D01*
X143265000Y-50941335D01*
X143271044Y-50971720D01*
X141007264Y-53235501D01*
X140973341Y-53263341D01*
X140862247Y-53398710D01*
X140779697Y-53553150D01*
X140776811Y-53562663D01*
X140656445Y-53661445D01*
X140489618Y-53864725D01*
X140365653Y-54096646D01*
X140289317Y-54348294D01*
X140263541Y-54610000D01*
X136995736Y-54610000D01*
X136080499Y-53694764D01*
X136052659Y-53660841D01*
X135917291Y-53549747D01*
X135762851Y-53467197D01*
X135595274Y-53416364D01*
X135464667Y-53403500D01*
X135464660Y-53403500D01*
X135421000Y-53399200D01*
X135377340Y-53403500D01*
X134627272Y-53403500D01*
X134636185Y-53396185D01*
X134715537Y-53299494D01*
X134774502Y-53189180D01*
X134810812Y-53069482D01*
X134823072Y-52945000D01*
X134823072Y-51195000D01*
X134810812Y-51070518D01*
X134774502Y-50950820D01*
X134715537Y-50840506D01*
X134636185Y-50743815D01*
X134539494Y-50664463D01*
X134528647Y-50658665D01*
X138265000Y-50658665D01*
X138265000Y-50941335D01*
X138320147Y-51218574D01*
X138428320Y-51479727D01*
X138585363Y-51714759D01*
X138785241Y-51914637D01*
X139020273Y-52071680D01*
X139281426Y-52179853D01*
X139558665Y-52235000D01*
X139841335Y-52235000D01*
X140118574Y-52179853D01*
X140379727Y-52071680D01*
X140614759Y-51914637D01*
X140814637Y-51714759D01*
X140971680Y-51479727D01*
X141079853Y-51218574D01*
X141135000Y-50941335D01*
X141135000Y-50658665D01*
X141079853Y-50381426D01*
X140971680Y-50120273D01*
X140814637Y-49885241D01*
X140614759Y-49685363D01*
X140379727Y-49528320D01*
X140118574Y-49420147D01*
X139841335Y-49365000D01*
X139558665Y-49365000D01*
X139281426Y-49420147D01*
X139020273Y-49528320D01*
X138785241Y-49685363D01*
X138585363Y-49885241D01*
X138428320Y-50120273D01*
X138320147Y-50381426D01*
X138265000Y-50658665D01*
X134528647Y-50658665D01*
X134429180Y-50605498D01*
X134309482Y-50569188D01*
X134185000Y-50556928D01*
X132435000Y-50556928D01*
X132310518Y-50569188D01*
X132190820Y-50605498D01*
X132080506Y-50664463D01*
X131983815Y-50743815D01*
X131904463Y-50840506D01*
X131845498Y-50950820D01*
X131841026Y-50965564D01*
X131772569Y-50897107D01*
X131525253Y-50731856D01*
X131250451Y-50618029D01*
X130958722Y-50560000D01*
X130661278Y-50560000D01*
X130369549Y-50618029D01*
X130094747Y-50731856D01*
X129847431Y-50897107D01*
X129637107Y-51107431D01*
X129560000Y-51222830D01*
X129482893Y-51107431D01*
X129272569Y-50897107D01*
X129025253Y-50731856D01*
X128750451Y-50618029D01*
X128458722Y-50560000D01*
X128161278Y-50560000D01*
X127869549Y-50618029D01*
X127594747Y-50731856D01*
X127347431Y-50897107D01*
X127137107Y-51107431D01*
X126971856Y-51354747D01*
X126858029Y-51629549D01*
X126800000Y-51921278D01*
X126800000Y-52218722D01*
X126858029Y-52510451D01*
X126971856Y-52785253D01*
X127137107Y-53032569D01*
X127347431Y-53242893D01*
X127587797Y-53403500D01*
X125463235Y-53403500D01*
X123571407Y-51511672D01*
X123578959Y-51435000D01*
X123553183Y-51173294D01*
X123476847Y-50921646D01*
X123352882Y-50689725D01*
X123186055Y-50486445D01*
X122982775Y-50319618D01*
X122750854Y-50195653D01*
X122499206Y-50119317D01*
X122303079Y-50100000D01*
X122171921Y-50100000D01*
X121975794Y-50119317D01*
X121724146Y-50195653D01*
X121492225Y-50319618D01*
X121288945Y-50486445D01*
X121240070Y-50546000D01*
X119539307Y-50546000D01*
X119535812Y-50510518D01*
X119499502Y-50390820D01*
X119440537Y-50280506D01*
X119361185Y-50183815D01*
X119264494Y-50104463D01*
X119154180Y-50045498D01*
X119034482Y-50009188D01*
X118910000Y-49996928D01*
X117310000Y-49996928D01*
X117185518Y-50009188D01*
X117065820Y-50045498D01*
X116955506Y-50104463D01*
X116858815Y-50183815D01*
X116779463Y-50280506D01*
X116720498Y-50390820D01*
X116691339Y-50486943D01*
X116524759Y-50320363D01*
X116289727Y-50163320D01*
X116180321Y-50118003D01*
X116106291Y-50057248D01*
X115951852Y-49974698D01*
X115784275Y-49923864D01*
X115610000Y-49906699D01*
X115435726Y-49923864D01*
X115374632Y-49942397D01*
X115062999Y-49630764D01*
X115035159Y-49596841D01*
X114899791Y-49485747D01*
X114745351Y-49403197D01*
X114577774Y-49352364D01*
X114447167Y-49339500D01*
X114447160Y-49339500D01*
X114403500Y-49335200D01*
X114359840Y-49339500D01*
X106295659Y-49339500D01*
X106251999Y-49335200D01*
X106208339Y-49339500D01*
X106208333Y-49339500D01*
X106110924Y-49349094D01*
X106077724Y-49352364D01*
X105976058Y-49383204D01*
X105910149Y-49403197D01*
X105755709Y-49485747D01*
X105620341Y-49596841D01*
X105592501Y-49630764D01*
X104646003Y-50577262D01*
X104559222Y-50560000D01*
X104261778Y-50560000D01*
X103970049Y-50618029D01*
X103695247Y-50731856D01*
X103447931Y-50897107D01*
X103237607Y-51107431D01*
X103072356Y-51354747D01*
X102958529Y-51629549D01*
X102900500Y-51921278D01*
X102260000Y-51921278D01*
X102260000Y-48920000D01*
X158090000Y-48920000D01*
X158090001Y-83160000D01*
X158090001Y-83160000D01*
G37*
X158090001Y-83160000D02*
X156661012Y-83160000D01*
X156697537Y-83115494D01*
X156756502Y-83005180D01*
X156792812Y-82885482D01*
X156805072Y-82761000D01*
X156802000Y-81946750D01*
X156643250Y-81788000D01*
X155194000Y-81788000D01*
X155194000Y-81808000D01*
X154940000Y-81808000D01*
X154940000Y-81788000D01*
X153490750Y-81788000D01*
X153332000Y-81946750D01*
X153328928Y-82761000D01*
X153341188Y-82885482D01*
X153377498Y-83005180D01*
X153436463Y-83115494D01*
X153472988Y-83160000D01*
X148323118Y-83160000D01*
X148415578Y-83110579D01*
X148679766Y-82893766D01*
X148896579Y-82629578D01*
X149057686Y-82328168D01*
X149156895Y-82001119D01*
X149190394Y-81661000D01*
X149156895Y-81320881D01*
X149057686Y-80993832D01*
X148896579Y-80692422D01*
X148788724Y-80561000D01*
X153328928Y-80561000D01*
X153332000Y-81375250D01*
X153490750Y-81534000D01*
X154940000Y-81534000D01*
X154940000Y-80084750D01*
X155194000Y-80084750D01*
X155194000Y-81534000D01*
X156643250Y-81534000D01*
X156802000Y-81375250D01*
X156805072Y-80561000D01*
X156792812Y-80436518D01*
X156756502Y-80316820D01*
X156697537Y-80206506D01*
X156618185Y-80109815D01*
X156521494Y-80030463D01*
X156411180Y-79971498D01*
X156291482Y-79935188D01*
X156167000Y-79922928D01*
X155352750Y-79926000D01*
X155194000Y-80084750D01*
X154940000Y-80084750D01*
X154781250Y-79926000D01*
X153967000Y-79922928D01*
X153842518Y-79935188D01*
X153722820Y-79971498D01*
X153612506Y-80030463D01*
X153515815Y-80109815D01*
X153436463Y-80206506D01*
X153377498Y-80316820D01*
X153341188Y-80436518D01*
X153328928Y-80561000D01*
X148788724Y-80561000D01*
X148679766Y-80428234D01*
X148415578Y-80211421D01*
X148114168Y-80050314D01*
X147787119Y-79951105D01*
X147532225Y-79926000D01*
X147361775Y-79926000D01*
X147106881Y-79951105D01*
X146779832Y-80050314D01*
X146478422Y-80211421D01*
X146214234Y-80428234D01*
X145997421Y-80692422D01*
X145836314Y-80993832D01*
X145737105Y-81320881D01*
X145703606Y-81661000D01*
X145737105Y-82001119D01*
X145836314Y-82328168D01*
X145997421Y-82629578D01*
X146214234Y-82893766D01*
X146478422Y-83110579D01*
X146570882Y-83160000D01*
X142272419Y-83160000D01*
X142240000Y-83156807D01*
X142207581Y-83160000D01*
X142110617Y-83169550D01*
X141986207Y-83207290D01*
X141871550Y-83268575D01*
X141771052Y-83351052D01*
X141688575Y-83451550D01*
X141627290Y-83566207D01*
X141589550Y-83690617D01*
X141576807Y-83820000D01*
X141580001Y-83852429D01*
X141580000Y-104750000D01*
X120040000Y-104750000D01*
X120040000Y-97802999D01*
X120064341Y-97832658D01*
X120098258Y-97860493D01*
X122149506Y-99911742D01*
X122177341Y-99945659D01*
X122312709Y-100056753D01*
X122467149Y-100139303D01*
X122583892Y-100174716D01*
X122634725Y-100190136D01*
X122651325Y-100191771D01*
X122765333Y-100203000D01*
X122765340Y-100203000D01*
X122809000Y-100207300D01*
X122852660Y-100203000D01*
X123707995Y-100203000D01*
X123507214Y-100503489D01*
X123336851Y-100914782D01*
X123250000Y-101351409D01*
X123250000Y-101796591D01*
X123336851Y-102233218D01*
X123507214Y-102644511D01*
X123754544Y-103014666D01*
X124069334Y-103329456D01*
X124439489Y-103576786D01*
X124850782Y-103747149D01*
X125287409Y-103834000D01*
X125732591Y-103834000D01*
X126169218Y-103747149D01*
X126580511Y-103576786D01*
X126950666Y-103329456D01*
X127265456Y-103014666D01*
X127512786Y-102644511D01*
X127683149Y-102233218D01*
X127770000Y-101796591D01*
X127770000Y-101351409D01*
X127683149Y-100914782D01*
X127512786Y-100503489D01*
X127312005Y-100203000D01*
X129007995Y-100203000D01*
X128807214Y-100503489D01*
X128636851Y-100914782D01*
X128550000Y-101351409D01*
X128550000Y-101796591D01*
X128636851Y-102233218D01*
X128807214Y-102644511D01*
X129054544Y-103014666D01*
X129369334Y-103329456D01*
X129739489Y-103576786D01*
X130150782Y-103747149D01*
X130587409Y-103834000D01*
X131032591Y-103834000D01*
X131469218Y-103747149D01*
X131880511Y-103576786D01*
X132250666Y-103329456D01*
X132565456Y-103014666D01*
X132812786Y-102644511D01*
X132983149Y-102233218D01*
X133070000Y-101796591D01*
X133070000Y-101351409D01*
X132983149Y-100914782D01*
X132812786Y-100503489D01*
X132612005Y-100203000D01*
X133714340Y-100203000D01*
X133758000Y-100207300D01*
X133801660Y-100203000D01*
X133801667Y-100203000D01*
X133932274Y-100190136D01*
X134099851Y-100139303D01*
X134254291Y-100056753D01*
X134389659Y-99945659D01*
X134417499Y-99911736D01*
X135402207Y-98927028D01*
X135450782Y-98947149D01*
X135887409Y-99034000D01*
X136332591Y-99034000D01*
X136769218Y-98947149D01*
X137180511Y-98776786D01*
X137550666Y-98529456D01*
X137865456Y-98214666D01*
X138049001Y-97939973D01*
X138049000Y-98564765D01*
X137082959Y-99530806D01*
X136769218Y-99400851D01*
X136332591Y-99314000D01*
X135887409Y-99314000D01*
X135450782Y-99400851D01*
X135039489Y-99571214D01*
X134669334Y-99818544D01*
X134354544Y-100133334D01*
X134107214Y-100503489D01*
X133936851Y-100914782D01*
X133850000Y-101351409D01*
X133850000Y-101796591D01*
X133936851Y-102233218D01*
X134107214Y-102644511D01*
X134354544Y-103014666D01*
X134669334Y-103329456D01*
X135039489Y-103576786D01*
X135450782Y-103747149D01*
X135887409Y-103834000D01*
X136332591Y-103834000D01*
X136769218Y-103747149D01*
X137180511Y-103576786D01*
X137550666Y-103329456D01*
X137865456Y-103014666D01*
X138112786Y-102644511D01*
X138283149Y-102233218D01*
X138370000Y-101796591D01*
X138370000Y-101351409D01*
X138283149Y-100914782D01*
X138263028Y-100866207D01*
X138333495Y-100795740D01*
X138338072Y-100790163D01*
X139535737Y-99592498D01*
X139569659Y-99564659D01*
X139680753Y-99429291D01*
X139763303Y-99274851D01*
X139783296Y-99208942D01*
X139814136Y-99107276D01*
X139821353Y-99034000D01*
X139827000Y-98976667D01*
X139827000Y-98976661D01*
X139831300Y-98933001D01*
X139827000Y-98889341D01*
X139827000Y-95611160D01*
X139831300Y-95567500D01*
X139827000Y-95523840D01*
X139827000Y-95523833D01*
X139814136Y-95393226D01*
X139763303Y-95225649D01*
X139680753Y-95071209D01*
X139632206Y-95012054D01*
X139597495Y-94969759D01*
X139597494Y-94969758D01*
X139569659Y-94935841D01*
X139535743Y-94908007D01*
X138390999Y-93763264D01*
X138363159Y-93729341D01*
X138227791Y-93618247D01*
X138073351Y-93535697D01*
X137905774Y-93484864D01*
X137805167Y-93474955D01*
X137865456Y-93414666D01*
X138112786Y-93044511D01*
X138283149Y-92633218D01*
X138370000Y-92196591D01*
X138370000Y-91751409D01*
X138283149Y-91314782D01*
X138112786Y-90903489D01*
X137865456Y-90533334D01*
X137550666Y-90218544D01*
X137180511Y-89971214D01*
X136769218Y-89800851D01*
X136332591Y-89714000D01*
X135887409Y-89714000D01*
X135450782Y-89800851D01*
X135039489Y-89971214D01*
X134669334Y-90218544D01*
X134354544Y-90533334D01*
X134107214Y-90903489D01*
X133936851Y-91314782D01*
X133850000Y-91751409D01*
X133850000Y-92196591D01*
X133936851Y-92633218D01*
X134107214Y-93044511D01*
X134354544Y-93414666D01*
X134411878Y-93472000D01*
X133565236Y-93472000D01*
X132907965Y-92814729D01*
X132983149Y-92633218D01*
X133070000Y-92196591D01*
X133070000Y-91751409D01*
X132983149Y-91314782D01*
X132812786Y-90903489D01*
X132565456Y-90533334D01*
X132250666Y-90218544D01*
X131880511Y-89971214D01*
X131469218Y-89800851D01*
X131032591Y-89714000D01*
X130587409Y-89714000D01*
X130150782Y-89800851D01*
X129851820Y-89924685D01*
X129844495Y-89915760D01*
X125373499Y-85444764D01*
X125345659Y-85410841D01*
X125210291Y-85299747D01*
X125055851Y-85217197D01*
X124888274Y-85166364D01*
X124757667Y-85153500D01*
X124757660Y-85153500D01*
X124714000Y-85149200D01*
X124670340Y-85153500D01*
X123574657Y-85153500D01*
X123565502Y-85123320D01*
X123506537Y-85013006D01*
X123427185Y-84916315D01*
X123338369Y-84843426D01*
X123395495Y-84773818D01*
X123430141Y-84709000D01*
X125277541Y-84709000D01*
X125303317Y-84970706D01*
X125379653Y-85222354D01*
X125503618Y-85454275D01*
X125670445Y-85657555D01*
X125873725Y-85824382D01*
X126105646Y-85948347D01*
X126357294Y-86024683D01*
X126553421Y-86044000D01*
X126684579Y-86044000D01*
X126880706Y-86024683D01*
X127132354Y-85948347D01*
X127364275Y-85824382D01*
X127567555Y-85657555D01*
X127734382Y-85454275D01*
X127858347Y-85222354D01*
X127934683Y-84970706D01*
X127960459Y-84709000D01*
X127934683Y-84447294D01*
X127858347Y-84195646D01*
X127734382Y-83963725D01*
X127567555Y-83760445D01*
X127364275Y-83593618D01*
X127132354Y-83469653D01*
X126880706Y-83393317D01*
X126684579Y-83374000D01*
X126553421Y-83374000D01*
X126357294Y-83393317D01*
X126105646Y-83469653D01*
X125873725Y-83593618D01*
X125670445Y-83760445D01*
X125503618Y-83963725D01*
X125379653Y-84195646D01*
X125303317Y-84447294D01*
X125277541Y-84709000D01*
X123430141Y-84709000D01*
X123517138Y-84546241D01*
X123592045Y-84299305D01*
X123617338Y-84042500D01*
X123592045Y-83785695D01*
X123517138Y-83538759D01*
X123395495Y-83311182D01*
X123231792Y-83111708D01*
X123032318Y-82948005D01*
X122804741Y-82826362D01*
X122557805Y-82751455D01*
X122365351Y-82732500D01*
X122236649Y-82732500D01*
X122044195Y-82751455D01*
X121797259Y-82826362D01*
X121569682Y-82948005D01*
X121370208Y-83111708D01*
X121206505Y-83311182D01*
X121084862Y-83538759D01*
X121072888Y-83578231D01*
X120237911Y-82743254D01*
X120210071Y-82709331D01*
X120074703Y-82598237D01*
X119920263Y-82515687D01*
X119752686Y-82464854D01*
X119622079Y-82451990D01*
X119622072Y-82451990D01*
X119578412Y-82447690D01*
X119534752Y-82451990D01*
X109824226Y-82451990D01*
X108108956Y-80736721D01*
X108115000Y-80706335D01*
X108115000Y-80423665D01*
X108059853Y-80146426D01*
X107951680Y-79885273D01*
X107794637Y-79650241D01*
X107594759Y-79450363D01*
X107359727Y-79293320D01*
X107098574Y-79185147D01*
X106821335Y-79130000D01*
X106538665Y-79130000D01*
X106261426Y-79185147D01*
X106000273Y-79293320D01*
X105765241Y-79450363D01*
X105565363Y-79650241D01*
X105408320Y-79885273D01*
X105300147Y-80146426D01*
X105245000Y-80423665D01*
X105245000Y-80706335D01*
X105300147Y-80983574D01*
X105408320Y-81244727D01*
X105565363Y-81479759D01*
X105765241Y-81679637D01*
X106000273Y-81836680D01*
X106261426Y-81944853D01*
X106538665Y-82000000D01*
X106821335Y-82000000D01*
X106851721Y-81993956D01*
X108017764Y-83160000D01*
X102260000Y-83160000D01*
X102260000Y-78598665D01*
X110325000Y-78598665D01*
X110325000Y-78881335D01*
X110380147Y-79158574D01*
X110488320Y-79419727D01*
X110645363Y-79654759D01*
X110845241Y-79854637D01*
X111080273Y-80011680D01*
X111341426Y-80119853D01*
X111618665Y-80175000D01*
X111901335Y-80175000D01*
X112178574Y-80119853D01*
X112439727Y-80011680D01*
X112674759Y-79854637D01*
X112841339Y-79688057D01*
X112870498Y-79784180D01*
X112929463Y-79894494D01*
X113008815Y-79991185D01*
X113105506Y-80070537D01*
X113215820Y-80129502D01*
X113335518Y-80165812D01*
X113460000Y-80178072D01*
X115060000Y-80178072D01*
X115184482Y-80165812D01*
X115304180Y-80129502D01*
X115414494Y-80070537D01*
X115511185Y-79991185D01*
X115590537Y-79894494D01*
X115649502Y-79784180D01*
X115685812Y-79664482D01*
X115689307Y-79629000D01*
X116984025Y-79629000D01*
X117131987Y-79776962D01*
X117350641Y-79923061D01*
X117593595Y-80023696D01*
X117851514Y-80075000D01*
X118114486Y-80075000D01*
X118372405Y-80023696D01*
X118615359Y-79923061D01*
X118834013Y-79776962D01*
X119019962Y-79591013D01*
X119166061Y-79372359D01*
X119266696Y-79129405D01*
X119318000Y-78871486D01*
X119318000Y-78608514D01*
X119266696Y-78350595D01*
X119166061Y-78107641D01*
X119019962Y-77888987D01*
X118834013Y-77703038D01*
X118615359Y-77556939D01*
X118372405Y-77456304D01*
X118114486Y-77405000D01*
X117851514Y-77405000D01*
X117593595Y-77456304D01*
X117350641Y-77556939D01*
X117131987Y-77703038D01*
X116984025Y-77851000D01*
X115689307Y-77851000D01*
X115685812Y-77815518D01*
X115649502Y-77695820D01*
X115590537Y-77585506D01*
X115511185Y-77488815D01*
X115414494Y-77409463D01*
X115304180Y-77350498D01*
X115184482Y-77314188D01*
X115060000Y-77301928D01*
X113460000Y-77301928D01*
X113335518Y-77314188D01*
X113215820Y-77350498D01*
X113105506Y-77409463D01*
X113008815Y-77488815D01*
X112929463Y-77585506D01*
X112870498Y-77695820D01*
X112841339Y-77791943D01*
X112674759Y-77625363D01*
X112439727Y-77468320D01*
X112178574Y-77360147D01*
X111901335Y-77305000D01*
X111618665Y-77305000D01*
X111341426Y-77360147D01*
X111080273Y-77468320D01*
X110845241Y-77625363D01*
X110645363Y-77825241D01*
X110488320Y-78060273D01*
X110380147Y-78321426D01*
X110325000Y-78598665D01*
X102260000Y-78598665D01*
X102260000Y-75423665D01*
X105245000Y-75423665D01*
X105245000Y-75706335D01*
X105300147Y-75983574D01*
X105408320Y-76244727D01*
X105565363Y-76479759D01*
X105765241Y-76679637D01*
X106000273Y-76836680D01*
X106261426Y-76944853D01*
X106538665Y-77000000D01*
X106821335Y-77000000D01*
X107098574Y-76944853D01*
X107359727Y-76836680D01*
X107594759Y-76679637D01*
X107794637Y-76479759D01*
X107951680Y-76244727D01*
X108059853Y-75983574D01*
X108115000Y-75706335D01*
X108115000Y-75423665D01*
X108059853Y-75146426D01*
X107951680Y-74885273D01*
X107794637Y-74650241D01*
X107594759Y-74450363D01*
X107569000Y-74433151D01*
X107569000Y-73895430D01*
X107628555Y-73846555D01*
X107795382Y-73643275D01*
X107919347Y-73411354D01*
X107995683Y-73159706D01*
X108021459Y-72898000D01*
X107995683Y-72636294D01*
X107919347Y-72384646D01*
X107846664Y-72248665D01*
X110325000Y-72248665D01*
X110325000Y-72531335D01*
X110380147Y-72808574D01*
X110488320Y-73069727D01*
X110645363Y-73304759D01*
X110845241Y-73504637D01*
X111080273Y-73661680D01*
X111341426Y-73769853D01*
X111618665Y-73825000D01*
X111901335Y-73825000D01*
X112178574Y-73769853D01*
X112439727Y-73661680D01*
X112674759Y-73504637D01*
X112841339Y-73338057D01*
X112870498Y-73434180D01*
X112929463Y-73544494D01*
X113008815Y-73641185D01*
X113105506Y-73720537D01*
X113215820Y-73779502D01*
X113335518Y-73815812D01*
X113378722Y-73820067D01*
X113383864Y-73872273D01*
X113434697Y-74039850D01*
X113517247Y-74194290D01*
X113628341Y-74329659D01*
X113662264Y-74357499D01*
X114832504Y-75527740D01*
X114860341Y-75561659D01*
X114995709Y-75672753D01*
X115150149Y-75755303D01*
X115192455Y-75768136D01*
X115317724Y-75806136D01*
X115350924Y-75809406D01*
X115448333Y-75819000D01*
X115448339Y-75819000D01*
X115491999Y-75823300D01*
X115535659Y-75819000D01*
X117111025Y-75819000D01*
X117258987Y-75966962D01*
X117477641Y-76113061D01*
X117720595Y-76213696D01*
X117978514Y-76265000D01*
X118241486Y-76265000D01*
X118499405Y-76213696D01*
X118742359Y-76113061D01*
X118961013Y-75966962D01*
X119146962Y-75781013D01*
X119293061Y-75562359D01*
X119393696Y-75319405D01*
X119445000Y-75061486D01*
X119445000Y-74798514D01*
X119393696Y-74540595D01*
X119293061Y-74297641D01*
X119146962Y-74078987D01*
X118961013Y-73893038D01*
X118742359Y-73746939D01*
X118499405Y-73646304D01*
X118241486Y-73595000D01*
X117978514Y-73595000D01*
X117720595Y-73646304D01*
X117477641Y-73746939D01*
X117258987Y-73893038D01*
X117111025Y-74041000D01*
X115860236Y-74041000D01*
X115483303Y-73664067D01*
X115511185Y-73641185D01*
X115590537Y-73544494D01*
X115649502Y-73434180D01*
X115685812Y-73314482D01*
X115698072Y-73190000D01*
X115698072Y-71590000D01*
X115685812Y-71465518D01*
X115649502Y-71345820D01*
X115590537Y-71235506D01*
X115511185Y-71138815D01*
X115414494Y-71059463D01*
X115304180Y-71000498D01*
X115232207Y-70978665D01*
X116675000Y-70978665D01*
X116675000Y-71261335D01*
X116730147Y-71538574D01*
X116838320Y-71799727D01*
X116995363Y-72034759D01*
X117195241Y-72234637D01*
X117430273Y-72391680D01*
X117691426Y-72499853D01*
X117968665Y-72555000D01*
X118251335Y-72555000D01*
X118528574Y-72499853D01*
X118789727Y-72391680D01*
X119024759Y-72234637D01*
X119224637Y-72034759D01*
X119381680Y-71799727D01*
X119489853Y-71538574D01*
X119545000Y-71261335D01*
X119545000Y-70978665D01*
X119489853Y-70701426D01*
X119381680Y-70440273D01*
X119224637Y-70205241D01*
X119024759Y-70005363D01*
X118789727Y-69848320D01*
X118528574Y-69740147D01*
X118251335Y-69685000D01*
X117968665Y-69685000D01*
X117691426Y-69740147D01*
X117430273Y-69848320D01*
X117195241Y-70005363D01*
X116995363Y-70205241D01*
X116838320Y-70440273D01*
X116730147Y-70701426D01*
X116675000Y-70978665D01*
X115232207Y-70978665D01*
X115184482Y-70964188D01*
X115060000Y-70951928D01*
X113460000Y-70951928D01*
X113335518Y-70964188D01*
X113215820Y-71000498D01*
X113105506Y-71059463D01*
X113008815Y-71138815D01*
X112929463Y-71235506D01*
X112870498Y-71345820D01*
X112841339Y-71441943D01*
X112674759Y-71275363D01*
X112439727Y-71118320D01*
X112178574Y-71010147D01*
X111901335Y-70955000D01*
X111618665Y-70955000D01*
X111341426Y-71010147D01*
X111080273Y-71118320D01*
X110845241Y-71275363D01*
X110645363Y-71475241D01*
X110488320Y-71710273D01*
X110380147Y-71971426D01*
X110325000Y-72248665D01*
X107846664Y-72248665D01*
X107795382Y-72152725D01*
X107628555Y-71949445D01*
X107425275Y-71782618D01*
X107193354Y-71658653D01*
X106941706Y-71582317D01*
X106745579Y-71563000D01*
X106614421Y-71563000D01*
X106418294Y-71582317D01*
X106166646Y-71658653D01*
X105934725Y-71782618D01*
X105731445Y-71949445D01*
X105564618Y-72152725D01*
X105440653Y-72384646D01*
X105364317Y-72636294D01*
X105338541Y-72898000D01*
X105364317Y-73159706D01*
X105440653Y-73411354D01*
X105564618Y-73643275D01*
X105731445Y-73846555D01*
X105791001Y-73895431D01*
X105791000Y-74433151D01*
X105765241Y-74450363D01*
X105565363Y-74650241D01*
X105408320Y-74885273D01*
X105300147Y-75146426D01*
X105245000Y-75423665D01*
X102260000Y-75423665D01*
X102260000Y-64770000D01*
X105338541Y-64770000D01*
X105364317Y-65031706D01*
X105440653Y-65283354D01*
X105564618Y-65515275D01*
X105731445Y-65718555D01*
X105791001Y-65767431D01*
X105791000Y-66819025D01*
X105643038Y-66966987D01*
X105496939Y-67185641D01*
X105396304Y-67428595D01*
X105345000Y-67686514D01*
X105345000Y-67949486D01*
X105396304Y-68207405D01*
X105496939Y-68450359D01*
X105643038Y-68669013D01*
X105828987Y-68854962D01*
X106047641Y-69001061D01*
X106290595Y-69101696D01*
X106548514Y-69153000D01*
X106811486Y-69153000D01*
X107069405Y-69101696D01*
X107312359Y-69001061D01*
X107531013Y-68854962D01*
X107716962Y-68669013D01*
X107863061Y-68450359D01*
X107963696Y-68207405D01*
X108015000Y-67949486D01*
X108015000Y-67686514D01*
X107963696Y-67428595D01*
X107863061Y-67185641D01*
X107716962Y-66966987D01*
X107569000Y-66819025D01*
X107569000Y-66565000D01*
X110371928Y-66565000D01*
X110384188Y-66689482D01*
X110420498Y-66809180D01*
X110479463Y-66919494D01*
X110558815Y-67016185D01*
X110655506Y-67095537D01*
X110765820Y-67154502D01*
X110885518Y-67190812D01*
X111010000Y-67203072D01*
X111474250Y-67200000D01*
X111633000Y-67041250D01*
X111633000Y-66167000D01*
X111887000Y-66167000D01*
X111887000Y-67041250D01*
X112045750Y-67200000D01*
X112510000Y-67203072D01*
X112634482Y-67190812D01*
X112754180Y-67154502D01*
X112864494Y-67095537D01*
X112961185Y-67016185D01*
X113040537Y-66919494D01*
X113099502Y-66809180D01*
X113135812Y-66689482D01*
X113148072Y-66565000D01*
X113145000Y-66325750D01*
X112986250Y-66167000D01*
X111887000Y-66167000D01*
X111633000Y-66167000D01*
X110533750Y-66167000D01*
X110375000Y-66325750D01*
X110371928Y-66565000D01*
X107569000Y-66565000D01*
X107569000Y-65767430D01*
X107628555Y-65718555D01*
X107677430Y-65659000D01*
X110373777Y-65659000D01*
X110375000Y-65754250D01*
X110533750Y-65913000D01*
X111087682Y-65913000D01*
X111096807Y-65915768D01*
X111272500Y-65933072D01*
X112247500Y-65933072D01*
X112423193Y-65915768D01*
X112432318Y-65913000D01*
X112986250Y-65913000D01*
X113145000Y-65754250D01*
X113148072Y-65515000D01*
X113135812Y-65390518D01*
X113105636Y-65291041D01*
X113130768Y-65208193D01*
X113148072Y-65032500D01*
X113148072Y-64507500D01*
X113130768Y-64331807D01*
X113079520Y-64162866D01*
X113064625Y-64135000D01*
X113079520Y-64107134D01*
X113130768Y-63938193D01*
X113148072Y-63762500D01*
X113148072Y-63237500D01*
X113130768Y-63061807D01*
X113079520Y-62892866D01*
X112996298Y-62737169D01*
X112884301Y-62600699D01*
X112753709Y-62493526D01*
X114223328Y-61023907D01*
X114234421Y-61025000D01*
X114365579Y-61025000D01*
X114561706Y-61005683D01*
X114813354Y-60929347D01*
X115045275Y-60805382D01*
X115248555Y-60638555D01*
X115297430Y-60579000D01*
X116490193Y-60579000D01*
X116493688Y-60614482D01*
X116529998Y-60734180D01*
X116588963Y-60844494D01*
X116668315Y-60941185D01*
X116765006Y-61020537D01*
X116875320Y-61079502D01*
X116995018Y-61115812D01*
X117119500Y-61128072D01*
X118719500Y-61128072D01*
X118843982Y-61115812D01*
X118878204Y-61105431D01*
X118311949Y-61671686D01*
X118311944Y-61671690D01*
X116242259Y-63741376D01*
X116208342Y-63769211D01*
X116180507Y-63803128D01*
X116180505Y-63803130D01*
X116097248Y-63904579D01*
X116014698Y-64059018D01*
X115963864Y-64226596D01*
X115946700Y-64400870D01*
X115951001Y-64444540D01*
X115951001Y-65041024D01*
X115803038Y-65188987D01*
X115656939Y-65407641D01*
X115556304Y-65650595D01*
X115505000Y-65908514D01*
X115505000Y-66171486D01*
X115556304Y-66429405D01*
X115656939Y-66672359D01*
X115803038Y-66891013D01*
X115988987Y-67076962D01*
X116207641Y-67223061D01*
X116450595Y-67323696D01*
X116708514Y-67375000D01*
X116917765Y-67375000D01*
X121260505Y-71717741D01*
X121288341Y-71751659D01*
X121322258Y-71779494D01*
X121322259Y-71779495D01*
X121346912Y-71799727D01*
X121423709Y-71862753D01*
X121578149Y-71945303D01*
X121659078Y-71969852D01*
X121745725Y-71996136D01*
X121762325Y-71997771D01*
X121876333Y-72009000D01*
X121876340Y-72009000D01*
X121920000Y-72013300D01*
X121963660Y-72009000D01*
X121978151Y-72009000D01*
X121995363Y-72034759D01*
X122195241Y-72234637D01*
X122430273Y-72391680D01*
X122691426Y-72499853D01*
X122968665Y-72555000D01*
X123251335Y-72555000D01*
X123528574Y-72499853D01*
X123789727Y-72391680D01*
X124024759Y-72234637D01*
X124224637Y-72034759D01*
X124241849Y-72009000D01*
X126743205Y-72009000D01*
X126850392Y-72139608D01*
X127068899Y-72318932D01*
X127201858Y-72390000D01*
X127068899Y-72461068D01*
X126850392Y-72640392D01*
X126743205Y-72771000D01*
X124503659Y-72771000D01*
X124459999Y-72766700D01*
X124416339Y-72771000D01*
X124416333Y-72771000D01*
X124318924Y-72780594D01*
X124285724Y-72783864D01*
X124184058Y-72814704D01*
X124118149Y-72834697D01*
X123963709Y-72917247D01*
X123828341Y-73028341D01*
X123800506Y-73062259D01*
X123266672Y-73596093D01*
X123255579Y-73595000D01*
X123124421Y-73595000D01*
X122928294Y-73614317D01*
X122676646Y-73690653D01*
X122444725Y-73814618D01*
X122241445Y-73981445D01*
X122074618Y-74184725D01*
X121950653Y-74416646D01*
X121874317Y-74668294D01*
X121848541Y-74930000D01*
X121874317Y-75191706D01*
X121950653Y-75443354D01*
X122074618Y-75675275D01*
X122174001Y-75796374D01*
X122174000Y-77742569D01*
X122114445Y-77791445D01*
X121947618Y-77994725D01*
X121823653Y-78226646D01*
X121747317Y-78478294D01*
X121721541Y-78740000D01*
X121747317Y-79001706D01*
X121823653Y-79253354D01*
X121947618Y-79485275D01*
X122114445Y-79688555D01*
X122317725Y-79855382D01*
X122549646Y-79979347D01*
X122801294Y-80055683D01*
X122997421Y-80075000D01*
X123128579Y-80075000D01*
X123324706Y-80055683D01*
X123576354Y-79979347D01*
X123808275Y-79855382D01*
X124011555Y-79688555D01*
X124168337Y-79497514D01*
X125284000Y-79497514D01*
X125284000Y-79760486D01*
X125335304Y-80018405D01*
X125435939Y-80261359D01*
X125582038Y-80480013D01*
X125767987Y-80665962D01*
X125986641Y-80812061D01*
X126229595Y-80912696D01*
X126487514Y-80964000D01*
X126750486Y-80964000D01*
X127008405Y-80912696D01*
X127251359Y-80812061D01*
X127470013Y-80665962D01*
X127617975Y-80518000D01*
X128663765Y-80518000D01*
X131316692Y-83170928D01*
X131307000Y-83170928D01*
X131182518Y-83183188D01*
X131062820Y-83219498D01*
X130952506Y-83278463D01*
X130855815Y-83357815D01*
X130776463Y-83454506D01*
X130717498Y-83564820D01*
X130711944Y-83583127D01*
X130645505Y-83516688D01*
X130394095Y-83348701D01*
X130114743Y-83232989D01*
X129818184Y-83174000D01*
X129515816Y-83174000D01*
X129219257Y-83232989D01*
X128939905Y-83348701D01*
X128688495Y-83516688D01*
X128474688Y-83730495D01*
X128306701Y-83981905D01*
X128190989Y-84261257D01*
X128132000Y-84557816D01*
X128132000Y-84860184D01*
X128190989Y-85156743D01*
X128306701Y-85436095D01*
X128474688Y-85687505D01*
X128688495Y-85901312D01*
X128939905Y-86069299D01*
X129219257Y-86185011D01*
X129515816Y-86244000D01*
X129818184Y-86244000D01*
X130114743Y-86185011D01*
X130394095Y-86069299D01*
X130645505Y-85901312D01*
X130711944Y-85834873D01*
X130717498Y-85853180D01*
X130776463Y-85963494D01*
X130855815Y-86060185D01*
X130952506Y-86139537D01*
X131062820Y-86198502D01*
X131182518Y-86234812D01*
X131307000Y-86247072D01*
X133107000Y-86247072D01*
X133231482Y-86234812D01*
X133351180Y-86198502D01*
X133461494Y-86139537D01*
X133558185Y-86060185D01*
X133637537Y-85963494D01*
X133696502Y-85853180D01*
X133732812Y-85733482D01*
X133745072Y-85609000D01*
X133745072Y-84074000D01*
X138256662Y-84074000D01*
X138281955Y-84330805D01*
X138356862Y-84577741D01*
X138478505Y-84805318D01*
X138535631Y-84874926D01*
X138446815Y-84947815D01*
X138367463Y-85044506D01*
X138308498Y-85154820D01*
X138272188Y-85274518D01*
X138259928Y-85399000D01*
X138259928Y-86749000D01*
X138272188Y-86873482D01*
X138308498Y-86993180D01*
X138367463Y-87103494D01*
X138446815Y-87200185D01*
X138543506Y-87279537D01*
X138653820Y-87338502D01*
X138773518Y-87374812D01*
X138898000Y-87387072D01*
X140248000Y-87387072D01*
X140372482Y-87374812D01*
X140492180Y-87338502D01*
X140602494Y-87279537D01*
X140699185Y-87200185D01*
X140778537Y-87103494D01*
X140837502Y-86993180D01*
X140873812Y-86873482D01*
X140886072Y-86749000D01*
X140886072Y-85399000D01*
X140873812Y-85274518D01*
X140837502Y-85154820D01*
X140778537Y-85044506D01*
X140699185Y-84947815D01*
X140610369Y-84874926D01*
X140667495Y-84805318D01*
X140789138Y-84577741D01*
X140864045Y-84330805D01*
X140889338Y-84074000D01*
X140864045Y-83817195D01*
X140789138Y-83570259D01*
X140667495Y-83342682D01*
X140503792Y-83143208D01*
X140304318Y-82979505D01*
X140076741Y-82857862D01*
X139829805Y-82782955D01*
X139637351Y-82764000D01*
X139508649Y-82764000D01*
X139316195Y-82782955D01*
X139069259Y-82857862D01*
X138841682Y-82979505D01*
X138642208Y-83143208D01*
X138478505Y-83342682D01*
X138356862Y-83570259D01*
X138281955Y-83817195D01*
X138256662Y-84074000D01*
X133745072Y-84074000D01*
X133745072Y-83809000D01*
X133732812Y-83684518D01*
X133696502Y-83564820D01*
X133637537Y-83454506D01*
X133558185Y-83357815D01*
X133461494Y-83278463D01*
X133351180Y-83219498D01*
X133231482Y-83183188D01*
X133107000Y-83170928D01*
X133096000Y-83170928D01*
X133096000Y-82847659D01*
X133100300Y-82803999D01*
X133096000Y-82760339D01*
X133096000Y-82760333D01*
X133083136Y-82629726D01*
X133073585Y-82598238D01*
X133061002Y-82556758D01*
X133032303Y-82462149D01*
X132949753Y-82307709D01*
X132838659Y-82172341D01*
X132804743Y-82144507D01*
X129691499Y-79031264D01*
X129663659Y-78997341D01*
X129528291Y-78886247D01*
X129373851Y-78803697D01*
X129206274Y-78752864D01*
X129075667Y-78740000D01*
X129075660Y-78740000D01*
X129032000Y-78735700D01*
X128988340Y-78740000D01*
X127617975Y-78740000D01*
X127470013Y-78592038D01*
X127251359Y-78445939D01*
X127008405Y-78345304D01*
X126750486Y-78294000D01*
X126487514Y-78294000D01*
X126229595Y-78345304D01*
X125986641Y-78445939D01*
X125767987Y-78592038D01*
X125582038Y-78777987D01*
X125435939Y-78996641D01*
X125335304Y-79239595D01*
X125284000Y-79497514D01*
X124168337Y-79497514D01*
X124178382Y-79485275D01*
X124302347Y-79253354D01*
X124378683Y-79001706D01*
X124404459Y-78740000D01*
X124378683Y-78478294D01*
X124302347Y-78226646D01*
X124178382Y-77994725D01*
X124011555Y-77791445D01*
X123952000Y-77742570D01*
X123952000Y-76031656D01*
X124138555Y-75878555D01*
X124305382Y-75675275D01*
X124429347Y-75443354D01*
X124505683Y-75191706D01*
X124531459Y-74930000D01*
X124523907Y-74853328D01*
X124828236Y-74549000D01*
X126743205Y-74549000D01*
X126850392Y-74679608D01*
X127068899Y-74858932D01*
X127201858Y-74930000D01*
X127068899Y-75001068D01*
X126850392Y-75180392D01*
X126671068Y-75398899D01*
X126537818Y-75648192D01*
X126455764Y-75918691D01*
X126428057Y-76200000D01*
X126455764Y-76481309D01*
X126537818Y-76751808D01*
X126671068Y-77001101D01*
X126850392Y-77219608D01*
X127068899Y-77398932D01*
X127318192Y-77532182D01*
X127588691Y-77614236D01*
X127799508Y-77635000D01*
X128740492Y-77635000D01*
X128951309Y-77614236D01*
X129221808Y-77532182D01*
X129471101Y-77398932D01*
X129689608Y-77219608D01*
X129868932Y-77001101D01*
X130002182Y-76751808D01*
X130084236Y-76481309D01*
X130111943Y-76200000D01*
X130084236Y-75918691D01*
X130002182Y-75648192D01*
X129868932Y-75398899D01*
X129689608Y-75180392D01*
X129471101Y-75001068D01*
X129338142Y-74930000D01*
X129471101Y-74858932D01*
X129689608Y-74679608D01*
X129712490Y-74651726D01*
X132207000Y-77146236D01*
X132207001Y-78898454D01*
X132207000Y-78898464D01*
X132207000Y-78941651D01*
X132181241Y-78958863D01*
X131981363Y-79158741D01*
X131824320Y-79393773D01*
X131716147Y-79654926D01*
X131661000Y-79932165D01*
X131661000Y-80214835D01*
X131716147Y-80492074D01*
X131824320Y-80753227D01*
X131981363Y-80988259D01*
X132181241Y-81188137D01*
X132416273Y-81345180D01*
X132677426Y-81453353D01*
X132954665Y-81508500D01*
X133237335Y-81508500D01*
X133514574Y-81453353D01*
X133775727Y-81345180D01*
X134010759Y-81188137D01*
X134210637Y-80988259D01*
X134367680Y-80753227D01*
X134475853Y-80492074D01*
X134531000Y-80214835D01*
X134531000Y-79932165D01*
X134475853Y-79654926D01*
X134367680Y-79393773D01*
X134210637Y-79158741D01*
X134010759Y-78958863D01*
X133985000Y-78941651D01*
X133985000Y-76821660D01*
X133989300Y-76778000D01*
X133985000Y-76734340D01*
X133985000Y-76734333D01*
X133972136Y-76603726D01*
X133953367Y-76541850D01*
X133935002Y-76481309D01*
X133921303Y-76436149D01*
X133838753Y-76281709D01*
X133727659Y-76146341D01*
X133693743Y-76118507D01*
X131235236Y-73660000D01*
X134048057Y-73660000D01*
X134075764Y-73941309D01*
X134157818Y-74211808D01*
X134291068Y-74461101D01*
X134470392Y-74679608D01*
X134688899Y-74858932D01*
X134821858Y-74930000D01*
X134688899Y-75001068D01*
X134470392Y-75180392D01*
X134291068Y-75398899D01*
X134157818Y-75648192D01*
X134075764Y-75918691D01*
X134048057Y-76200000D01*
X134075764Y-76481309D01*
X134157818Y-76751808D01*
X134291068Y-77001101D01*
X134470392Y-77219608D01*
X134688899Y-77398932D01*
X134938192Y-77532182D01*
X135208691Y-77614236D01*
X135419508Y-77635000D01*
X136360492Y-77635000D01*
X136571309Y-77614236D01*
X136841808Y-77532182D01*
X137091101Y-77398932D01*
X137309608Y-77219608D01*
X137488932Y-77001101D01*
X137622182Y-76751808D01*
X137704236Y-76481309D01*
X137731943Y-76200000D01*
X137704236Y-75918691D01*
X137622182Y-75648192D01*
X137488932Y-75398899D01*
X137309608Y-75180392D01*
X137091101Y-75001068D01*
X136958142Y-74930000D01*
X137091101Y-74858932D01*
X137309608Y-74679608D01*
X137416795Y-74549000D01*
X138139765Y-74549000D01*
X138516697Y-74925933D01*
X138488815Y-74948815D01*
X138409463Y-75045506D01*
X138350498Y-75155820D01*
X138314188Y-75275518D01*
X138301928Y-75400000D01*
X138301928Y-77000000D01*
X138314188Y-77124482D01*
X138350498Y-77244180D01*
X138409463Y-77354494D01*
X138488815Y-77451185D01*
X138585506Y-77530537D01*
X138695820Y-77589502D01*
X138815518Y-77625812D01*
X138851001Y-77629307D01*
X138851001Y-78061263D01*
X138267720Y-78644544D01*
X138237335Y-78638500D01*
X137954665Y-78638500D01*
X137677426Y-78693647D01*
X137416273Y-78801820D01*
X137181241Y-78958863D01*
X136981363Y-79158741D01*
X136824320Y-79393773D01*
X136716147Y-79654926D01*
X136661000Y-79932165D01*
X136661000Y-80214835D01*
X136716147Y-80492074D01*
X136824320Y-80753227D01*
X136981363Y-80988259D01*
X137181241Y-81188137D01*
X137416273Y-81345180D01*
X137677426Y-81453353D01*
X137954665Y-81508500D01*
X138237335Y-81508500D01*
X138514574Y-81453353D01*
X138775727Y-81345180D01*
X139010759Y-81188137D01*
X139210637Y-80988259D01*
X139367680Y-80753227D01*
X139475853Y-80492074D01*
X139531000Y-80214835D01*
X139531000Y-79932165D01*
X139524956Y-79901780D01*
X140337742Y-79088994D01*
X140371659Y-79061159D01*
X140482753Y-78925791D01*
X140526630Y-78843702D01*
X146633903Y-78843702D01*
X146705486Y-79087671D01*
X146960996Y-79208571D01*
X147235184Y-79277300D01*
X147517512Y-79291217D01*
X147797130Y-79249787D01*
X148063292Y-79154603D01*
X148188514Y-79087671D01*
X148260097Y-78843702D01*
X147447000Y-78030605D01*
X146633903Y-78843702D01*
X140526630Y-78843702D01*
X140565303Y-78771351D01*
X140597838Y-78664097D01*
X140616136Y-78603776D01*
X140619883Y-78565726D01*
X140629000Y-78473167D01*
X140629000Y-78473161D01*
X140633300Y-78429501D01*
X140629000Y-78385841D01*
X140629000Y-77921512D01*
X146006783Y-77921512D01*
X146048213Y-78201130D01*
X146143397Y-78467292D01*
X146210329Y-78592514D01*
X146454298Y-78664097D01*
X147267395Y-77851000D01*
X147626605Y-77851000D01*
X148439702Y-78664097D01*
X148683671Y-78592514D01*
X148804571Y-78337004D01*
X148873300Y-78062816D01*
X148887217Y-77780488D01*
X148876724Y-77709665D01*
X151012000Y-77709665D01*
X151012000Y-77992335D01*
X151067147Y-78269574D01*
X151175320Y-78530727D01*
X151332363Y-78765759D01*
X151532241Y-78965637D01*
X151767273Y-79122680D01*
X152028426Y-79230853D01*
X152305665Y-79286000D01*
X152588335Y-79286000D01*
X152865574Y-79230853D01*
X153126727Y-79122680D01*
X153361759Y-78965637D01*
X153561637Y-78765759D01*
X153718680Y-78530727D01*
X153826853Y-78269574D01*
X153882000Y-77992335D01*
X153882000Y-77709665D01*
X153826853Y-77432426D01*
X153718680Y-77171273D01*
X153561637Y-76936241D01*
X153361759Y-76736363D01*
X153126727Y-76579320D01*
X152865574Y-76471147D01*
X152588335Y-76416000D01*
X152305665Y-76416000D01*
X152028426Y-76471147D01*
X151767273Y-76579320D01*
X151532241Y-76736363D01*
X151332363Y-76936241D01*
X151175320Y-77171273D01*
X151067147Y-77432426D01*
X151012000Y-77709665D01*
X148876724Y-77709665D01*
X148845787Y-77500870D01*
X148750603Y-77234708D01*
X148683671Y-77109486D01*
X148439702Y-77037903D01*
X147626605Y-77851000D01*
X147267395Y-77851000D01*
X146454298Y-77037903D01*
X146210329Y-77109486D01*
X146089429Y-77364996D01*
X146020700Y-77639184D01*
X146006783Y-77921512D01*
X140629000Y-77921512D01*
X140629000Y-77629307D01*
X140664482Y-77625812D01*
X140784180Y-77589502D01*
X140894494Y-77530537D01*
X140991185Y-77451185D01*
X141070537Y-77354494D01*
X141129502Y-77244180D01*
X141158661Y-77148057D01*
X141325241Y-77314637D01*
X141560273Y-77471680D01*
X141821426Y-77579853D01*
X142098665Y-77635000D01*
X142381335Y-77635000D01*
X142658574Y-77579853D01*
X142919727Y-77471680D01*
X143154759Y-77314637D01*
X143354637Y-77114759D01*
X143511680Y-76879727D01*
X143520556Y-76858298D01*
X146633903Y-76858298D01*
X147447000Y-77671395D01*
X148260097Y-76858298D01*
X148188514Y-76614329D01*
X147933004Y-76493429D01*
X147658816Y-76424700D01*
X147376488Y-76410783D01*
X147096870Y-76452213D01*
X146830708Y-76547397D01*
X146705486Y-76614329D01*
X146633903Y-76858298D01*
X143520556Y-76858298D01*
X143619853Y-76618574D01*
X143675000Y-76341335D01*
X143675000Y-76058665D01*
X143619853Y-75781426D01*
X143511680Y-75520273D01*
X143354637Y-75285241D01*
X143154759Y-75085363D01*
X143129000Y-75068151D01*
X143129000Y-72860000D01*
X144611928Y-72860000D01*
X144611928Y-74460000D01*
X144624188Y-74584482D01*
X144660498Y-74704180D01*
X144719463Y-74814494D01*
X144798815Y-74911185D01*
X144895506Y-74990537D01*
X145005820Y-75049502D01*
X145125518Y-75085812D01*
X145250000Y-75098072D01*
X146850000Y-75098072D01*
X146974482Y-75085812D01*
X147094180Y-75049502D01*
X147204494Y-74990537D01*
X147301185Y-74911185D01*
X147380537Y-74814494D01*
X147439502Y-74704180D01*
X147475812Y-74584482D01*
X147488072Y-74460000D01*
X147488072Y-73660000D01*
X148418057Y-73660000D01*
X148445764Y-73941309D01*
X148527818Y-74211808D01*
X148661068Y-74461101D01*
X148840392Y-74679608D01*
X149058899Y-74858932D01*
X149308192Y-74992182D01*
X149578691Y-75074236D01*
X149789508Y-75095000D01*
X149930492Y-75095000D01*
X150141309Y-75074236D01*
X150411808Y-74992182D01*
X150661101Y-74858932D01*
X150879608Y-74679608D01*
X151058932Y-74461101D01*
X151192182Y-74211808D01*
X151274236Y-73941309D01*
X151301943Y-73660000D01*
X151274236Y-73378691D01*
X151192182Y-73108192D01*
X151058932Y-72858899D01*
X150879608Y-72640392D01*
X150661101Y-72461068D01*
X150411808Y-72327818D01*
X150141309Y-72245764D01*
X149930492Y-72225000D01*
X149789508Y-72225000D01*
X149578691Y-72245764D01*
X149308192Y-72327818D01*
X149058899Y-72461068D01*
X148840392Y-72640392D01*
X148661068Y-72858899D01*
X148527818Y-73108192D01*
X148445764Y-73378691D01*
X148418057Y-73660000D01*
X147488072Y-73660000D01*
X147488072Y-72860000D01*
X147475812Y-72735518D01*
X147439502Y-72615820D01*
X147380537Y-72505506D01*
X147301185Y-72408815D01*
X147204494Y-72329463D01*
X147094180Y-72270498D01*
X146974482Y-72234188D01*
X146850000Y-72221928D01*
X145250000Y-72221928D01*
X145125518Y-72234188D01*
X145005820Y-72270498D01*
X144895506Y-72329463D01*
X144798815Y-72408815D01*
X144719463Y-72505506D01*
X144660498Y-72615820D01*
X144624188Y-72735518D01*
X144611928Y-72860000D01*
X143129000Y-72860000D01*
X143129000Y-72168269D01*
X152293336Y-72168269D01*
X152352797Y-72402037D01*
X152591242Y-72512934D01*
X152846740Y-72575183D01*
X153109473Y-72586390D01*
X153369344Y-72546125D01*
X153616366Y-72455935D01*
X153717203Y-72402037D01*
X153776664Y-72168269D01*
X153035000Y-71426605D01*
X152293336Y-72168269D01*
X143129000Y-72168269D01*
X143129000Y-72118975D01*
X143276962Y-71971013D01*
X143423061Y-71752359D01*
X143467877Y-71644164D01*
X143490751Y-71616292D01*
X143573302Y-71461853D01*
X143615885Y-71321473D01*
X151695610Y-71321473D01*
X151735875Y-71581344D01*
X151826065Y-71828366D01*
X151879963Y-71929203D01*
X152113731Y-71988664D01*
X152855395Y-71247000D01*
X153214605Y-71247000D01*
X153956269Y-71988664D01*
X154190037Y-71929203D01*
X154300934Y-71690758D01*
X154363183Y-71435260D01*
X154374390Y-71172527D01*
X154334125Y-70912656D01*
X154243935Y-70665634D01*
X154190037Y-70564797D01*
X153956269Y-70505336D01*
X153214605Y-71247000D01*
X152855395Y-71247000D01*
X152113731Y-70505336D01*
X151879963Y-70564797D01*
X151769066Y-70803242D01*
X151706817Y-71058740D01*
X151695610Y-71321473D01*
X143615885Y-71321473D01*
X143624136Y-71294276D01*
X143641300Y-71120001D01*
X143624136Y-70945726D01*
X143573302Y-70778149D01*
X143490751Y-70623709D01*
X143467878Y-70595838D01*
X143423061Y-70487641D01*
X143314877Y-70325731D01*
X152293336Y-70325731D01*
X153035000Y-71067395D01*
X153776664Y-70325731D01*
X153717203Y-70091963D01*
X153478758Y-69981066D01*
X153223260Y-69918817D01*
X152960527Y-69907610D01*
X152700656Y-69947875D01*
X152453634Y-70038065D01*
X152352797Y-70091963D01*
X152293336Y-70325731D01*
X143314877Y-70325731D01*
X143276962Y-70268987D01*
X143091013Y-70083038D01*
X142872359Y-69936939D01*
X142629405Y-69836304D01*
X142371486Y-69785000D01*
X142108514Y-69785000D01*
X141850595Y-69836304D01*
X141607641Y-69936939D01*
X141388987Y-70083038D01*
X141203038Y-70268987D01*
X141056939Y-70487641D01*
X140956304Y-70730595D01*
X140905000Y-70988514D01*
X140905000Y-71251486D01*
X140956304Y-71509405D01*
X141056939Y-71752359D01*
X141203038Y-71971013D01*
X141351001Y-72118976D01*
X141351000Y-75068151D01*
X141325241Y-75085363D01*
X141158661Y-75251943D01*
X141129502Y-75155820D01*
X141070537Y-75045506D01*
X140991185Y-74948815D01*
X140894494Y-74869463D01*
X140784180Y-74810498D01*
X140664482Y-74774188D01*
X140621278Y-74769933D01*
X140616136Y-74717726D01*
X140616136Y-74717724D01*
X140576830Y-74588149D01*
X140565303Y-74550149D01*
X140482753Y-74395709D01*
X140402845Y-74298341D01*
X140399495Y-74294259D01*
X140399494Y-74294258D01*
X140371659Y-74260341D01*
X140337741Y-74232505D01*
X139167499Y-73062264D01*
X139139659Y-73028341D01*
X139004291Y-72917247D01*
X138849851Y-72834697D01*
X138682274Y-72783864D01*
X138551667Y-72771000D01*
X138551660Y-72771000D01*
X138508000Y-72766700D01*
X138464340Y-72771000D01*
X137416795Y-72771000D01*
X137309608Y-72640392D01*
X137091101Y-72461068D01*
X136963259Y-72392735D01*
X137192839Y-72242601D01*
X137394500Y-72044895D01*
X137553715Y-71811646D01*
X137664367Y-71551818D01*
X137681904Y-71469039D01*
X137559915Y-71247000D01*
X136017000Y-71247000D01*
X136017000Y-71267000D01*
X135763000Y-71267000D01*
X135763000Y-71247000D01*
X134220085Y-71247000D01*
X134098096Y-71469039D01*
X134115633Y-71551818D01*
X134226285Y-71811646D01*
X134385500Y-72044895D01*
X134587161Y-72242601D01*
X134816741Y-72392735D01*
X134688899Y-72461068D01*
X134470392Y-72640392D01*
X134291068Y-72858899D01*
X134157818Y-73108192D01*
X134075764Y-73378691D01*
X134048057Y-73660000D01*
X131235236Y-73660000D01*
X130637499Y-73062264D01*
X130609659Y-73028341D01*
X130474291Y-72917247D01*
X130319851Y-72834697D01*
X130152274Y-72783864D01*
X130021667Y-72771000D01*
X130021660Y-72771000D01*
X129978000Y-72766700D01*
X129934340Y-72771000D01*
X129796795Y-72771000D01*
X129689608Y-72640392D01*
X129471101Y-72461068D01*
X129338142Y-72390000D01*
X129471101Y-72318932D01*
X129689608Y-72139608D01*
X129868932Y-71921101D01*
X130002182Y-71671808D01*
X130084236Y-71401309D01*
X130111943Y-71120000D01*
X130084236Y-70838691D01*
X130002182Y-70568192D01*
X129868932Y-70318899D01*
X129689608Y-70100392D01*
X129576518Y-70007581D01*
X129594482Y-70005812D01*
X129714180Y-69969502D01*
X129824494Y-69910537D01*
X129921185Y-69831185D01*
X130000537Y-69734494D01*
X130059502Y-69624180D01*
X130095812Y-69504482D01*
X130108072Y-69380000D01*
X130108072Y-67780000D01*
X130095812Y-67655518D01*
X130059502Y-67535820D01*
X130000537Y-67425506D01*
X129921185Y-67328815D01*
X129824494Y-67249463D01*
X129714180Y-67190498D01*
X129594482Y-67154188D01*
X129470000Y-67141928D01*
X127689164Y-67141928D01*
X126619000Y-66071765D01*
X126619000Y-65266849D01*
X126644759Y-65249637D01*
X126844637Y-65049759D01*
X127001680Y-64814727D01*
X127109853Y-64553574D01*
X127165000Y-64276335D01*
X127165000Y-63993665D01*
X129295000Y-63993665D01*
X129295000Y-64276335D01*
X129350147Y-64553574D01*
X129458320Y-64814727D01*
X129615363Y-65049759D01*
X129815241Y-65249637D01*
X129836921Y-65264123D01*
X129836700Y-65266370D01*
X129853864Y-65440644D01*
X129904698Y-65608222D01*
X129963673Y-65718555D01*
X129987248Y-65762661D01*
X130098342Y-65898029D01*
X130132259Y-65925864D01*
X133384136Y-69177742D01*
X133411971Y-69211659D01*
X133547339Y-69322753D01*
X133701779Y-69405303D01*
X133767688Y-69425296D01*
X133869354Y-69456136D01*
X133902554Y-69459406D01*
X133999963Y-69469000D01*
X133999969Y-69469000D01*
X134043629Y-69473300D01*
X134087289Y-69469000D01*
X134363205Y-69469000D01*
X134470392Y-69599608D01*
X134688899Y-69778932D01*
X134816741Y-69847265D01*
X134587161Y-69997399D01*
X134385500Y-70195105D01*
X134226285Y-70428354D01*
X134115633Y-70688182D01*
X134098096Y-70770961D01*
X134220085Y-70993000D01*
X135763000Y-70993000D01*
X135763000Y-70973000D01*
X136017000Y-70973000D01*
X136017000Y-70993000D01*
X137559915Y-70993000D01*
X137681904Y-70770961D01*
X137664367Y-70688182D01*
X137553715Y-70428354D01*
X137394500Y-70195105D01*
X137192839Y-69997399D01*
X136963259Y-69847265D01*
X137091101Y-69778932D01*
X137309608Y-69599608D01*
X137488932Y-69381101D01*
X137622182Y-69131808D01*
X137704236Y-68861309D01*
X137731943Y-68580000D01*
X137704236Y-68298691D01*
X137622182Y-68028192D01*
X137488932Y-67778899D01*
X137309608Y-67560392D01*
X137091101Y-67381068D01*
X136841808Y-67247818D01*
X136571309Y-67165764D01*
X136360492Y-67145000D01*
X135419508Y-67145000D01*
X135208691Y-67165764D01*
X134938192Y-67247818D01*
X134688899Y-67381068D01*
X134470392Y-67560392D01*
X134385139Y-67664273D01*
X132760866Y-66040000D01*
X140898541Y-66040000D01*
X140924317Y-66301706D01*
X141000653Y-66553354D01*
X141124618Y-66785275D01*
X141291445Y-66988555D01*
X141494725Y-67155382D01*
X141726646Y-67279347D01*
X141978294Y-67355683D01*
X142174421Y-67375000D01*
X142305579Y-67375000D01*
X142501706Y-67355683D01*
X142753354Y-67279347D01*
X142985275Y-67155382D01*
X143188555Y-66988555D01*
X143237430Y-66929000D01*
X144923205Y-66929000D01*
X145030392Y-67059608D01*
X145248899Y-67238932D01*
X145498192Y-67372182D01*
X145768691Y-67454236D01*
X145979508Y-67475000D01*
X146120492Y-67475000D01*
X146331309Y-67454236D01*
X146601808Y-67372182D01*
X146851101Y-67238932D01*
X147069608Y-67059608D01*
X147176795Y-66929000D01*
X148430693Y-66929000D01*
X148434188Y-66964482D01*
X148470498Y-67084180D01*
X148529463Y-67194494D01*
X148608815Y-67291185D01*
X148705506Y-67370537D01*
X148815820Y-67429502D01*
X148935518Y-67465812D01*
X149060000Y-67478072D01*
X150660000Y-67478072D01*
X150784482Y-67465812D01*
X150904180Y-67429502D01*
X151014494Y-67370537D01*
X151111185Y-67291185D01*
X151190537Y-67194494D01*
X151249502Y-67084180D01*
X151285812Y-66964482D01*
X151298072Y-66840000D01*
X151298072Y-66167000D01*
X151693541Y-66167000D01*
X151719317Y-66428706D01*
X151795653Y-66680354D01*
X151919618Y-66912275D01*
X152086445Y-67115555D01*
X152289725Y-67282382D01*
X152521646Y-67406347D01*
X152773294Y-67482683D01*
X152969421Y-67502000D01*
X153100579Y-67502000D01*
X153296706Y-67482683D01*
X153548354Y-67406347D01*
X153780275Y-67282382D01*
X153983555Y-67115555D01*
X154150382Y-66912275D01*
X154274347Y-66680354D01*
X154350683Y-66428706D01*
X154373307Y-66199000D01*
X155244910Y-66199000D01*
X155279208Y-66240792D01*
X155363539Y-66310000D01*
X155279208Y-66379208D01*
X155115505Y-66578682D01*
X154993862Y-66806259D01*
X154918955Y-67053195D01*
X154893662Y-67310000D01*
X154918955Y-67566805D01*
X154993862Y-67813741D01*
X155115505Y-68041318D01*
X155279208Y-68240792D01*
X155321001Y-68275090D01*
X155321000Y-71656343D01*
X155290820Y-71665498D01*
X155180506Y-71724463D01*
X155083815Y-71803815D01*
X155004463Y-71900506D01*
X154945498Y-72010820D01*
X154909188Y-72130518D01*
X154896928Y-72255000D01*
X154896928Y-73605000D01*
X154909188Y-73729482D01*
X154945498Y-73849180D01*
X155004463Y-73959494D01*
X155083815Y-74056185D01*
X155172631Y-74129074D01*
X155115505Y-74198682D01*
X154993862Y-74426259D01*
X154918955Y-74673195D01*
X154893662Y-74930000D01*
X154918955Y-75186805D01*
X154993862Y-75433741D01*
X155115505Y-75661318D01*
X155279208Y-75860792D01*
X155478682Y-76024495D01*
X155706259Y-76146138D01*
X155953195Y-76221045D01*
X156145649Y-76240000D01*
X156274351Y-76240000D01*
X156466805Y-76221045D01*
X156713741Y-76146138D01*
X156941318Y-76024495D01*
X157140792Y-75860792D01*
X157304495Y-75661318D01*
X157426138Y-75433741D01*
X157501045Y-75186805D01*
X157526338Y-74930000D01*
X157501045Y-74673195D01*
X157426138Y-74426259D01*
X157304495Y-74198682D01*
X157247369Y-74129074D01*
X157336185Y-74056185D01*
X157415537Y-73959494D01*
X157474502Y-73849180D01*
X157510812Y-73729482D01*
X157523072Y-73605000D01*
X157523072Y-72255000D01*
X157510812Y-72130518D01*
X157474502Y-72010820D01*
X157415537Y-71900506D01*
X157336185Y-71803815D01*
X157239494Y-71724463D01*
X157129180Y-71665498D01*
X157099000Y-71656343D01*
X157099000Y-68275090D01*
X157140792Y-68240792D01*
X157304495Y-68041318D01*
X157426138Y-67813741D01*
X157501045Y-67566805D01*
X157526338Y-67310000D01*
X157501045Y-67053195D01*
X157426138Y-66806259D01*
X157304495Y-66578682D01*
X157140792Y-66379208D01*
X157056461Y-66310000D01*
X157140792Y-66240792D01*
X157304495Y-66041318D01*
X157426138Y-65813741D01*
X157501045Y-65566805D01*
X157526338Y-65310000D01*
X157501045Y-65053195D01*
X157426138Y-64806259D01*
X157304495Y-64578682D01*
X157247369Y-64509074D01*
X157336185Y-64436185D01*
X157415537Y-64339494D01*
X157474502Y-64229180D01*
X157510812Y-64109482D01*
X157523072Y-63985000D01*
X157523072Y-62635000D01*
X157510812Y-62510518D01*
X157474502Y-62390820D01*
X157415537Y-62280506D01*
X157336185Y-62183815D01*
X157239494Y-62104463D01*
X157129180Y-62045498D01*
X157009482Y-62009188D01*
X156885000Y-61996928D01*
X155535000Y-61996928D01*
X155410518Y-62009188D01*
X155290820Y-62045498D01*
X155180506Y-62104463D01*
X155083815Y-62183815D01*
X155004463Y-62280506D01*
X154945498Y-62390820D01*
X154909188Y-62510518D01*
X154896928Y-62635000D01*
X154896928Y-63985000D01*
X154909188Y-64109482D01*
X154945498Y-64229180D01*
X155004463Y-64339494D01*
X155071353Y-64421000D01*
X153935659Y-64421000D01*
X153891999Y-64416700D01*
X153848339Y-64421000D01*
X153848333Y-64421000D01*
X153736073Y-64432057D01*
X153717725Y-64433864D01*
X153644758Y-64455998D01*
X153550149Y-64484697D01*
X153395709Y-64567247D01*
X153260341Y-64678341D01*
X153232505Y-64712259D01*
X153111672Y-64833093D01*
X153100579Y-64832000D01*
X152969421Y-64832000D01*
X152773294Y-64851317D01*
X152521646Y-64927653D01*
X152289725Y-65051618D01*
X152086445Y-65218445D01*
X151919618Y-65421725D01*
X151795653Y-65653646D01*
X151719317Y-65905294D01*
X151693541Y-66167000D01*
X151298072Y-66167000D01*
X151298072Y-65859164D01*
X151490241Y-65666995D01*
X151524159Y-65639159D01*
X151635253Y-65503791D01*
X151717803Y-65349351D01*
X151768636Y-65181774D01*
X151769603Y-65171962D01*
X151785801Y-65007500D01*
X151781500Y-64963832D01*
X151781500Y-59855000D01*
X152271928Y-59855000D01*
X152284188Y-59979482D01*
X152320498Y-60099180D01*
X152379463Y-60209494D01*
X152458815Y-60306185D01*
X152555506Y-60385537D01*
X152665820Y-60444502D01*
X152785518Y-60480812D01*
X152910000Y-60493072D01*
X153424250Y-60490000D01*
X153583000Y-60331250D01*
X153583000Y-59182000D01*
X152433750Y-59182000D01*
X152275000Y-59340750D01*
X152271928Y-59855000D01*
X151781500Y-59855000D01*
X151781500Y-58255000D01*
X152271928Y-58255000D01*
X152275000Y-58769250D01*
X152433750Y-58928000D01*
X153583000Y-58928000D01*
X153583000Y-57778750D01*
X153837000Y-57778750D01*
X153837000Y-58928000D01*
X153857000Y-58928000D01*
X153857000Y-59182000D01*
X153837000Y-59182000D01*
X153837000Y-60331250D01*
X153995750Y-60490000D01*
X154510000Y-60493072D01*
X154634482Y-60480812D01*
X154754180Y-60444502D01*
X154864494Y-60385537D01*
X154961185Y-60306185D01*
X155040537Y-60209494D01*
X155099502Y-60099180D01*
X155128661Y-60003057D01*
X155295241Y-60169637D01*
X155530273Y-60326680D01*
X155791426Y-60434853D01*
X156068665Y-60490000D01*
X156351335Y-60490000D01*
X156628574Y-60434853D01*
X156889727Y-60326680D01*
X157124759Y-60169637D01*
X157324637Y-59969759D01*
X157481680Y-59734727D01*
X157589853Y-59473574D01*
X157645000Y-59196335D01*
X157645000Y-58913665D01*
X157589853Y-58636426D01*
X157481680Y-58375273D01*
X157324637Y-58140241D01*
X157124759Y-57940363D01*
X156889727Y-57783320D01*
X156628574Y-57675147D01*
X156351335Y-57620000D01*
X156068665Y-57620000D01*
X155791426Y-57675147D01*
X155530273Y-57783320D01*
X155295241Y-57940363D01*
X155128661Y-58106943D01*
X155099502Y-58010820D01*
X155040537Y-57900506D01*
X154961185Y-57803815D01*
X154864494Y-57724463D01*
X154754180Y-57665498D01*
X154634482Y-57629188D01*
X154510000Y-57616928D01*
X153995750Y-57620000D01*
X153837000Y-57778750D01*
X153583000Y-57778750D01*
X153424250Y-57620000D01*
X152910000Y-57616928D01*
X152785518Y-57629188D01*
X152665820Y-57665498D01*
X152555506Y-57724463D01*
X152458815Y-57803815D01*
X152379463Y-57900506D01*
X152320498Y-58010820D01*
X152284188Y-58130518D01*
X152271928Y-58255000D01*
X151781500Y-58255000D01*
X151781500Y-53228550D01*
X151855069Y-53179393D01*
X152065393Y-52969069D01*
X152142500Y-52853670D01*
X152219607Y-52969069D01*
X152429931Y-53179393D01*
X152677247Y-53344644D01*
X152952049Y-53458471D01*
X153243778Y-53516500D01*
X153541222Y-53516500D01*
X153832951Y-53458471D01*
X154107753Y-53344644D01*
X154355069Y-53179393D01*
X154423526Y-53110936D01*
X154427998Y-53125680D01*
X154486963Y-53235994D01*
X154566315Y-53332685D01*
X154663006Y-53412037D01*
X154773320Y-53471002D01*
X154893018Y-53507312D01*
X155017500Y-53519572D01*
X156767500Y-53519572D01*
X156891982Y-53507312D01*
X157011680Y-53471002D01*
X157121994Y-53412037D01*
X157218685Y-53332685D01*
X157298037Y-53235994D01*
X157357002Y-53125680D01*
X157393312Y-53005982D01*
X157405572Y-52881500D01*
X157405572Y-51131500D01*
X157393312Y-51007018D01*
X157357002Y-50887320D01*
X157298037Y-50777006D01*
X157218685Y-50680315D01*
X157121994Y-50600963D01*
X157011680Y-50541998D01*
X156891982Y-50505688D01*
X156767500Y-50493428D01*
X155017500Y-50493428D01*
X154893018Y-50505688D01*
X154773320Y-50541998D01*
X154663006Y-50600963D01*
X154566315Y-50680315D01*
X154486963Y-50777006D01*
X154427998Y-50887320D01*
X154423526Y-50902064D01*
X154355069Y-50833607D01*
X154107753Y-50668356D01*
X153832951Y-50554529D01*
X153541222Y-50496500D01*
X153243778Y-50496500D01*
X153156997Y-50513762D01*
X152210499Y-49567264D01*
X152182659Y-49533341D01*
X152047291Y-49422247D01*
X151892851Y-49339697D01*
X151725274Y-49288864D01*
X151594667Y-49276000D01*
X151594660Y-49276000D01*
X151551000Y-49271700D01*
X151507340Y-49276000D01*
X148760660Y-49276000D01*
X148717000Y-49271700D01*
X148673340Y-49276000D01*
X148673333Y-49276000D01*
X148559325Y-49287229D01*
X148542725Y-49288864D01*
X148469758Y-49310998D01*
X148375149Y-49339697D01*
X148220709Y-49422247D01*
X148085341Y-49533341D01*
X148057506Y-49567258D01*
X146087259Y-51537506D01*
X146053342Y-51565341D01*
X146025507Y-51599258D01*
X146025505Y-51599260D01*
X145942248Y-51700709D01*
X145859698Y-51855148D01*
X145808864Y-52022726D01*
X145791700Y-52197000D01*
X145796001Y-52240670D01*
X145796000Y-53611025D01*
X145648038Y-53758987D01*
X145501939Y-53977641D01*
X145401304Y-54220595D01*
X145350000Y-54478514D01*
X145350000Y-54741486D01*
X145401304Y-54999405D01*
X145501939Y-55242359D01*
X145648038Y-55461013D01*
X145833987Y-55646962D01*
X146052641Y-55793061D01*
X146295595Y-55893696D01*
X146553514Y-55945000D01*
X146816486Y-55945000D01*
X147074405Y-55893696D01*
X147317359Y-55793061D01*
X147536013Y-55646962D01*
X147721962Y-55461013D01*
X147868061Y-55242359D01*
X147968696Y-54999405D01*
X148020000Y-54741486D01*
X148020000Y-54478514D01*
X147968696Y-54220595D01*
X147868061Y-53977641D01*
X147721962Y-53758987D01*
X147574000Y-53611025D01*
X147574000Y-52565235D01*
X149085236Y-51054000D01*
X149712879Y-51054000D01*
X149554356Y-51291247D01*
X149440529Y-51566049D01*
X149382500Y-51857778D01*
X149382500Y-52155222D01*
X149440529Y-52446951D01*
X149554356Y-52721753D01*
X149719607Y-52969069D01*
X149929931Y-53179393D01*
X150003500Y-53228550D01*
X150003501Y-64601928D01*
X149060000Y-64601928D01*
X148935518Y-64614188D01*
X148815820Y-64650498D01*
X148705506Y-64709463D01*
X148608815Y-64788815D01*
X148529463Y-64885506D01*
X148470498Y-64995820D01*
X148434188Y-65115518D01*
X148430693Y-65151000D01*
X147176795Y-65151000D01*
X147069608Y-65020392D01*
X146851101Y-64841068D01*
X146601808Y-64707818D01*
X146331309Y-64625764D01*
X146120492Y-64605000D01*
X145979508Y-64605000D01*
X145768691Y-64625764D01*
X145498192Y-64707818D01*
X145248899Y-64841068D01*
X145030392Y-65020392D01*
X144923205Y-65151000D01*
X143237430Y-65151000D01*
X143188555Y-65091445D01*
X142985275Y-64924618D01*
X142753354Y-64800653D01*
X142501706Y-64724317D01*
X142305579Y-64705000D01*
X142174421Y-64705000D01*
X141978294Y-64724317D01*
X141726646Y-64800653D01*
X141494725Y-64924618D01*
X141291445Y-65091445D01*
X141124618Y-65294725D01*
X141000653Y-65526646D01*
X140924317Y-65778294D01*
X140898541Y-66040000D01*
X132760866Y-66040000D01*
X131807631Y-65086765D01*
X131844637Y-65049759D01*
X132001680Y-64814727D01*
X132109853Y-64553574D01*
X132165000Y-64276335D01*
X132165000Y-63993665D01*
X132109853Y-63716426D01*
X132001680Y-63455273D01*
X131844637Y-63220241D01*
X131644759Y-63020363D01*
X131409727Y-62863320D01*
X131300322Y-62818003D01*
X131226291Y-62757247D01*
X131071851Y-62674697D01*
X130904274Y-62623864D01*
X130730000Y-62606699D01*
X130555727Y-62623864D01*
X130388150Y-62674697D01*
X130233710Y-62757247D01*
X130159680Y-62818002D01*
X130050273Y-62863320D01*
X129815241Y-63020363D01*
X129615363Y-63220241D01*
X129458320Y-63455273D01*
X129350147Y-63716426D01*
X129295000Y-63993665D01*
X127165000Y-63993665D01*
X127109853Y-63716426D01*
X127001680Y-63455273D01*
X126844637Y-63220241D01*
X126644759Y-63020363D01*
X126409727Y-62863320D01*
X126148574Y-62755147D01*
X125871335Y-62700000D01*
X125588665Y-62700000D01*
X125311426Y-62755147D01*
X125050273Y-62863320D01*
X124815241Y-63020363D01*
X124615363Y-63220241D01*
X124458320Y-63455273D01*
X124350147Y-63716426D01*
X124295000Y-63993665D01*
X124295000Y-64276335D01*
X124350147Y-64553574D01*
X124458320Y-64814727D01*
X124615363Y-65049759D01*
X124815241Y-65249637D01*
X124841000Y-65266849D01*
X124841001Y-66396330D01*
X124836700Y-66440000D01*
X124853864Y-66614274D01*
X124904698Y-66781852D01*
X124987248Y-66936291D01*
X125052816Y-67016185D01*
X125098342Y-67071659D01*
X125132259Y-67099494D01*
X126431928Y-68399164D01*
X126431928Y-69380000D01*
X126444188Y-69504482D01*
X126480498Y-69624180D01*
X126539463Y-69734494D01*
X126618815Y-69831185D01*
X126715506Y-69910537D01*
X126825820Y-69969502D01*
X126945518Y-70005812D01*
X126963482Y-70007581D01*
X126850392Y-70100392D01*
X126743205Y-70231000D01*
X124241849Y-70231000D01*
X124224637Y-70205241D01*
X124024759Y-70005363D01*
X123789727Y-69848320D01*
X123528574Y-69740147D01*
X123251335Y-69685000D01*
X122968665Y-69685000D01*
X122691426Y-69740147D01*
X122430273Y-69848320D01*
X122195241Y-70005363D01*
X122128920Y-70071684D01*
X118175000Y-66117765D01*
X118175000Y-65908514D01*
X118123696Y-65650595D01*
X118023061Y-65407641D01*
X117876962Y-65188987D01*
X117729000Y-65041025D01*
X117729000Y-64769105D01*
X119569180Y-62928926D01*
X119569184Y-62928921D01*
X121017241Y-61480864D01*
X121051159Y-61453029D01*
X121162253Y-61317661D01*
X121244803Y-61163221D01*
X121295636Y-60995644D01*
X121308500Y-60865037D01*
X121308500Y-60865030D01*
X121312800Y-60821370D01*
X121312579Y-60819123D01*
X121334259Y-60804637D01*
X121534137Y-60604759D01*
X121691180Y-60369727D01*
X121799353Y-60108574D01*
X121854500Y-59831335D01*
X121854500Y-59548665D01*
X121799353Y-59271426D01*
X121691180Y-59010273D01*
X121534137Y-58775241D01*
X121334259Y-58575363D01*
X121099227Y-58418320D01*
X120838074Y-58310147D01*
X120560835Y-58255000D01*
X120278165Y-58255000D01*
X120000926Y-58310147D01*
X119739773Y-58418320D01*
X119504741Y-58575363D01*
X119338161Y-58741943D01*
X119309002Y-58645820D01*
X119250037Y-58535506D01*
X119170685Y-58438815D01*
X119073994Y-58359463D01*
X118963680Y-58300498D01*
X118843982Y-58264188D01*
X118719500Y-58251928D01*
X117119500Y-58251928D01*
X116995018Y-58264188D01*
X116875320Y-58300498D01*
X116765006Y-58359463D01*
X116668315Y-58438815D01*
X116588963Y-58535506D01*
X116529998Y-58645820D01*
X116493688Y-58765518D01*
X116490193Y-58801000D01*
X115297430Y-58801000D01*
X115248555Y-58741445D01*
X115045275Y-58574618D01*
X114813354Y-58450653D01*
X114561706Y-58374317D01*
X114365579Y-58355000D01*
X114234421Y-58355000D01*
X114038294Y-58374317D01*
X113786646Y-58450653D01*
X113554725Y-58574618D01*
X113351445Y-58741445D01*
X113184618Y-58944725D01*
X113060653Y-59176646D01*
X112984317Y-59428294D01*
X112958541Y-59690000D01*
X112966093Y-59766672D01*
X111162259Y-61570506D01*
X111128342Y-61598341D01*
X111100507Y-61632258D01*
X111100505Y-61632260D01*
X111017248Y-61733709D01*
X110934698Y-61888148D01*
X110883864Y-62055726D01*
X110866700Y-62230000D01*
X110871001Y-62273669D01*
X110871001Y-62435875D01*
X110772169Y-62488702D01*
X110635699Y-62600699D01*
X110523702Y-62737169D01*
X110440480Y-62892866D01*
X110389232Y-63061807D01*
X110371928Y-63237500D01*
X110371928Y-63762500D01*
X110383599Y-63881000D01*
X107677430Y-63881000D01*
X107628555Y-63821445D01*
X107425275Y-63654618D01*
X107193354Y-63530653D01*
X106941706Y-63454317D01*
X106745579Y-63435000D01*
X106614421Y-63435000D01*
X106418294Y-63454317D01*
X106166646Y-63530653D01*
X105934725Y-63654618D01*
X105731445Y-63821445D01*
X105564618Y-64024725D01*
X105440653Y-64256646D01*
X105364317Y-64508294D01*
X105338541Y-64770000D01*
X102260000Y-64770000D01*
X102260000Y-59558514D01*
X105345000Y-59558514D01*
X105345000Y-59821486D01*
X105396304Y-60079405D01*
X105496939Y-60322359D01*
X105643038Y-60541013D01*
X105828987Y-60726962D01*
X106047641Y-60873061D01*
X106290595Y-60973696D01*
X106548514Y-61025000D01*
X106811486Y-61025000D01*
X107069405Y-60973696D01*
X107312359Y-60873061D01*
X107531013Y-60726962D01*
X107716962Y-60541013D01*
X107863061Y-60322359D01*
X107950000Y-60112470D01*
X108036939Y-60322359D01*
X108183038Y-60541013D01*
X108368987Y-60726962D01*
X108587641Y-60873061D01*
X108830595Y-60973696D01*
X109088514Y-61025000D01*
X109351486Y-61025000D01*
X109609405Y-60973696D01*
X109852359Y-60873061D01*
X110071013Y-60726962D01*
X110256962Y-60541013D01*
X110403061Y-60322359D01*
X110503696Y-60079405D01*
X110555000Y-59821486D01*
X110555000Y-59558514D01*
X110503696Y-59300595D01*
X110403061Y-59057641D01*
X110256962Y-58838987D01*
X110071013Y-58653038D01*
X109852359Y-58506939D01*
X109609405Y-58406304D01*
X109351486Y-58355000D01*
X109088514Y-58355000D01*
X108830595Y-58406304D01*
X108587641Y-58506939D01*
X108368987Y-58653038D01*
X108183038Y-58838987D01*
X108036939Y-59057641D01*
X107950000Y-59267530D01*
X107863061Y-59057641D01*
X107716962Y-58838987D01*
X107531013Y-58653038D01*
X107312359Y-58506939D01*
X107069405Y-58406304D01*
X106811486Y-58355000D01*
X106548514Y-58355000D01*
X106290595Y-58406304D01*
X106047641Y-58506939D01*
X105828987Y-58653038D01*
X105643038Y-58838987D01*
X105496939Y-59057641D01*
X105396304Y-59300595D01*
X105345000Y-59558514D01*
X102260000Y-59558514D01*
X102260000Y-56701014D01*
X107948500Y-56701014D01*
X107948500Y-56963986D01*
X107999804Y-57221905D01*
X108100439Y-57464859D01*
X108246538Y-57683513D01*
X108432487Y-57869462D01*
X108651141Y-58015561D01*
X108894095Y-58116196D01*
X109152014Y-58167500D01*
X109414986Y-58167500D01*
X109672905Y-58116196D01*
X109915859Y-58015561D01*
X110134513Y-57869462D01*
X110320462Y-57683513D01*
X110466561Y-57464859D01*
X110567196Y-57221905D01*
X110618500Y-56963986D01*
X110618500Y-56701014D01*
X110567196Y-56443095D01*
X110466561Y-56200141D01*
X110320462Y-55981487D01*
X110134513Y-55795538D01*
X109915859Y-55649439D01*
X109672905Y-55548804D01*
X109414986Y-55497500D01*
X109152014Y-55497500D01*
X108894095Y-55548804D01*
X108651141Y-55649439D01*
X108432487Y-55795538D01*
X108246538Y-55981487D01*
X108100439Y-56200141D01*
X107999804Y-56443095D01*
X107948500Y-56701014D01*
X102260000Y-56701014D01*
X102260000Y-51921278D01*
X102900500Y-51921278D01*
X102900500Y-52218722D01*
X102958529Y-52510451D01*
X103072356Y-52785253D01*
X103237607Y-53032569D01*
X103447931Y-53242893D01*
X103695247Y-53408144D01*
X103970049Y-53521971D01*
X104261778Y-53580000D01*
X104559222Y-53580000D01*
X104850951Y-53521971D01*
X105125753Y-53408144D01*
X105373069Y-53242893D01*
X105583393Y-53032569D01*
X105660500Y-52917170D01*
X105737607Y-53032569D01*
X105947931Y-53242893D01*
X106195247Y-53408144D01*
X106470049Y-53521971D01*
X106761778Y-53580000D01*
X107059222Y-53580000D01*
X107350951Y-53521971D01*
X107625753Y-53408144D01*
X107873069Y-53242893D01*
X107941526Y-53174436D01*
X107945998Y-53189180D01*
X108004963Y-53299494D01*
X108084315Y-53396185D01*
X108181006Y-53475537D01*
X108291320Y-53534502D01*
X108411018Y-53570812D01*
X108535500Y-53583072D01*
X110285500Y-53583072D01*
X110409982Y-53570812D01*
X110529680Y-53534502D01*
X110639994Y-53475537D01*
X110736685Y-53396185D01*
X110816037Y-53299494D01*
X110875002Y-53189180D01*
X110911312Y-53069482D01*
X110923572Y-52945000D01*
X110923572Y-51195000D01*
X110915939Y-51117500D01*
X114035265Y-51117500D01*
X114181044Y-51263279D01*
X114175000Y-51293665D01*
X114175000Y-51576335D01*
X114181044Y-51606721D01*
X113765759Y-52022006D01*
X113731842Y-52049841D01*
X113704007Y-52083758D01*
X113704005Y-52083760D01*
X113620748Y-52185209D01*
X113538198Y-52339648D01*
X113487364Y-52507226D01*
X113470200Y-52681500D01*
X113474501Y-52725170D01*
X113474500Y-55835069D01*
X113414945Y-55883945D01*
X113248118Y-56087225D01*
X113124153Y-56319146D01*
X113047817Y-56570794D01*
X113022041Y-56832500D01*
X113047817Y-57094206D01*
X113124153Y-57345854D01*
X113248118Y-57577775D01*
X113414945Y-57781055D01*
X113618225Y-57947882D01*
X113850146Y-58071847D01*
X114101794Y-58148183D01*
X114297921Y-58167500D01*
X114429079Y-58167500D01*
X114625206Y-58148183D01*
X114876854Y-58071847D01*
X115108775Y-57947882D01*
X115312055Y-57781055D01*
X115478882Y-57577775D01*
X115602847Y-57345854D01*
X115679183Y-57094206D01*
X115704959Y-56832500D01*
X115679183Y-56570794D01*
X115622373Y-56383514D01*
X120902500Y-56383514D01*
X120902500Y-56646486D01*
X120953804Y-56904405D01*
X121054439Y-57147359D01*
X121200538Y-57366013D01*
X121386487Y-57551962D01*
X121605141Y-57698061D01*
X121848095Y-57798696D01*
X122106014Y-57850000D01*
X122368986Y-57850000D01*
X122626905Y-57798696D01*
X122869859Y-57698061D01*
X123088513Y-57551962D01*
X123274462Y-57366013D01*
X123420561Y-57147359D01*
X123521196Y-56904405D01*
X123572500Y-56646486D01*
X123572500Y-56383514D01*
X123521196Y-56125595D01*
X123420561Y-55882641D01*
X123274462Y-55663987D01*
X123088513Y-55478038D01*
X122869859Y-55331939D01*
X122626905Y-55231304D01*
X122368986Y-55180000D01*
X122106014Y-55180000D01*
X121848095Y-55231304D01*
X121605141Y-55331939D01*
X121386487Y-55478038D01*
X121200538Y-55663987D01*
X121054439Y-55882641D01*
X120953804Y-56125595D01*
X120902500Y-56383514D01*
X115622373Y-56383514D01*
X115602847Y-56319146D01*
X115478882Y-56087225D01*
X115312055Y-55883945D01*
X115252500Y-55835070D01*
X115252500Y-53049735D01*
X115438279Y-52863956D01*
X115468665Y-52870000D01*
X115751335Y-52870000D01*
X116028574Y-52814853D01*
X116289727Y-52706680D01*
X116524759Y-52549637D01*
X116691339Y-52383057D01*
X116720498Y-52479180D01*
X116779463Y-52589494D01*
X116858815Y-52686185D01*
X116955506Y-52765537D01*
X117065820Y-52824502D01*
X117185518Y-52860812D01*
X117310000Y-52873072D01*
X118910000Y-52873072D01*
X119034482Y-52860812D01*
X119154180Y-52824502D01*
X119264494Y-52765537D01*
X119361185Y-52686185D01*
X119440537Y-52589494D01*
X119499502Y-52479180D01*
X119535812Y-52359482D01*
X119539307Y-52324000D01*
X121240070Y-52324000D01*
X121288945Y-52383555D01*
X121492225Y-52550382D01*
X121724146Y-52674347D01*
X121975794Y-52750683D01*
X122171921Y-52770000D01*
X122303079Y-52770000D01*
X122314172Y-52768907D01*
X124435501Y-54890236D01*
X124463341Y-54924159D01*
X124598709Y-55035253D01*
X124753149Y-55117803D01*
X124771449Y-55123354D01*
X124920724Y-55168636D01*
X124953924Y-55171906D01*
X125051333Y-55181500D01*
X125051339Y-55181500D01*
X125094999Y-55185800D01*
X125138659Y-55181500D01*
X126566088Y-55181500D01*
X126320273Y-55283320D01*
X126085241Y-55440363D01*
X125885363Y-55640241D01*
X125728320Y-55875273D01*
X125620147Y-56136426D01*
X125565000Y-56413665D01*
X125565000Y-56696335D01*
X125620147Y-56973574D01*
X125728320Y-57234727D01*
X125885363Y-57469759D01*
X126051943Y-57636339D01*
X125955820Y-57665498D01*
X125845506Y-57724463D01*
X125748815Y-57803815D01*
X125669463Y-57900506D01*
X125610498Y-58010820D01*
X125574188Y-58130518D01*
X125569933Y-58173722D01*
X125517725Y-58178864D01*
X125466892Y-58194284D01*
X125350149Y-58229697D01*
X125195709Y-58312247D01*
X125060341Y-58423341D01*
X125032506Y-58457258D01*
X121322264Y-62167501D01*
X121288341Y-62195341D01*
X121177247Y-62330710D01*
X121094697Y-62485150D01*
X121088536Y-62505460D01*
X121056067Y-62612500D01*
X121043864Y-62652727D01*
X121031000Y-62783334D01*
X121031000Y-62783340D01*
X121026700Y-62827000D01*
X121031000Y-62870660D01*
X121031001Y-65006375D01*
X121031000Y-65006385D01*
X121031000Y-65042570D01*
X120971445Y-65091445D01*
X120804618Y-65294725D01*
X120680653Y-65526646D01*
X120604317Y-65778294D01*
X120578541Y-66040000D01*
X120604317Y-66301706D01*
X120680653Y-66553354D01*
X120804618Y-66785275D01*
X120971445Y-66988555D01*
X121174725Y-67155382D01*
X121406646Y-67279347D01*
X121658294Y-67355683D01*
X121854421Y-67375000D01*
X121985579Y-67375000D01*
X122181706Y-67355683D01*
X122433354Y-67279347D01*
X122665275Y-67155382D01*
X122868555Y-66988555D01*
X123035382Y-66785275D01*
X123159347Y-66553354D01*
X123235683Y-66301706D01*
X123261459Y-66040000D01*
X123235683Y-65778294D01*
X123159347Y-65526646D01*
X123035382Y-65294725D01*
X122868555Y-65091445D01*
X122809000Y-65042570D01*
X122809000Y-63195235D01*
X125725933Y-60278303D01*
X125748815Y-60306185D01*
X125845506Y-60385537D01*
X125955820Y-60444502D01*
X126075518Y-60480812D01*
X126200000Y-60493072D01*
X127800000Y-60493072D01*
X127924482Y-60480812D01*
X128044180Y-60444502D01*
X128154494Y-60385537D01*
X128251185Y-60306185D01*
X128330537Y-60209494D01*
X128389502Y-60099180D01*
X128425812Y-59979482D01*
X128429307Y-59944000D01*
X131394265Y-59944000D01*
X132650000Y-61199736D01*
X132650000Y-61408986D01*
X132701304Y-61666905D01*
X132801939Y-61909859D01*
X132948038Y-62128513D01*
X133096001Y-62276476D01*
X133096000Y-63137569D01*
X133036445Y-63186445D01*
X132869618Y-63389725D01*
X132745653Y-63621646D01*
X132669317Y-63873294D01*
X132643541Y-64135000D01*
X132669317Y-64396706D01*
X132745653Y-64648354D01*
X132869618Y-64880275D01*
X133036445Y-65083555D01*
X133239725Y-65250382D01*
X133471646Y-65374347D01*
X133723294Y-65450683D01*
X133919421Y-65470000D01*
X134050579Y-65470000D01*
X134246706Y-65450683D01*
X134498354Y-65374347D01*
X134730275Y-65250382D01*
X134933555Y-65083555D01*
X135100382Y-64880275D01*
X135224347Y-64648354D01*
X135300683Y-64396706D01*
X135326459Y-64135000D01*
X135313509Y-64003514D01*
X137730000Y-64003514D01*
X137730000Y-64266486D01*
X137781304Y-64524405D01*
X137881939Y-64767359D01*
X138028038Y-64986013D01*
X138213987Y-65171962D01*
X138432641Y-65318061D01*
X138675595Y-65418696D01*
X138933514Y-65470000D01*
X139196486Y-65470000D01*
X139454405Y-65418696D01*
X139697359Y-65318061D01*
X139916013Y-65171962D01*
X140101962Y-64986013D01*
X140248061Y-64767359D01*
X140348696Y-64524405D01*
X140400000Y-64266486D01*
X140400000Y-64003514D01*
X140348696Y-63745595D01*
X140248061Y-63502641D01*
X140101962Y-63283987D01*
X139916013Y-63098038D01*
X139697359Y-62951939D01*
X139454405Y-62851304D01*
X139196486Y-62800000D01*
X138933514Y-62800000D01*
X138675595Y-62851304D01*
X138432641Y-62951939D01*
X138213987Y-63098038D01*
X138028038Y-63283987D01*
X137881939Y-63502641D01*
X137781304Y-63745595D01*
X137730000Y-64003514D01*
X135313509Y-64003514D01*
X135300683Y-63873294D01*
X135224347Y-63621646D01*
X135100382Y-63389725D01*
X134933555Y-63186445D01*
X134874000Y-63137570D01*
X134874000Y-62276475D01*
X135021962Y-62128513D01*
X135168061Y-61909859D01*
X135268696Y-61666905D01*
X135320000Y-61408986D01*
X135320000Y-61146014D01*
X135268696Y-60888095D01*
X135168061Y-60645141D01*
X135021962Y-60426487D01*
X134836013Y-60240538D01*
X134617359Y-60094439D01*
X134374405Y-59993804D01*
X134116486Y-59942500D01*
X133907236Y-59942500D01*
X133544736Y-59580000D01*
X137105428Y-59580000D01*
X137117688Y-59704482D01*
X137153998Y-59824180D01*
X137212963Y-59934494D01*
X137292315Y-60031185D01*
X137389006Y-60110537D01*
X137499320Y-60169502D01*
X137619018Y-60205812D01*
X137743500Y-60218072D01*
X138207750Y-60215000D01*
X138366500Y-60056250D01*
X138366500Y-59182000D01*
X138620500Y-59182000D01*
X138620500Y-60056250D01*
X138779250Y-60215000D01*
X139243500Y-60218072D01*
X139367982Y-60205812D01*
X139487680Y-60169502D01*
X139597994Y-60110537D01*
X139694685Y-60031185D01*
X139774037Y-59934494D01*
X139833002Y-59824180D01*
X139869312Y-59704482D01*
X139881572Y-59580000D01*
X139878500Y-59340750D01*
X139719750Y-59182000D01*
X138620500Y-59182000D01*
X138366500Y-59182000D01*
X137267250Y-59182000D01*
X137108500Y-59340750D01*
X137105428Y-59580000D01*
X133544736Y-59580000D01*
X132421999Y-58457264D01*
X132394159Y-58423341D01*
X132258791Y-58312247D01*
X132104351Y-58229697D01*
X131936774Y-58178864D01*
X131806167Y-58166000D01*
X131806160Y-58166000D01*
X131762500Y-58161700D01*
X131718840Y-58166000D01*
X128429307Y-58166000D01*
X128425812Y-58130518D01*
X128389502Y-58010820D01*
X128330537Y-57900506D01*
X128251185Y-57803815D01*
X128154494Y-57724463D01*
X128044180Y-57665498D01*
X127948057Y-57636339D01*
X128114637Y-57469759D01*
X128271680Y-57234727D01*
X128379853Y-56973574D01*
X128435000Y-56696335D01*
X128435000Y-56530830D01*
X132692278Y-56530830D01*
X132782147Y-56776623D01*
X132918241Y-57000160D01*
X133095330Y-57192851D01*
X133306608Y-57347292D01*
X133543956Y-57457547D01*
X133651671Y-57490216D01*
X133858000Y-57366874D01*
X133858000Y-56324500D01*
X134112000Y-56324500D01*
X134112000Y-57366874D01*
X134318329Y-57490216D01*
X134426044Y-57457547D01*
X134663392Y-57347292D01*
X134874670Y-57192851D01*
X135051759Y-57000160D01*
X135187853Y-56776623D01*
X135277722Y-56530830D01*
X135155201Y-56324500D01*
X134112000Y-56324500D01*
X133858000Y-56324500D01*
X132814799Y-56324500D01*
X132692278Y-56530830D01*
X128435000Y-56530830D01*
X128435000Y-56413665D01*
X128379853Y-56136426D01*
X128271680Y-55875273D01*
X128114637Y-55640241D01*
X127914759Y-55440363D01*
X127679727Y-55283320D01*
X127433912Y-55181500D01*
X133123578Y-55181500D01*
X133095330Y-55202149D01*
X132918241Y-55394840D01*
X132782147Y-55618377D01*
X132692278Y-55864170D01*
X132814799Y-56070500D01*
X133858000Y-56070500D01*
X133858000Y-56050500D01*
X134112000Y-56050500D01*
X134112000Y-56070500D01*
X135155201Y-56070500D01*
X135277722Y-55864170D01*
X135187853Y-55618377D01*
X135051759Y-55394840D01*
X134874670Y-55202149D01*
X134846422Y-55181500D01*
X135052765Y-55181500D01*
X136984006Y-57112742D01*
X137011841Y-57146659D01*
X137147209Y-57257753D01*
X137149392Y-57258920D01*
X137122732Y-57346807D01*
X137105428Y-57522500D01*
X137105428Y-58047500D01*
X137122732Y-58223193D01*
X137147864Y-58306041D01*
X137117688Y-58405518D01*
X137105428Y-58530000D01*
X137108500Y-58769250D01*
X137267250Y-58928000D01*
X137821182Y-58928000D01*
X137830307Y-58930768D01*
X138006000Y-58948072D01*
X138981000Y-58948072D01*
X139156693Y-58930768D01*
X139165818Y-58928000D01*
X139719750Y-58928000D01*
X139878500Y-58769250D01*
X139879723Y-58674000D01*
X141081411Y-58674000D01*
X141114147Y-58838574D01*
X141222320Y-59099727D01*
X141379363Y-59334759D01*
X141579241Y-59534637D01*
X141605001Y-59551849D01*
X141605000Y-61804069D01*
X141545445Y-61852945D01*
X141378618Y-62056225D01*
X141254653Y-62288146D01*
X141178317Y-62539794D01*
X141152541Y-62801500D01*
X141178317Y-63063206D01*
X141254653Y-63314854D01*
X141378618Y-63546775D01*
X141545445Y-63750055D01*
X141748725Y-63916882D01*
X141980646Y-64040847D01*
X142232294Y-64117183D01*
X142428421Y-64136500D01*
X142559579Y-64136500D01*
X142755706Y-64117183D01*
X143007354Y-64040847D01*
X143239275Y-63916882D01*
X143442555Y-63750055D01*
X143609382Y-63546775D01*
X143733347Y-63314854D01*
X143809683Y-63063206D01*
X143835459Y-62801500D01*
X143822509Y-62670014D01*
X146239000Y-62670014D01*
X146239000Y-62932986D01*
X146290304Y-63190905D01*
X146390939Y-63433859D01*
X146537038Y-63652513D01*
X146722987Y-63838462D01*
X146941641Y-63984561D01*
X147184595Y-64085196D01*
X147442514Y-64136500D01*
X147705486Y-64136500D01*
X147963405Y-64085196D01*
X148206359Y-63984561D01*
X148425013Y-63838462D01*
X148610962Y-63652513D01*
X148757061Y-63433859D01*
X148857696Y-63190905D01*
X148909000Y-62932986D01*
X148909000Y-62670014D01*
X148857696Y-62412095D01*
X148757061Y-62169141D01*
X148610962Y-61950487D01*
X148425013Y-61764538D01*
X148206359Y-61618439D01*
X147963405Y-61517804D01*
X147705486Y-61466500D01*
X147442514Y-61466500D01*
X147184595Y-61517804D01*
X146941641Y-61618439D01*
X146722987Y-61764538D01*
X146537038Y-61950487D01*
X146390939Y-62169141D01*
X146290304Y-62412095D01*
X146239000Y-62670014D01*
X143822509Y-62670014D01*
X143809683Y-62539794D01*
X143733347Y-62288146D01*
X143609382Y-62056225D01*
X143442555Y-61852945D01*
X143383000Y-61804070D01*
X143383000Y-59551849D01*
X143408759Y-59534637D01*
X143608637Y-59334759D01*
X143765680Y-59099727D01*
X143873853Y-58838574D01*
X143929000Y-58561335D01*
X143929000Y-58278665D01*
X146059000Y-58278665D01*
X146059000Y-58561335D01*
X146114147Y-58838574D01*
X146222320Y-59099727D01*
X146379363Y-59334759D01*
X146579241Y-59534637D01*
X146814273Y-59691680D01*
X147075426Y-59799853D01*
X147352665Y-59855000D01*
X147635335Y-59855000D01*
X147912574Y-59799853D01*
X148173727Y-59691680D01*
X148408759Y-59534637D01*
X148608637Y-59334759D01*
X148765680Y-59099727D01*
X148873853Y-58838574D01*
X148929000Y-58561335D01*
X148929000Y-58278665D01*
X148873853Y-58001426D01*
X148765680Y-57740273D01*
X148608637Y-57505241D01*
X148408759Y-57305363D01*
X148173727Y-57148320D01*
X147912574Y-57040147D01*
X147635335Y-56985000D01*
X147352665Y-56985000D01*
X147075426Y-57040147D01*
X146814273Y-57148320D01*
X146579241Y-57305363D01*
X146379363Y-57505241D01*
X146222320Y-57740273D01*
X146114147Y-58001426D01*
X146059000Y-58278665D01*
X143929000Y-58278665D01*
X143873853Y-58001426D01*
X143765680Y-57740273D01*
X143608637Y-57505241D01*
X143408759Y-57305363D01*
X143173727Y-57148320D01*
X142912574Y-57040147D01*
X142635335Y-56985000D01*
X142352665Y-56985000D01*
X142276525Y-57000145D01*
X142200851Y-56959697D01*
X142033274Y-56908864D01*
X141902667Y-56896000D01*
X141902660Y-56896000D01*
X141859000Y-56891700D01*
X141815340Y-56896000D01*
X139869901Y-56896000D01*
X139881572Y-56777500D01*
X139881572Y-56252500D01*
X139864268Y-56076807D01*
X139813020Y-55907866D01*
X139729798Y-55752169D01*
X139617801Y-55615699D01*
X139481331Y-55503702D01*
X139325634Y-55420480D01*
X139156693Y-55369232D01*
X138981000Y-55351928D01*
X138006000Y-55351928D01*
X137830307Y-55369232D01*
X137772503Y-55386767D01*
X136995736Y-54610000D01*
X140263541Y-54610000D01*
X140289317Y-54871706D01*
X140365653Y-55123354D01*
X140489618Y-55355275D01*
X140656445Y-55558555D01*
X140859725Y-55725382D01*
X141091646Y-55849347D01*
X141343294Y-55925683D01*
X141539421Y-55945000D01*
X141670579Y-55945000D01*
X141866706Y-55925683D01*
X142118354Y-55849347D01*
X142350275Y-55725382D01*
X142553555Y-55558555D01*
X142720382Y-55355275D01*
X142844347Y-55123354D01*
X142920683Y-54871706D01*
X142946459Y-54610000D01*
X142920683Y-54348294D01*
X142844347Y-54096646D01*
X142780339Y-53976896D01*
X144528280Y-52228956D01*
X144558665Y-52235000D01*
X144841335Y-52235000D01*
X145118574Y-52179853D01*
X145379727Y-52071680D01*
X145614759Y-51914637D01*
X145814637Y-51714759D01*
X145971680Y-51479727D01*
X146079853Y-51218574D01*
X146135000Y-50941335D01*
X146135000Y-50658665D01*
X146079853Y-50381426D01*
X145971680Y-50120273D01*
X145814637Y-49885241D01*
X145614759Y-49685363D01*
X145379727Y-49528320D01*
X145118574Y-49420147D01*
X144841335Y-49365000D01*
X144558665Y-49365000D01*
X144281426Y-49420147D01*
X144020273Y-49528320D01*
X143785241Y-49685363D01*
X143585363Y-49885241D01*
X143428320Y-50120273D01*
X143320147Y-50381426D01*
X143265000Y-50658665D01*
X143265000Y-50941335D01*
X143271044Y-50971720D01*
X141007264Y-53235501D01*
X140973341Y-53263341D01*
X140862247Y-53398710D01*
X140779697Y-53553150D01*
X140776811Y-53562663D01*
X140656445Y-53661445D01*
X140489618Y-53864725D01*
X140365653Y-54096646D01*
X140289317Y-54348294D01*
X140263541Y-54610000D01*
X136995736Y-54610000D01*
X136080499Y-53694764D01*
X136052659Y-53660841D01*
X135917291Y-53549747D01*
X135762851Y-53467197D01*
X135595274Y-53416364D01*
X135464667Y-53403500D01*
X135464660Y-53403500D01*
X135421000Y-53399200D01*
X135377340Y-53403500D01*
X134627272Y-53403500D01*
X134636185Y-53396185D01*
X134715537Y-53299494D01*
X134774502Y-53189180D01*
X134810812Y-53069482D01*
X134823072Y-52945000D01*
X134823072Y-51195000D01*
X134810812Y-51070518D01*
X134774502Y-50950820D01*
X134715537Y-50840506D01*
X134636185Y-50743815D01*
X134539494Y-50664463D01*
X134528647Y-50658665D01*
X138265000Y-50658665D01*
X138265000Y-50941335D01*
X138320147Y-51218574D01*
X138428320Y-51479727D01*
X138585363Y-51714759D01*
X138785241Y-51914637D01*
X139020273Y-52071680D01*
X139281426Y-52179853D01*
X139558665Y-52235000D01*
X139841335Y-52235000D01*
X140118574Y-52179853D01*
X140379727Y-52071680D01*
X140614759Y-51914637D01*
X140814637Y-51714759D01*
X140971680Y-51479727D01*
X141079853Y-51218574D01*
X141135000Y-50941335D01*
X141135000Y-50658665D01*
X141079853Y-50381426D01*
X140971680Y-50120273D01*
X140814637Y-49885241D01*
X140614759Y-49685363D01*
X140379727Y-49528320D01*
X140118574Y-49420147D01*
X139841335Y-49365000D01*
X139558665Y-49365000D01*
X139281426Y-49420147D01*
X139020273Y-49528320D01*
X138785241Y-49685363D01*
X138585363Y-49885241D01*
X138428320Y-50120273D01*
X138320147Y-50381426D01*
X138265000Y-50658665D01*
X134528647Y-50658665D01*
X134429180Y-50605498D01*
X134309482Y-50569188D01*
X134185000Y-50556928D01*
X132435000Y-50556928D01*
X132310518Y-50569188D01*
X132190820Y-50605498D01*
X132080506Y-50664463D01*
X131983815Y-50743815D01*
X131904463Y-50840506D01*
X131845498Y-50950820D01*
X131841026Y-50965564D01*
X131772569Y-50897107D01*
X131525253Y-50731856D01*
X131250451Y-50618029D01*
X130958722Y-50560000D01*
X130661278Y-50560000D01*
X130369549Y-50618029D01*
X130094747Y-50731856D01*
X129847431Y-50897107D01*
X129637107Y-51107431D01*
X129560000Y-51222830D01*
X129482893Y-51107431D01*
X129272569Y-50897107D01*
X129025253Y-50731856D01*
X128750451Y-50618029D01*
X128458722Y-50560000D01*
X128161278Y-50560000D01*
X127869549Y-50618029D01*
X127594747Y-50731856D01*
X127347431Y-50897107D01*
X127137107Y-51107431D01*
X126971856Y-51354747D01*
X126858029Y-51629549D01*
X126800000Y-51921278D01*
X126800000Y-52218722D01*
X126858029Y-52510451D01*
X126971856Y-52785253D01*
X127137107Y-53032569D01*
X127347431Y-53242893D01*
X127587797Y-53403500D01*
X125463235Y-53403500D01*
X123571407Y-51511672D01*
X123578959Y-51435000D01*
X123553183Y-51173294D01*
X123476847Y-50921646D01*
X123352882Y-50689725D01*
X123186055Y-50486445D01*
X122982775Y-50319618D01*
X122750854Y-50195653D01*
X122499206Y-50119317D01*
X122303079Y-50100000D01*
X122171921Y-50100000D01*
X121975794Y-50119317D01*
X121724146Y-50195653D01*
X121492225Y-50319618D01*
X121288945Y-50486445D01*
X121240070Y-50546000D01*
X119539307Y-50546000D01*
X119535812Y-50510518D01*
X119499502Y-50390820D01*
X119440537Y-50280506D01*
X119361185Y-50183815D01*
X119264494Y-50104463D01*
X119154180Y-50045498D01*
X119034482Y-50009188D01*
X118910000Y-49996928D01*
X117310000Y-49996928D01*
X117185518Y-50009188D01*
X117065820Y-50045498D01*
X116955506Y-50104463D01*
X116858815Y-50183815D01*
X116779463Y-50280506D01*
X116720498Y-50390820D01*
X116691339Y-50486943D01*
X116524759Y-50320363D01*
X116289727Y-50163320D01*
X116180321Y-50118003D01*
X116106291Y-50057248D01*
X115951852Y-49974698D01*
X115784275Y-49923864D01*
X115610000Y-49906699D01*
X115435726Y-49923864D01*
X115374632Y-49942397D01*
X115062999Y-49630764D01*
X115035159Y-49596841D01*
X114899791Y-49485747D01*
X114745351Y-49403197D01*
X114577774Y-49352364D01*
X114447167Y-49339500D01*
X114447160Y-49339500D01*
X114403500Y-49335200D01*
X114359840Y-49339500D01*
X106295659Y-49339500D01*
X106251999Y-49335200D01*
X106208339Y-49339500D01*
X106208333Y-49339500D01*
X106110924Y-49349094D01*
X106077724Y-49352364D01*
X105976058Y-49383204D01*
X105910149Y-49403197D01*
X105755709Y-49485747D01*
X105620341Y-49596841D01*
X105592501Y-49630764D01*
X104646003Y-50577262D01*
X104559222Y-50560000D01*
X104261778Y-50560000D01*
X103970049Y-50618029D01*
X103695247Y-50731856D01*
X103447931Y-50897107D01*
X103237607Y-51107431D01*
X103072356Y-51354747D01*
X102958529Y-51629549D01*
X102900500Y-51921278D01*
X102260000Y-51921278D01*
X102260000Y-48920000D01*
X158090000Y-48920000D01*
X158090001Y-83160000D01*
M02*
