G04 #@! TF.GenerationSoftware,KiCad,Pcbnew,(5.1.2-1)-1*
G04 #@! TF.CreationDate,2019-07-09T09:57:47-07:00*
G04 #@! TF.ProjectId,ProCoRat,50726f43-6f52-4617-942e-6b696361645f,1.0*
G04 #@! TF.SameCoordinates,Original*
G04 #@! TF.FileFunction,Soldermask,Top*
G04 #@! TF.FilePolarity,Negative*
%FSLAX46Y46*%
G04 Gerber Fmt 4.6, Leading zero omitted, Abs format (unit mm)*
G04 Created by KiCad (PCBNEW (5.1.2-1)-1) date 2019-07-09 09:57:47*
%MOMM*%
%LPD*%
G04 APERTURE LIST*
%ADD10C,0.100000*%
G04 APERTURE END LIST*
D10*
G36*
X136436971Y-99930204D02*
G01*
X136598871Y-99962408D01*
X136903883Y-100088748D01*
X137178387Y-100272166D01*
X137411834Y-100505613D01*
X137595252Y-100780117D01*
X137721592Y-101085129D01*
X137786000Y-101408928D01*
X137786000Y-101739072D01*
X137721592Y-102062871D01*
X137595252Y-102367883D01*
X137411834Y-102642387D01*
X137178387Y-102875834D01*
X136903883Y-103059252D01*
X136598871Y-103185592D01*
X136436971Y-103217796D01*
X136275073Y-103250000D01*
X135944927Y-103250000D01*
X135783029Y-103217796D01*
X135621129Y-103185592D01*
X135316117Y-103059252D01*
X135041613Y-102875834D01*
X134808166Y-102642387D01*
X134624748Y-102367883D01*
X134498408Y-102062871D01*
X134434000Y-101739072D01*
X134434000Y-101408928D01*
X134498408Y-101085129D01*
X134624748Y-100780117D01*
X134808166Y-100505613D01*
X135041613Y-100272166D01*
X135316117Y-100088748D01*
X135621129Y-99962408D01*
X135783029Y-99930204D01*
X135944927Y-99898000D01*
X136275073Y-99898000D01*
X136436971Y-99930204D01*
X136436971Y-99930204D01*
G37*
G36*
X131136971Y-99930204D02*
G01*
X131298871Y-99962408D01*
X131603883Y-100088748D01*
X131878387Y-100272166D01*
X132111834Y-100505613D01*
X132295252Y-100780117D01*
X132421592Y-101085129D01*
X132486000Y-101408928D01*
X132486000Y-101739072D01*
X132421592Y-102062871D01*
X132295252Y-102367883D01*
X132111834Y-102642387D01*
X131878387Y-102875834D01*
X131603883Y-103059252D01*
X131298871Y-103185592D01*
X131136971Y-103217796D01*
X130975073Y-103250000D01*
X130644927Y-103250000D01*
X130483029Y-103217796D01*
X130321129Y-103185592D01*
X130016117Y-103059252D01*
X129741613Y-102875834D01*
X129508166Y-102642387D01*
X129324748Y-102367883D01*
X129198408Y-102062871D01*
X129134000Y-101739072D01*
X129134000Y-101408928D01*
X129198408Y-101085129D01*
X129324748Y-100780117D01*
X129508166Y-100505613D01*
X129741613Y-100272166D01*
X130016117Y-100088748D01*
X130321129Y-99962408D01*
X130483029Y-99930204D01*
X130644927Y-99898000D01*
X130975073Y-99898000D01*
X131136971Y-99930204D01*
X131136971Y-99930204D01*
G37*
G36*
X125836971Y-99930204D02*
G01*
X125998871Y-99962408D01*
X126303883Y-100088748D01*
X126578387Y-100272166D01*
X126811834Y-100505613D01*
X126995252Y-100780117D01*
X127121592Y-101085129D01*
X127186000Y-101408928D01*
X127186000Y-101739072D01*
X127121592Y-102062871D01*
X126995252Y-102367883D01*
X126811834Y-102642387D01*
X126578387Y-102875834D01*
X126303883Y-103059252D01*
X125998871Y-103185592D01*
X125836971Y-103217796D01*
X125675073Y-103250000D01*
X125344927Y-103250000D01*
X125183029Y-103217796D01*
X125021129Y-103185592D01*
X124716117Y-103059252D01*
X124441613Y-102875834D01*
X124208166Y-102642387D01*
X124024748Y-102367883D01*
X123898408Y-102062871D01*
X123834000Y-101739072D01*
X123834000Y-101408928D01*
X123898408Y-101085129D01*
X124024748Y-100780117D01*
X124208166Y-100505613D01*
X124441613Y-100272166D01*
X124716117Y-100088748D01*
X125021129Y-99962408D01*
X125183029Y-99930204D01*
X125344927Y-99898000D01*
X125675073Y-99898000D01*
X125836971Y-99930204D01*
X125836971Y-99930204D01*
G37*
G36*
X126035331Y-95042211D02*
G01*
X126363092Y-95177974D01*
X126658070Y-95375072D01*
X126908928Y-95625930D01*
X127106026Y-95920907D01*
X127241789Y-96248668D01*
X127311000Y-96596616D01*
X127311000Y-96951383D01*
X127241789Y-97299331D01*
X127106026Y-97627092D01*
X126908928Y-97922070D01*
X126658070Y-98172928D01*
X126363092Y-98370026D01*
X126035331Y-98505789D01*
X125687384Y-98575000D01*
X125332616Y-98575000D01*
X124984669Y-98505789D01*
X124656908Y-98370026D01*
X124361930Y-98172928D01*
X124111072Y-97922070D01*
X123913974Y-97627092D01*
X123778211Y-97299331D01*
X123709000Y-96951383D01*
X123709000Y-96596616D01*
X123778211Y-96248668D01*
X123913974Y-95920907D01*
X124111072Y-95625930D01*
X124361930Y-95375072D01*
X124656908Y-95177974D01*
X124984669Y-95042211D01*
X125332616Y-94973000D01*
X125687384Y-94973000D01*
X126035331Y-95042211D01*
X126035331Y-95042211D01*
G37*
G36*
X131136971Y-95130204D02*
G01*
X131298871Y-95162408D01*
X131603883Y-95288748D01*
X131878387Y-95472166D01*
X132111834Y-95705613D01*
X132295252Y-95980117D01*
X132421592Y-96285129D01*
X132486000Y-96608928D01*
X132486000Y-96939072D01*
X132421592Y-97262871D01*
X132295252Y-97567883D01*
X132111834Y-97842387D01*
X131878387Y-98075834D01*
X131603883Y-98259252D01*
X131298871Y-98385592D01*
X130975073Y-98450000D01*
X130644927Y-98450000D01*
X130483029Y-98417796D01*
X130321129Y-98385592D01*
X130016117Y-98259252D01*
X129741613Y-98075834D01*
X129508166Y-97842387D01*
X129324748Y-97567883D01*
X129198408Y-97262871D01*
X129134000Y-96939072D01*
X129134000Y-96608928D01*
X129198408Y-96285129D01*
X129324748Y-95980117D01*
X129508166Y-95705613D01*
X129741613Y-95472166D01*
X130016117Y-95288748D01*
X130321129Y-95162408D01*
X130644927Y-95098000D01*
X130975073Y-95098000D01*
X131136971Y-95130204D01*
X131136971Y-95130204D01*
G37*
G36*
X136436971Y-95130204D02*
G01*
X136598871Y-95162408D01*
X136903883Y-95288748D01*
X137178387Y-95472166D01*
X137411834Y-95705613D01*
X137595252Y-95980117D01*
X137721592Y-96285129D01*
X137786000Y-96608928D01*
X137786000Y-96939072D01*
X137721592Y-97262871D01*
X137595252Y-97567883D01*
X137411834Y-97842387D01*
X137178387Y-98075834D01*
X136903883Y-98259252D01*
X136598871Y-98385592D01*
X136275073Y-98450000D01*
X135944927Y-98450000D01*
X135783029Y-98417796D01*
X135621129Y-98385592D01*
X135316117Y-98259252D01*
X135041613Y-98075834D01*
X134808166Y-97842387D01*
X134624748Y-97567883D01*
X134498408Y-97262871D01*
X134434000Y-96939072D01*
X134434000Y-96608928D01*
X134498408Y-96285129D01*
X134624748Y-95980117D01*
X134808166Y-95705613D01*
X135041613Y-95472166D01*
X135316117Y-95288748D01*
X135621129Y-95162408D01*
X135944927Y-95098000D01*
X136275073Y-95098000D01*
X136436971Y-95130204D01*
X136436971Y-95130204D01*
G37*
G36*
X125836971Y-90330204D02*
G01*
X125998871Y-90362408D01*
X126303883Y-90488748D01*
X126578387Y-90672166D01*
X126811834Y-90905613D01*
X126995252Y-91180117D01*
X127121592Y-91485129D01*
X127186000Y-91808928D01*
X127186000Y-92139072D01*
X127121592Y-92462871D01*
X126995252Y-92767883D01*
X126811834Y-93042387D01*
X126578387Y-93275834D01*
X126303883Y-93459252D01*
X125998871Y-93585592D01*
X125836971Y-93617796D01*
X125675073Y-93650000D01*
X125344927Y-93650000D01*
X125183029Y-93617796D01*
X125021129Y-93585592D01*
X124716117Y-93459252D01*
X124441613Y-93275834D01*
X124208166Y-93042387D01*
X124024748Y-92767883D01*
X123898408Y-92462871D01*
X123834000Y-92139072D01*
X123834000Y-91808928D01*
X123898408Y-91485129D01*
X124024748Y-91180117D01*
X124208166Y-90905613D01*
X124441613Y-90672166D01*
X124716117Y-90488748D01*
X125021129Y-90362408D01*
X125183029Y-90330204D01*
X125344927Y-90298000D01*
X125675073Y-90298000D01*
X125836971Y-90330204D01*
X125836971Y-90330204D01*
G37*
G36*
X131136971Y-90330204D02*
G01*
X131298871Y-90362408D01*
X131603883Y-90488748D01*
X131878387Y-90672166D01*
X132111834Y-90905613D01*
X132295252Y-91180117D01*
X132421592Y-91485129D01*
X132486000Y-91808928D01*
X132486000Y-92139072D01*
X132421592Y-92462871D01*
X132295252Y-92767883D01*
X132111834Y-93042387D01*
X131878387Y-93275834D01*
X131603883Y-93459252D01*
X131298871Y-93585592D01*
X131136971Y-93617796D01*
X130975073Y-93650000D01*
X130644927Y-93650000D01*
X130483029Y-93617796D01*
X130321129Y-93585592D01*
X130016117Y-93459252D01*
X129741613Y-93275834D01*
X129508166Y-93042387D01*
X129324748Y-92767883D01*
X129198408Y-92462871D01*
X129134000Y-92139072D01*
X129134000Y-91808928D01*
X129198408Y-91485129D01*
X129324748Y-91180117D01*
X129508166Y-90905613D01*
X129741613Y-90672166D01*
X130016117Y-90488748D01*
X130321129Y-90362408D01*
X130483029Y-90330204D01*
X130644927Y-90298000D01*
X130975073Y-90298000D01*
X131136971Y-90330204D01*
X131136971Y-90330204D01*
G37*
G36*
X136436971Y-90330204D02*
G01*
X136598871Y-90362408D01*
X136903883Y-90488748D01*
X137178387Y-90672166D01*
X137411834Y-90905613D01*
X137595252Y-91180117D01*
X137721592Y-91485129D01*
X137786000Y-91808928D01*
X137786000Y-92139072D01*
X137721592Y-92462871D01*
X137595252Y-92767883D01*
X137411834Y-93042387D01*
X137178387Y-93275834D01*
X136903883Y-93459252D01*
X136598871Y-93585592D01*
X136436971Y-93617796D01*
X136275073Y-93650000D01*
X135944927Y-93650000D01*
X135783029Y-93617796D01*
X135621129Y-93585592D01*
X135316117Y-93459252D01*
X135041613Y-93275834D01*
X134808166Y-93042387D01*
X134624748Y-92767883D01*
X134498408Y-92462871D01*
X134434000Y-92139072D01*
X134434000Y-91808928D01*
X134498408Y-91485129D01*
X134624748Y-91180117D01*
X134808166Y-90905613D01*
X135041613Y-90672166D01*
X135316117Y-90488748D01*
X135621129Y-90362408D01*
X135783029Y-90330204D01*
X135944927Y-90298000D01*
X136275073Y-90298000D01*
X136436971Y-90330204D01*
X136436971Y-90330204D01*
G37*
G36*
X140299000Y-86800000D02*
G01*
X138847000Y-86800000D01*
X138847000Y-85348000D01*
X140299000Y-85348000D01*
X140299000Y-86800000D01*
X140299000Y-86800000D01*
G37*
G36*
X123027000Y-86768500D02*
G01*
X121575000Y-86768500D01*
X121575000Y-85316500D01*
X123027000Y-85316500D01*
X123027000Y-86768500D01*
X123027000Y-86768500D01*
G37*
G36*
X133158000Y-85660000D02*
G01*
X131256000Y-85660000D01*
X131256000Y-83758000D01*
X133158000Y-83758000D01*
X133158000Y-85660000D01*
X133158000Y-85660000D01*
G37*
G36*
X129944395Y-83794546D02*
G01*
X130117466Y-83866234D01*
X130117467Y-83866235D01*
X130273227Y-83970310D01*
X130405690Y-84102773D01*
X130405691Y-84102775D01*
X130509766Y-84258534D01*
X130581454Y-84431605D01*
X130618000Y-84615333D01*
X130618000Y-84802667D01*
X130581454Y-84986395D01*
X130509766Y-85159466D01*
X130509765Y-85159467D01*
X130405690Y-85315227D01*
X130273227Y-85447690D01*
X130194818Y-85500081D01*
X130117466Y-85551766D01*
X129944395Y-85623454D01*
X129760667Y-85660000D01*
X129573333Y-85660000D01*
X129389605Y-85623454D01*
X129216534Y-85551766D01*
X129139182Y-85500081D01*
X129060773Y-85447690D01*
X128928310Y-85315227D01*
X128824235Y-85159467D01*
X128824234Y-85159466D01*
X128752546Y-84986395D01*
X128716000Y-84802667D01*
X128716000Y-84615333D01*
X128752546Y-84431605D01*
X128824234Y-84258534D01*
X128928309Y-84102775D01*
X128928310Y-84102773D01*
X129060773Y-83970310D01*
X129216533Y-83866235D01*
X129216534Y-83866234D01*
X129389605Y-83794546D01*
X129573333Y-83758000D01*
X129760667Y-83758000D01*
X129944395Y-83794546D01*
X129944395Y-83794546D01*
G37*
G36*
X126692665Y-83961622D02*
G01*
X126766222Y-83968867D01*
X126907786Y-84011810D01*
X127038252Y-84081546D01*
X127068040Y-84105992D01*
X127152607Y-84175393D01*
X127220837Y-84258534D01*
X127246454Y-84289748D01*
X127316190Y-84420214D01*
X127359133Y-84561778D01*
X127373633Y-84709000D01*
X127359133Y-84856222D01*
X127316190Y-84997786D01*
X127246454Y-85128252D01*
X127222008Y-85158040D01*
X127152607Y-85242607D01*
X127068040Y-85312008D01*
X127038252Y-85336454D01*
X126907786Y-85406190D01*
X126766222Y-85449133D01*
X126692665Y-85456378D01*
X126655888Y-85460000D01*
X126582112Y-85460000D01*
X126545335Y-85456378D01*
X126471778Y-85449133D01*
X126330214Y-85406190D01*
X126199748Y-85336454D01*
X126169960Y-85312008D01*
X126085393Y-85242607D01*
X126015992Y-85158040D01*
X125991546Y-85128252D01*
X125921810Y-84997786D01*
X125878867Y-84856222D01*
X125864367Y-84709000D01*
X125878867Y-84561778D01*
X125921810Y-84420214D01*
X125991546Y-84289748D01*
X126017163Y-84258534D01*
X126085393Y-84175393D01*
X126169960Y-84105992D01*
X126199748Y-84081546D01*
X126330214Y-84011810D01*
X126471778Y-83968867D01*
X126545335Y-83961622D01*
X126582112Y-83958000D01*
X126655888Y-83958000D01*
X126692665Y-83961622D01*
X126692665Y-83961622D01*
G37*
G36*
X139644213Y-83351502D02*
G01*
X139715321Y-83358505D01*
X139852172Y-83400019D01*
X139852175Y-83400020D01*
X139978294Y-83467432D01*
X140088843Y-83558157D01*
X140179568Y-83668706D01*
X140246980Y-83794825D01*
X140246981Y-83794828D01*
X140288495Y-83931679D01*
X140302512Y-84074000D01*
X140288495Y-84216321D01*
X140246981Y-84353172D01*
X140246980Y-84353175D01*
X140179568Y-84479294D01*
X140088843Y-84589843D01*
X139978294Y-84680568D01*
X139852175Y-84747980D01*
X139852172Y-84747981D01*
X139715321Y-84789495D01*
X139644213Y-84796498D01*
X139608660Y-84800000D01*
X139537340Y-84800000D01*
X139501787Y-84796498D01*
X139430679Y-84789495D01*
X139293828Y-84747981D01*
X139293825Y-84747980D01*
X139167706Y-84680568D01*
X139057157Y-84589843D01*
X138966432Y-84479294D01*
X138899020Y-84353175D01*
X138899019Y-84353172D01*
X138857505Y-84216321D01*
X138843488Y-84074000D01*
X138857505Y-83931679D01*
X138899019Y-83794828D01*
X138899020Y-83794825D01*
X138966432Y-83668706D01*
X139057157Y-83558157D01*
X139167706Y-83467432D01*
X139293825Y-83400020D01*
X139293828Y-83400019D01*
X139430679Y-83358505D01*
X139501787Y-83351502D01*
X139537340Y-83348000D01*
X139608660Y-83348000D01*
X139644213Y-83351502D01*
X139644213Y-83351502D01*
G37*
G36*
X122372213Y-83320002D02*
G01*
X122443321Y-83327005D01*
X122580172Y-83368519D01*
X122580175Y-83368520D01*
X122706294Y-83435932D01*
X122816843Y-83526657D01*
X122907568Y-83637206D01*
X122974980Y-83763325D01*
X122974981Y-83763328D01*
X123016495Y-83900179D01*
X123030512Y-84042500D01*
X123016495Y-84184821D01*
X122974981Y-84321672D01*
X122974980Y-84321675D01*
X122907568Y-84447794D01*
X122816843Y-84558343D01*
X122706294Y-84649068D01*
X122580175Y-84716480D01*
X122580172Y-84716481D01*
X122443321Y-84757995D01*
X122372213Y-84764998D01*
X122336660Y-84768500D01*
X122265340Y-84768500D01*
X122229787Y-84764998D01*
X122158679Y-84757995D01*
X122021828Y-84716481D01*
X122021825Y-84716480D01*
X121895706Y-84649068D01*
X121785157Y-84558343D01*
X121694432Y-84447794D01*
X121627020Y-84321675D01*
X121627019Y-84321672D01*
X121585505Y-84184821D01*
X121571488Y-84042500D01*
X121585505Y-83900179D01*
X121627019Y-83763328D01*
X121627020Y-83763325D01*
X121694432Y-83637206D01*
X121785157Y-83526657D01*
X121895706Y-83435932D01*
X122021825Y-83368520D01*
X122021828Y-83368519D01*
X122158679Y-83327005D01*
X122229787Y-83320002D01*
X122265340Y-83316500D01*
X122336660Y-83316500D01*
X122372213Y-83320002D01*
X122372213Y-83320002D01*
G37*
G36*
X156218000Y-82812000D02*
G01*
X153916000Y-82812000D01*
X153916000Y-80510000D01*
X156218000Y-80510000D01*
X156218000Y-82812000D01*
X156218000Y-82812000D01*
G37*
G36*
X147616271Y-80521103D02*
G01*
X147672635Y-80526654D01*
X147889600Y-80592470D01*
X147889602Y-80592471D01*
X148089555Y-80699347D01*
X148264818Y-80843182D01*
X148408653Y-81018445D01*
X148456243Y-81107481D01*
X148515530Y-81218400D01*
X148581346Y-81435365D01*
X148581346Y-81435366D01*
X148603569Y-81661000D01*
X148581346Y-81886634D01*
X148515529Y-82103602D01*
X148408653Y-82303555D01*
X148264818Y-82478818D01*
X148089555Y-82622653D01*
X147889602Y-82729529D01*
X147889600Y-82729530D01*
X147672635Y-82795346D01*
X147616271Y-82800897D01*
X147503545Y-82812000D01*
X147390455Y-82812000D01*
X147277729Y-82800897D01*
X147221365Y-82795346D01*
X147004400Y-82729530D01*
X147004398Y-82729529D01*
X146804445Y-82622653D01*
X146629182Y-82478818D01*
X146485347Y-82303555D01*
X146378471Y-82103602D01*
X146312654Y-81886634D01*
X146290431Y-81661000D01*
X146312654Y-81435366D01*
X146312654Y-81435365D01*
X146378470Y-81218400D01*
X146437757Y-81107481D01*
X146485347Y-81018445D01*
X146629182Y-80843182D01*
X146804445Y-80699347D01*
X147004398Y-80592471D01*
X147004400Y-80592470D01*
X147221365Y-80526654D01*
X147277729Y-80521103D01*
X147390455Y-80510000D01*
X147503545Y-80510000D01*
X147616271Y-80521103D01*
X147616271Y-80521103D01*
G37*
G36*
X106928228Y-79746703D02*
G01*
X107083100Y-79810853D01*
X107222481Y-79903985D01*
X107341015Y-80022519D01*
X107434147Y-80161900D01*
X107498297Y-80316772D01*
X107531000Y-80481184D01*
X107531000Y-80648816D01*
X107498297Y-80813228D01*
X107434147Y-80968100D01*
X107341015Y-81107481D01*
X107222481Y-81226015D01*
X107083100Y-81319147D01*
X106928228Y-81383297D01*
X106763816Y-81416000D01*
X106596184Y-81416000D01*
X106431772Y-81383297D01*
X106276900Y-81319147D01*
X106137519Y-81226015D01*
X106018985Y-81107481D01*
X105925853Y-80968100D01*
X105861703Y-80813228D01*
X105829000Y-80648816D01*
X105829000Y-80481184D01*
X105861703Y-80316772D01*
X105925853Y-80161900D01*
X106018985Y-80022519D01*
X106137519Y-79903985D01*
X106276900Y-79810853D01*
X106431772Y-79746703D01*
X106596184Y-79714000D01*
X106763816Y-79714000D01*
X106928228Y-79746703D01*
X106928228Y-79746703D01*
G37*
G36*
X138344228Y-79255203D02*
G01*
X138499100Y-79319353D01*
X138638481Y-79412485D01*
X138757015Y-79531019D01*
X138850147Y-79670400D01*
X138914297Y-79825272D01*
X138947000Y-79989684D01*
X138947000Y-80157316D01*
X138914297Y-80321728D01*
X138850147Y-80476600D01*
X138757015Y-80615981D01*
X138638481Y-80734515D01*
X138499100Y-80827647D01*
X138344228Y-80891797D01*
X138179816Y-80924500D01*
X138012184Y-80924500D01*
X137847772Y-80891797D01*
X137692900Y-80827647D01*
X137553519Y-80734515D01*
X137434985Y-80615981D01*
X137341853Y-80476600D01*
X137277703Y-80321728D01*
X137245000Y-80157316D01*
X137245000Y-79989684D01*
X137277703Y-79825272D01*
X137341853Y-79670400D01*
X137434985Y-79531019D01*
X137553519Y-79412485D01*
X137692900Y-79319353D01*
X137847772Y-79255203D01*
X138012184Y-79222500D01*
X138179816Y-79222500D01*
X138344228Y-79255203D01*
X138344228Y-79255203D01*
G37*
G36*
X133344228Y-79255203D02*
G01*
X133499100Y-79319353D01*
X133638481Y-79412485D01*
X133757015Y-79531019D01*
X133850147Y-79670400D01*
X133914297Y-79825272D01*
X133947000Y-79989684D01*
X133947000Y-80157316D01*
X133914297Y-80321728D01*
X133850147Y-80476600D01*
X133757015Y-80615981D01*
X133638481Y-80734515D01*
X133499100Y-80827647D01*
X133344228Y-80891797D01*
X133179816Y-80924500D01*
X133012184Y-80924500D01*
X132847772Y-80891797D01*
X132692900Y-80827647D01*
X132553519Y-80734515D01*
X132434985Y-80615981D01*
X132341853Y-80476600D01*
X132277703Y-80321728D01*
X132245000Y-80157316D01*
X132245000Y-79989684D01*
X132277703Y-79825272D01*
X132341853Y-79670400D01*
X132434985Y-79531019D01*
X132553519Y-79412485D01*
X132692900Y-79319353D01*
X132847772Y-79255203D01*
X133012184Y-79222500D01*
X133179816Y-79222500D01*
X133344228Y-79255203D01*
X133344228Y-79255203D01*
G37*
G36*
X126838059Y-78906860D02*
G01*
X126974732Y-78963472D01*
X127097735Y-79045660D01*
X127202340Y-79150265D01*
X127284528Y-79273268D01*
X127284529Y-79273270D01*
X127341140Y-79409941D01*
X127370000Y-79555032D01*
X127370000Y-79702968D01*
X127361301Y-79746703D01*
X127341140Y-79848059D01*
X127284528Y-79984732D01*
X127202340Y-80107735D01*
X127097735Y-80212340D01*
X126974732Y-80294528D01*
X126974731Y-80294529D01*
X126974730Y-80294529D01*
X126838059Y-80351140D01*
X126692968Y-80380000D01*
X126545032Y-80380000D01*
X126399941Y-80351140D01*
X126263270Y-80294529D01*
X126263269Y-80294529D01*
X126263268Y-80294528D01*
X126140265Y-80212340D01*
X126035660Y-80107735D01*
X125953472Y-79984732D01*
X125896860Y-79848059D01*
X125876699Y-79746703D01*
X125868000Y-79702968D01*
X125868000Y-79555032D01*
X125896860Y-79409941D01*
X125953471Y-79273270D01*
X125953472Y-79273268D01*
X126035660Y-79150265D01*
X126140265Y-79045660D01*
X126263268Y-78963472D01*
X126399941Y-78906860D01*
X126545032Y-78878000D01*
X126692968Y-78878000D01*
X126838059Y-78906860D01*
X126838059Y-78906860D01*
G37*
G36*
X112008228Y-77921703D02*
G01*
X112163100Y-77985853D01*
X112302481Y-78078985D01*
X112421015Y-78197519D01*
X112514147Y-78336900D01*
X112578297Y-78491772D01*
X112611000Y-78656184D01*
X112611000Y-78823816D01*
X112578297Y-78988228D01*
X112514147Y-79143100D01*
X112421015Y-79282481D01*
X112302481Y-79401015D01*
X112163100Y-79494147D01*
X112008228Y-79558297D01*
X111843816Y-79591000D01*
X111676184Y-79591000D01*
X111511772Y-79558297D01*
X111356900Y-79494147D01*
X111217519Y-79401015D01*
X111098985Y-79282481D01*
X111005853Y-79143100D01*
X110941703Y-78988228D01*
X110909000Y-78823816D01*
X110909000Y-78656184D01*
X110941703Y-78491772D01*
X111005853Y-78336900D01*
X111098985Y-78197519D01*
X111217519Y-78078985D01*
X111356900Y-77985853D01*
X111511772Y-77921703D01*
X111676184Y-77889000D01*
X111843816Y-77889000D01*
X112008228Y-77921703D01*
X112008228Y-77921703D01*
G37*
G36*
X115111000Y-79591000D02*
G01*
X113409000Y-79591000D01*
X113409000Y-77889000D01*
X115111000Y-77889000D01*
X115111000Y-79591000D01*
X115111000Y-79591000D01*
G37*
G36*
X118202059Y-78017860D02*
G01*
X118262294Y-78042810D01*
X118338732Y-78074472D01*
X118461735Y-78156660D01*
X118566340Y-78261265D01*
X118648528Y-78384268D01*
X118648529Y-78384270D01*
X118705140Y-78520941D01*
X118721890Y-78605148D01*
X118734000Y-78666033D01*
X118734000Y-78813967D01*
X118705140Y-78959059D01*
X118648528Y-79095732D01*
X118566340Y-79218735D01*
X118461735Y-79323340D01*
X118338732Y-79405528D01*
X118338731Y-79405529D01*
X118338730Y-79405529D01*
X118202059Y-79462140D01*
X118056968Y-79491000D01*
X117909032Y-79491000D01*
X117763941Y-79462140D01*
X117627270Y-79405529D01*
X117627269Y-79405529D01*
X117627268Y-79405528D01*
X117504265Y-79323340D01*
X117399660Y-79218735D01*
X117317472Y-79095732D01*
X117260860Y-78959059D01*
X117232000Y-78813967D01*
X117232000Y-78666033D01*
X117244111Y-78605148D01*
X117260860Y-78520941D01*
X117317471Y-78384270D01*
X117317472Y-78384268D01*
X117399660Y-78261265D01*
X117504265Y-78156660D01*
X117627268Y-78074472D01*
X117703707Y-78042810D01*
X117763941Y-78017860D01*
X117909032Y-77989000D01*
X118056968Y-77989000D01*
X118202059Y-78017860D01*
X118202059Y-78017860D01*
G37*
G36*
X123136665Y-77992622D02*
G01*
X123210222Y-77999867D01*
X123351786Y-78042810D01*
X123482252Y-78112546D01*
X123512040Y-78136992D01*
X123596607Y-78206393D01*
X123666008Y-78290960D01*
X123690454Y-78320748D01*
X123760190Y-78451214D01*
X123803133Y-78592778D01*
X123817633Y-78740000D01*
X123803133Y-78887222D01*
X123760190Y-79028786D01*
X123690454Y-79159252D01*
X123666008Y-79189040D01*
X123596607Y-79273607D01*
X123536004Y-79323341D01*
X123482252Y-79367454D01*
X123482250Y-79367455D01*
X123398006Y-79412485D01*
X123351786Y-79437190D01*
X123210222Y-79480133D01*
X123136665Y-79487378D01*
X123099888Y-79491000D01*
X123026112Y-79491000D01*
X122989335Y-79487378D01*
X122915778Y-79480133D01*
X122774214Y-79437190D01*
X122727995Y-79412485D01*
X122643750Y-79367455D01*
X122643748Y-79367454D01*
X122589996Y-79323341D01*
X122529393Y-79273607D01*
X122459992Y-79189040D01*
X122435546Y-79159252D01*
X122365810Y-79028786D01*
X122322867Y-78887222D01*
X122308367Y-78740000D01*
X122322867Y-78592778D01*
X122365810Y-78451214D01*
X122435546Y-78320748D01*
X122459992Y-78290960D01*
X122529393Y-78206393D01*
X122613960Y-78136992D01*
X122643748Y-78112546D01*
X122774214Y-78042810D01*
X122915778Y-77999867D01*
X122989335Y-77992622D01*
X123026112Y-77989000D01*
X123099888Y-77989000D01*
X123136665Y-77992622D01*
X123136665Y-77992622D01*
G37*
G36*
X152695228Y-77032703D02*
G01*
X152850100Y-77096853D01*
X152989481Y-77189985D01*
X153108015Y-77308519D01*
X153201147Y-77447900D01*
X153265297Y-77602772D01*
X153298000Y-77767184D01*
X153298000Y-77934816D01*
X153265297Y-78099228D01*
X153201147Y-78254100D01*
X153108015Y-78393481D01*
X152989481Y-78512015D01*
X152850100Y-78605147D01*
X152695228Y-78669297D01*
X152530816Y-78702000D01*
X152363184Y-78702000D01*
X152198772Y-78669297D01*
X152043900Y-78605147D01*
X151904519Y-78512015D01*
X151785985Y-78393481D01*
X151692853Y-78254100D01*
X151628703Y-78099228D01*
X151596000Y-77934816D01*
X151596000Y-77767184D01*
X151628703Y-77602772D01*
X151692853Y-77447900D01*
X151785985Y-77308519D01*
X151904519Y-77189985D01*
X152043900Y-77096853D01*
X152198772Y-77032703D01*
X152363184Y-77000000D01*
X152530816Y-77000000D01*
X152695228Y-77032703D01*
X152695228Y-77032703D01*
G37*
G36*
X147695228Y-77032703D02*
G01*
X147850100Y-77096853D01*
X147989481Y-77189985D01*
X148108015Y-77308519D01*
X148201147Y-77447900D01*
X148265297Y-77602772D01*
X148298000Y-77767184D01*
X148298000Y-77934816D01*
X148265297Y-78099228D01*
X148201147Y-78254100D01*
X148108015Y-78393481D01*
X147989481Y-78512015D01*
X147850100Y-78605147D01*
X147695228Y-78669297D01*
X147530816Y-78702000D01*
X147363184Y-78702000D01*
X147198772Y-78669297D01*
X147043900Y-78605147D01*
X146904519Y-78512015D01*
X146785985Y-78393481D01*
X146692853Y-78254100D01*
X146628703Y-78099228D01*
X146596000Y-77934816D01*
X146596000Y-77767184D01*
X146628703Y-77602772D01*
X146692853Y-77447900D01*
X146785985Y-77308519D01*
X146904519Y-77189985D01*
X147043900Y-77096853D01*
X147198772Y-77032703D01*
X147363184Y-77000000D01*
X147530816Y-77000000D01*
X147695228Y-77032703D01*
X147695228Y-77032703D01*
G37*
G36*
X136456823Y-75361313D02*
G01*
X136587380Y-75400917D01*
X136613145Y-75408733D01*
X136617242Y-75409976D01*
X136717578Y-75463607D01*
X136765078Y-75488996D01*
X136894659Y-75595341D01*
X137001004Y-75724922D01*
X137001005Y-75724924D01*
X137080024Y-75872758D01*
X137128687Y-76033177D01*
X137145117Y-76200000D01*
X137128687Y-76366823D01*
X137080024Y-76527242D01*
X137039477Y-76603100D01*
X137001004Y-76675078D01*
X136894659Y-76804659D01*
X136765078Y-76911004D01*
X136765076Y-76911005D01*
X136617242Y-76990024D01*
X136456823Y-77038687D01*
X136331804Y-77051000D01*
X135448196Y-77051000D01*
X135323177Y-77038687D01*
X135162758Y-76990024D01*
X135014924Y-76911005D01*
X135014922Y-76911004D01*
X134885341Y-76804659D01*
X134778996Y-76675078D01*
X134740523Y-76603100D01*
X134699976Y-76527242D01*
X134651313Y-76366823D01*
X134634883Y-76200000D01*
X134651313Y-76033177D01*
X134699976Y-75872758D01*
X134778995Y-75724924D01*
X134778996Y-75724922D01*
X134885341Y-75595341D01*
X135014922Y-75488996D01*
X135062422Y-75463607D01*
X135162758Y-75409976D01*
X135166856Y-75408733D01*
X135192620Y-75400917D01*
X135323177Y-75361313D01*
X135448196Y-75349000D01*
X136331804Y-75349000D01*
X136456823Y-75361313D01*
X136456823Y-75361313D01*
G37*
G36*
X142488228Y-75381703D02*
G01*
X142643100Y-75445853D01*
X142782481Y-75538985D01*
X142901015Y-75657519D01*
X142994147Y-75796900D01*
X143058297Y-75951772D01*
X143091000Y-76116184D01*
X143091000Y-76283816D01*
X143058297Y-76448228D01*
X142994147Y-76603100D01*
X142901015Y-76742481D01*
X142782481Y-76861015D01*
X142643100Y-76954147D01*
X142488228Y-77018297D01*
X142323816Y-77051000D01*
X142156184Y-77051000D01*
X141991772Y-77018297D01*
X141836900Y-76954147D01*
X141697519Y-76861015D01*
X141578985Y-76742481D01*
X141485853Y-76603100D01*
X141421703Y-76448228D01*
X141389000Y-76283816D01*
X141389000Y-76116184D01*
X141421703Y-75951772D01*
X141485853Y-75796900D01*
X141578985Y-75657519D01*
X141697519Y-75538985D01*
X141836900Y-75445853D01*
X141991772Y-75381703D01*
X142156184Y-75349000D01*
X142323816Y-75349000D01*
X142488228Y-75381703D01*
X142488228Y-75381703D01*
G37*
G36*
X140591000Y-77051000D02*
G01*
X138889000Y-77051000D01*
X138889000Y-75349000D01*
X140591000Y-75349000D01*
X140591000Y-77051000D01*
X140591000Y-77051000D01*
G37*
G36*
X128836823Y-75361313D02*
G01*
X128967380Y-75400917D01*
X128993145Y-75408733D01*
X128997242Y-75409976D01*
X129097578Y-75463607D01*
X129145078Y-75488996D01*
X129274659Y-75595341D01*
X129381004Y-75724922D01*
X129381005Y-75724924D01*
X129460024Y-75872758D01*
X129508687Y-76033177D01*
X129525117Y-76200000D01*
X129508687Y-76366823D01*
X129460024Y-76527242D01*
X129419477Y-76603100D01*
X129381004Y-76675078D01*
X129274659Y-76804659D01*
X129145078Y-76911004D01*
X129145076Y-76911005D01*
X128997242Y-76990024D01*
X128836823Y-77038687D01*
X128711804Y-77051000D01*
X127828196Y-77051000D01*
X127703177Y-77038687D01*
X127542758Y-76990024D01*
X127394924Y-76911005D01*
X127394922Y-76911004D01*
X127265341Y-76804659D01*
X127158996Y-76675078D01*
X127120523Y-76603100D01*
X127079976Y-76527242D01*
X127031313Y-76366823D01*
X127014883Y-76200000D01*
X127031313Y-76033177D01*
X127079976Y-75872758D01*
X127158995Y-75724924D01*
X127158996Y-75724922D01*
X127265341Y-75595341D01*
X127394922Y-75488996D01*
X127442422Y-75463607D01*
X127542758Y-75409976D01*
X127546856Y-75408733D01*
X127572620Y-75400917D01*
X127703177Y-75361313D01*
X127828196Y-75349000D01*
X128711804Y-75349000D01*
X128836823Y-75361313D01*
X128836823Y-75361313D01*
G37*
G36*
X106928228Y-74746703D02*
G01*
X107083100Y-74810853D01*
X107222481Y-74903985D01*
X107341015Y-75022519D01*
X107434147Y-75161900D01*
X107498297Y-75316772D01*
X107531000Y-75481184D01*
X107531000Y-75648816D01*
X107498297Y-75813228D01*
X107434147Y-75968100D01*
X107341015Y-76107481D01*
X107222481Y-76226015D01*
X107083100Y-76319147D01*
X106928228Y-76383297D01*
X106763816Y-76416000D01*
X106596184Y-76416000D01*
X106431772Y-76383297D01*
X106276900Y-76319147D01*
X106137519Y-76226015D01*
X106018985Y-76107481D01*
X105925853Y-75968100D01*
X105861703Y-75813228D01*
X105829000Y-75648816D01*
X105829000Y-75481184D01*
X105861703Y-75316772D01*
X105925853Y-75161900D01*
X106018985Y-75022519D01*
X106137519Y-74903985D01*
X106276900Y-74810853D01*
X106431772Y-74746703D01*
X106596184Y-74714000D01*
X106763816Y-74714000D01*
X106928228Y-74746703D01*
X106928228Y-74746703D01*
G37*
G36*
X123263665Y-74182622D02*
G01*
X123337222Y-74189867D01*
X123478786Y-74232810D01*
X123609252Y-74302546D01*
X123634702Y-74323432D01*
X123723607Y-74396393D01*
X123793008Y-74480960D01*
X123817454Y-74510748D01*
X123887190Y-74641214D01*
X123930133Y-74782778D01*
X123944633Y-74930000D01*
X123930133Y-75077222D01*
X123887190Y-75218786D01*
X123817454Y-75349252D01*
X123807555Y-75361314D01*
X123723607Y-75463607D01*
X123663004Y-75513341D01*
X123609252Y-75557454D01*
X123478786Y-75627190D01*
X123337222Y-75670133D01*
X123263665Y-75677378D01*
X123226888Y-75681000D01*
X123153112Y-75681000D01*
X123116335Y-75677378D01*
X123042778Y-75670133D01*
X122901214Y-75627190D01*
X122770748Y-75557454D01*
X122716996Y-75513341D01*
X122656393Y-75463607D01*
X122572445Y-75361314D01*
X122562546Y-75349252D01*
X122492810Y-75218786D01*
X122449867Y-75077222D01*
X122435367Y-74930000D01*
X122449867Y-74782778D01*
X122492810Y-74641214D01*
X122562546Y-74510748D01*
X122586992Y-74480960D01*
X122656393Y-74396393D01*
X122745298Y-74323432D01*
X122770748Y-74302546D01*
X122901214Y-74232810D01*
X123042778Y-74189867D01*
X123116335Y-74182622D01*
X123153112Y-74179000D01*
X123226888Y-74179000D01*
X123263665Y-74182622D01*
X123263665Y-74182622D01*
G37*
G36*
X118329059Y-74207860D02*
G01*
X118389294Y-74232810D01*
X118465732Y-74264472D01*
X118588735Y-74346660D01*
X118693340Y-74451265D01*
X118775528Y-74574268D01*
X118832140Y-74710941D01*
X118861000Y-74856033D01*
X118861000Y-75003967D01*
X118832140Y-75149059D01*
X118775528Y-75285732D01*
X118693340Y-75408735D01*
X118588735Y-75513340D01*
X118465732Y-75595528D01*
X118465731Y-75595529D01*
X118465730Y-75595529D01*
X118329059Y-75652140D01*
X118183968Y-75681000D01*
X118036032Y-75681000D01*
X117890941Y-75652140D01*
X117754270Y-75595529D01*
X117754269Y-75595529D01*
X117754268Y-75595528D01*
X117631265Y-75513340D01*
X117526660Y-75408735D01*
X117444472Y-75285732D01*
X117387860Y-75149059D01*
X117359000Y-75003967D01*
X117359000Y-74856033D01*
X117387860Y-74710941D01*
X117444472Y-74574268D01*
X117526660Y-74451265D01*
X117631265Y-74346660D01*
X117754268Y-74264472D01*
X117830707Y-74232810D01*
X117890941Y-74207860D01*
X118036032Y-74179000D01*
X118183968Y-74179000D01*
X118329059Y-74207860D01*
X118329059Y-74207860D01*
G37*
G36*
X156281213Y-74207502D02*
G01*
X156352321Y-74214505D01*
X156489172Y-74256019D01*
X156489175Y-74256020D01*
X156615294Y-74323432D01*
X156725843Y-74414157D01*
X156816568Y-74524706D01*
X156883980Y-74650825D01*
X156883981Y-74650828D01*
X156925495Y-74787679D01*
X156939512Y-74930000D01*
X156925495Y-75072321D01*
X156924008Y-75077222D01*
X156883980Y-75209175D01*
X156816568Y-75335294D01*
X156725843Y-75445843D01*
X156615294Y-75536568D01*
X156489175Y-75603980D01*
X156489172Y-75603981D01*
X156352321Y-75645495D01*
X156284851Y-75652140D01*
X156245660Y-75656000D01*
X156174340Y-75656000D01*
X156135149Y-75652140D01*
X156067679Y-75645495D01*
X155930828Y-75603981D01*
X155930825Y-75603980D01*
X155804706Y-75536568D01*
X155694157Y-75445843D01*
X155603432Y-75335294D01*
X155536020Y-75209175D01*
X155495992Y-75077222D01*
X155494505Y-75072321D01*
X155480488Y-74930000D01*
X155494505Y-74787679D01*
X155536019Y-74650828D01*
X155536020Y-74650825D01*
X155603432Y-74524706D01*
X155694157Y-74414157D01*
X155804706Y-74323432D01*
X155930825Y-74256020D01*
X155930828Y-74256019D01*
X156067679Y-74214505D01*
X156138787Y-74207502D01*
X156174340Y-74204000D01*
X156245660Y-74204000D01*
X156281213Y-74207502D01*
X156281213Y-74207502D01*
G37*
G36*
X146901000Y-74511000D02*
G01*
X145199000Y-74511000D01*
X145199000Y-72809000D01*
X146901000Y-72809000D01*
X146901000Y-74511000D01*
X146901000Y-74511000D01*
G37*
G36*
X136456823Y-72821313D02*
G01*
X136617242Y-72869976D01*
X136749906Y-72940886D01*
X136765078Y-72948996D01*
X136894659Y-73055341D01*
X137001004Y-73184922D01*
X137001005Y-73184924D01*
X137080024Y-73332758D01*
X137128687Y-73493177D01*
X137145117Y-73660000D01*
X137128687Y-73826823D01*
X137080024Y-73987242D01*
X137009114Y-74119906D01*
X137001004Y-74135078D01*
X136894659Y-74264659D01*
X136765078Y-74371004D01*
X136765076Y-74371005D01*
X136617242Y-74450024D01*
X136617239Y-74450025D01*
X136587380Y-74459083D01*
X136456823Y-74498687D01*
X136331804Y-74511000D01*
X135448196Y-74511000D01*
X135323177Y-74498687D01*
X135192620Y-74459083D01*
X135162761Y-74450025D01*
X135162758Y-74450024D01*
X135014924Y-74371005D01*
X135014922Y-74371004D01*
X134885341Y-74264659D01*
X134778996Y-74135078D01*
X134770886Y-74119906D01*
X134699976Y-73987242D01*
X134651313Y-73826823D01*
X134634883Y-73660000D01*
X134651313Y-73493177D01*
X134699976Y-73332758D01*
X134778995Y-73184924D01*
X134778996Y-73184922D01*
X134885341Y-73055341D01*
X135014922Y-72948996D01*
X135030094Y-72940886D01*
X135162758Y-72869976D01*
X135323177Y-72821313D01*
X135448196Y-72809000D01*
X136331804Y-72809000D01*
X136456823Y-72821313D01*
X136456823Y-72821313D01*
G37*
G36*
X128836823Y-72821313D02*
G01*
X128997242Y-72869976D01*
X129129906Y-72940886D01*
X129145078Y-72948996D01*
X129274659Y-73055341D01*
X129381004Y-73184922D01*
X129381005Y-73184924D01*
X129460024Y-73332758D01*
X129508687Y-73493177D01*
X129525117Y-73660000D01*
X129508687Y-73826823D01*
X129460024Y-73987242D01*
X129389114Y-74119906D01*
X129381004Y-74135078D01*
X129274659Y-74264659D01*
X129145078Y-74371004D01*
X129145076Y-74371005D01*
X128997242Y-74450024D01*
X128997239Y-74450025D01*
X128967380Y-74459083D01*
X128836823Y-74498687D01*
X128711804Y-74511000D01*
X127828196Y-74511000D01*
X127703177Y-74498687D01*
X127572620Y-74459083D01*
X127542761Y-74450025D01*
X127542758Y-74450024D01*
X127394924Y-74371005D01*
X127394922Y-74371004D01*
X127265341Y-74264659D01*
X127158996Y-74135078D01*
X127150886Y-74119906D01*
X127079976Y-73987242D01*
X127031313Y-73826823D01*
X127014883Y-73660000D01*
X127031313Y-73493177D01*
X127079976Y-73332758D01*
X127158995Y-73184924D01*
X127158996Y-73184922D01*
X127265341Y-73055341D01*
X127394922Y-72948996D01*
X127410094Y-72940886D01*
X127542758Y-72869976D01*
X127703177Y-72821313D01*
X127828196Y-72809000D01*
X128711804Y-72809000D01*
X128836823Y-72821313D01*
X128836823Y-72821313D01*
G37*
G36*
X150026823Y-72821313D02*
G01*
X150187242Y-72869976D01*
X150319906Y-72940886D01*
X150335078Y-72948996D01*
X150464659Y-73055341D01*
X150571004Y-73184922D01*
X150571005Y-73184924D01*
X150650024Y-73332758D01*
X150698687Y-73493177D01*
X150715117Y-73660000D01*
X150698687Y-73826823D01*
X150650024Y-73987242D01*
X150579114Y-74119906D01*
X150571004Y-74135078D01*
X150464659Y-74264659D01*
X150335078Y-74371004D01*
X150335076Y-74371005D01*
X150187242Y-74450024D01*
X150187239Y-74450025D01*
X150157380Y-74459083D01*
X150026823Y-74498687D01*
X149901804Y-74511000D01*
X149818196Y-74511000D01*
X149693177Y-74498687D01*
X149562620Y-74459083D01*
X149532761Y-74450025D01*
X149532758Y-74450024D01*
X149384924Y-74371005D01*
X149384922Y-74371004D01*
X149255341Y-74264659D01*
X149148996Y-74135078D01*
X149140886Y-74119906D01*
X149069976Y-73987242D01*
X149021313Y-73826823D01*
X149004883Y-73660000D01*
X149021313Y-73493177D01*
X149069976Y-73332758D01*
X149148995Y-73184924D01*
X149148996Y-73184922D01*
X149255341Y-73055341D01*
X149384922Y-72948996D01*
X149400094Y-72940886D01*
X149532758Y-72869976D01*
X149693177Y-72821313D01*
X149818196Y-72809000D01*
X149901804Y-72809000D01*
X150026823Y-72821313D01*
X150026823Y-72821313D01*
G37*
G36*
X156936000Y-73656000D02*
G01*
X155484000Y-73656000D01*
X155484000Y-72204000D01*
X156936000Y-72204000D01*
X156936000Y-73656000D01*
X156936000Y-73656000D01*
G37*
G36*
X106753665Y-72150622D02*
G01*
X106827222Y-72157867D01*
X106968786Y-72200810D01*
X107099252Y-72270546D01*
X107129040Y-72294992D01*
X107213607Y-72364393D01*
X107283008Y-72448960D01*
X107307454Y-72478748D01*
X107377190Y-72609214D01*
X107420133Y-72750778D01*
X107434633Y-72898000D01*
X107420133Y-73045222D01*
X107377190Y-73186786D01*
X107307454Y-73317252D01*
X107294726Y-73332761D01*
X107213607Y-73431607D01*
X107138584Y-73493175D01*
X107099252Y-73525454D01*
X106968786Y-73595190D01*
X106827222Y-73638133D01*
X106753665Y-73645378D01*
X106716888Y-73649000D01*
X106643112Y-73649000D01*
X106606335Y-73645378D01*
X106532778Y-73638133D01*
X106391214Y-73595190D01*
X106260748Y-73525454D01*
X106221416Y-73493175D01*
X106146393Y-73431607D01*
X106065274Y-73332761D01*
X106052546Y-73317252D01*
X105982810Y-73186786D01*
X105939867Y-73045222D01*
X105925367Y-72898000D01*
X105939867Y-72750778D01*
X105982810Y-72609214D01*
X106052546Y-72478748D01*
X106076992Y-72448960D01*
X106146393Y-72364393D01*
X106230960Y-72294992D01*
X106260748Y-72270546D01*
X106391214Y-72200810D01*
X106532778Y-72157867D01*
X106606335Y-72150622D01*
X106643112Y-72147000D01*
X106716888Y-72147000D01*
X106753665Y-72150622D01*
X106753665Y-72150622D01*
G37*
G36*
X115111000Y-73241000D02*
G01*
X113409000Y-73241000D01*
X113409000Y-71539000D01*
X115111000Y-71539000D01*
X115111000Y-73241000D01*
X115111000Y-73241000D01*
G37*
G36*
X112008228Y-71571703D02*
G01*
X112163100Y-71635853D01*
X112302481Y-71728985D01*
X112421015Y-71847519D01*
X112514147Y-71986900D01*
X112578297Y-72141772D01*
X112611000Y-72306184D01*
X112611000Y-72473816D01*
X112578297Y-72638228D01*
X112514147Y-72793100D01*
X112421015Y-72932481D01*
X112302481Y-73051015D01*
X112163100Y-73144147D01*
X112008228Y-73208297D01*
X111843816Y-73241000D01*
X111676184Y-73241000D01*
X111511772Y-73208297D01*
X111356900Y-73144147D01*
X111217519Y-73051015D01*
X111098985Y-72932481D01*
X111005853Y-72793100D01*
X110941703Y-72638228D01*
X110909000Y-72473816D01*
X110909000Y-72306184D01*
X110941703Y-72141772D01*
X111005853Y-71986900D01*
X111098985Y-71847519D01*
X111217519Y-71728985D01*
X111356900Y-71635853D01*
X111511772Y-71571703D01*
X111676184Y-71539000D01*
X111843816Y-71539000D01*
X112008228Y-71571703D01*
X112008228Y-71571703D01*
G37*
G36*
X153206203Y-70515341D02*
G01*
X153254059Y-70524860D01*
X153390732Y-70581472D01*
X153513735Y-70663660D01*
X153618340Y-70768265D01*
X153687501Y-70871772D01*
X153700529Y-70891270D01*
X153757140Y-71027941D01*
X153786000Y-71173032D01*
X153786000Y-71320968D01*
X153757140Y-71466059D01*
X153702185Y-71598733D01*
X153700528Y-71602732D01*
X153618340Y-71725735D01*
X153513735Y-71830340D01*
X153390732Y-71912528D01*
X153390731Y-71912529D01*
X153390730Y-71912529D01*
X153254059Y-71969140D01*
X153108968Y-71998000D01*
X152961032Y-71998000D01*
X152815941Y-71969140D01*
X152679270Y-71912529D01*
X152679269Y-71912529D01*
X152679268Y-71912528D01*
X152556265Y-71830340D01*
X152451660Y-71725735D01*
X152369472Y-71602732D01*
X152367816Y-71598733D01*
X152312860Y-71466059D01*
X152284000Y-71320968D01*
X152284000Y-71173032D01*
X152312860Y-71027941D01*
X152369471Y-70891270D01*
X152382499Y-70871772D01*
X152451660Y-70768265D01*
X152556265Y-70663660D01*
X152679268Y-70581472D01*
X152815941Y-70524860D01*
X152863797Y-70515341D01*
X152961032Y-70496000D01*
X153108968Y-70496000D01*
X153206203Y-70515341D01*
X153206203Y-70515341D01*
G37*
G36*
X128836823Y-70281313D02*
G01*
X128997242Y-70329976D01*
X129124244Y-70397860D01*
X129145078Y-70408996D01*
X129274659Y-70515341D01*
X129381004Y-70644922D01*
X129381005Y-70644924D01*
X129460024Y-70792758D01*
X129508687Y-70953177D01*
X129525117Y-71120000D01*
X129508687Y-71286823D01*
X129460024Y-71447242D01*
X129419477Y-71523100D01*
X129381004Y-71595078D01*
X129274659Y-71724659D01*
X129145078Y-71831004D01*
X129145076Y-71831005D01*
X128997242Y-71910024D01*
X128997239Y-71910025D01*
X128988984Y-71912529D01*
X128836823Y-71958687D01*
X128711804Y-71971000D01*
X127828196Y-71971000D01*
X127703177Y-71958687D01*
X127551016Y-71912529D01*
X127542761Y-71910025D01*
X127542758Y-71910024D01*
X127394924Y-71831005D01*
X127394922Y-71831004D01*
X127265341Y-71724659D01*
X127158996Y-71595078D01*
X127120523Y-71523100D01*
X127079976Y-71447242D01*
X127031313Y-71286823D01*
X127014883Y-71120000D01*
X127031313Y-70953177D01*
X127079976Y-70792758D01*
X127158995Y-70644924D01*
X127158996Y-70644922D01*
X127265341Y-70515341D01*
X127394922Y-70408996D01*
X127415756Y-70397860D01*
X127542758Y-70329976D01*
X127703177Y-70281313D01*
X127828196Y-70269000D01*
X128711804Y-70269000D01*
X128836823Y-70281313D01*
X128836823Y-70281313D01*
G37*
G36*
X136456823Y-70281313D02*
G01*
X136617242Y-70329976D01*
X136744244Y-70397860D01*
X136765078Y-70408996D01*
X136894659Y-70515341D01*
X137001004Y-70644922D01*
X137001005Y-70644924D01*
X137080024Y-70792758D01*
X137128687Y-70953177D01*
X137145117Y-71120000D01*
X137128687Y-71286823D01*
X137080024Y-71447242D01*
X137039477Y-71523100D01*
X137001004Y-71595078D01*
X136894659Y-71724659D01*
X136765078Y-71831004D01*
X136765076Y-71831005D01*
X136617242Y-71910024D01*
X136617239Y-71910025D01*
X136608984Y-71912529D01*
X136456823Y-71958687D01*
X136331804Y-71971000D01*
X135448196Y-71971000D01*
X135323177Y-71958687D01*
X135171016Y-71912529D01*
X135162761Y-71910025D01*
X135162758Y-71910024D01*
X135014924Y-71831005D01*
X135014922Y-71831004D01*
X134885341Y-71724659D01*
X134778996Y-71595078D01*
X134740523Y-71523100D01*
X134699976Y-71447242D01*
X134651313Y-71286823D01*
X134634883Y-71120000D01*
X134651313Y-70953177D01*
X134699976Y-70792758D01*
X134778995Y-70644924D01*
X134778996Y-70644922D01*
X134885341Y-70515341D01*
X135014922Y-70408996D01*
X135035756Y-70397860D01*
X135162758Y-70329976D01*
X135323177Y-70281313D01*
X135448196Y-70269000D01*
X136331804Y-70269000D01*
X136456823Y-70281313D01*
X136456823Y-70281313D01*
G37*
G36*
X118358228Y-70301703D02*
G01*
X118513100Y-70365853D01*
X118652481Y-70458985D01*
X118771015Y-70577519D01*
X118864147Y-70716900D01*
X118928297Y-70871772D01*
X118961000Y-71036184D01*
X118961000Y-71203816D01*
X118928297Y-71368228D01*
X118864147Y-71523100D01*
X118771015Y-71662481D01*
X118652481Y-71781015D01*
X118513100Y-71874147D01*
X118358228Y-71938297D01*
X118193816Y-71971000D01*
X118026184Y-71971000D01*
X117861772Y-71938297D01*
X117706900Y-71874147D01*
X117567519Y-71781015D01*
X117448985Y-71662481D01*
X117355853Y-71523100D01*
X117291703Y-71368228D01*
X117259000Y-71203816D01*
X117259000Y-71036184D01*
X117291703Y-70871772D01*
X117355853Y-70716900D01*
X117448985Y-70577519D01*
X117567519Y-70458985D01*
X117706900Y-70365853D01*
X117861772Y-70301703D01*
X118026184Y-70269000D01*
X118193816Y-70269000D01*
X118358228Y-70301703D01*
X118358228Y-70301703D01*
G37*
G36*
X123358228Y-70301703D02*
G01*
X123513100Y-70365853D01*
X123652481Y-70458985D01*
X123771015Y-70577519D01*
X123864147Y-70716900D01*
X123928297Y-70871772D01*
X123961000Y-71036184D01*
X123961000Y-71203816D01*
X123928297Y-71368228D01*
X123864147Y-71523100D01*
X123771015Y-71662481D01*
X123652481Y-71781015D01*
X123513100Y-71874147D01*
X123358228Y-71938297D01*
X123193816Y-71971000D01*
X123026184Y-71971000D01*
X122861772Y-71938297D01*
X122706900Y-71874147D01*
X122567519Y-71781015D01*
X122448985Y-71662481D01*
X122355853Y-71523100D01*
X122291703Y-71368228D01*
X122259000Y-71203816D01*
X122259000Y-71036184D01*
X122291703Y-70871772D01*
X122355853Y-70716900D01*
X122448985Y-70577519D01*
X122567519Y-70458985D01*
X122706900Y-70365853D01*
X122861772Y-70301703D01*
X123026184Y-70269000D01*
X123193816Y-70269000D01*
X123358228Y-70301703D01*
X123358228Y-70301703D01*
G37*
G36*
X142459059Y-70397860D02*
G01*
X142595732Y-70454472D01*
X142718735Y-70536660D01*
X142823340Y-70641265D01*
X142905528Y-70764268D01*
X142905529Y-70764270D01*
X142962140Y-70900941D01*
X142987402Y-71027941D01*
X142991000Y-71046033D01*
X142991000Y-71193967D01*
X142962140Y-71339059D01*
X142905528Y-71475732D01*
X142823340Y-71598735D01*
X142718735Y-71703340D01*
X142595732Y-71785528D01*
X142595731Y-71785529D01*
X142595730Y-71785529D01*
X142459059Y-71842140D01*
X142313968Y-71871000D01*
X142166032Y-71871000D01*
X142020941Y-71842140D01*
X141884270Y-71785529D01*
X141884269Y-71785529D01*
X141884268Y-71785528D01*
X141761265Y-71703340D01*
X141656660Y-71598735D01*
X141574472Y-71475732D01*
X141517860Y-71339059D01*
X141489000Y-71193967D01*
X141489000Y-71046033D01*
X141492599Y-71027941D01*
X141517860Y-70900941D01*
X141574471Y-70764270D01*
X141574472Y-70764268D01*
X141656660Y-70641265D01*
X141761265Y-70536660D01*
X141884268Y-70454472D01*
X142020941Y-70397860D01*
X142166032Y-70369000D01*
X142313968Y-70369000D01*
X142459059Y-70397860D01*
X142459059Y-70397860D01*
G37*
G36*
X136456823Y-67741313D02*
G01*
X136617242Y-67789976D01*
X136684344Y-67825843D01*
X136765078Y-67868996D01*
X136894659Y-67975341D01*
X137001004Y-68104922D01*
X137001005Y-68104924D01*
X137080024Y-68252758D01*
X137128687Y-68413177D01*
X137145117Y-68580000D01*
X137128687Y-68746823D01*
X137080024Y-68907242D01*
X137009114Y-69039906D01*
X137001004Y-69055078D01*
X136894659Y-69184659D01*
X136765078Y-69291004D01*
X136765076Y-69291005D01*
X136617242Y-69370024D01*
X136456823Y-69418687D01*
X136331804Y-69431000D01*
X135448196Y-69431000D01*
X135323177Y-69418687D01*
X135162758Y-69370024D01*
X135014924Y-69291005D01*
X135014922Y-69291004D01*
X134885341Y-69184659D01*
X134778996Y-69055078D01*
X134770886Y-69039906D01*
X134699976Y-68907242D01*
X134651313Y-68746823D01*
X134634883Y-68580000D01*
X134651313Y-68413177D01*
X134699976Y-68252758D01*
X134778995Y-68104924D01*
X134778996Y-68104922D01*
X134885341Y-67975341D01*
X135014922Y-67868996D01*
X135095656Y-67825843D01*
X135162758Y-67789976D01*
X135323177Y-67741313D01*
X135448196Y-67729000D01*
X136331804Y-67729000D01*
X136456823Y-67741313D01*
X136456823Y-67741313D01*
G37*
G36*
X129521000Y-69431000D02*
G01*
X127019000Y-69431000D01*
X127019000Y-67729000D01*
X129521000Y-67729000D01*
X129521000Y-69431000D01*
X129521000Y-69431000D01*
G37*
G36*
X106899059Y-67095860D02*
G01*
X107035732Y-67152472D01*
X107158735Y-67234660D01*
X107263340Y-67339265D01*
X107345528Y-67462268D01*
X107402140Y-67598941D01*
X107431000Y-67744033D01*
X107431000Y-67891967D01*
X107402140Y-68037059D01*
X107345528Y-68173732D01*
X107263340Y-68296735D01*
X107158735Y-68401340D01*
X107035732Y-68483528D01*
X107035731Y-68483529D01*
X107035730Y-68483529D01*
X106899059Y-68540140D01*
X106753968Y-68569000D01*
X106606032Y-68569000D01*
X106460941Y-68540140D01*
X106324270Y-68483529D01*
X106324269Y-68483529D01*
X106324268Y-68483528D01*
X106201265Y-68401340D01*
X106096660Y-68296735D01*
X106014472Y-68173732D01*
X105957860Y-68037059D01*
X105929000Y-67891967D01*
X105929000Y-67744033D01*
X105957860Y-67598941D01*
X106014472Y-67462268D01*
X106096660Y-67339265D01*
X106201265Y-67234660D01*
X106324268Y-67152472D01*
X106460941Y-67095860D01*
X106606032Y-67067000D01*
X106753968Y-67067000D01*
X106899059Y-67095860D01*
X106899059Y-67095860D01*
G37*
G36*
X156268525Y-66586252D02*
G01*
X156352321Y-66594505D01*
X156489172Y-66636019D01*
X156489175Y-66636020D01*
X156615294Y-66703432D01*
X156725843Y-66794157D01*
X156816568Y-66904706D01*
X156883980Y-67030825D01*
X156883981Y-67030828D01*
X156925495Y-67167679D01*
X156939512Y-67310000D01*
X156925495Y-67452321D01*
X156883981Y-67589172D01*
X156883980Y-67589175D01*
X156816568Y-67715294D01*
X156725843Y-67825843D01*
X156615294Y-67916568D01*
X156489175Y-67983980D01*
X156489172Y-67983981D01*
X156352321Y-68025495D01*
X156281213Y-68032498D01*
X156245660Y-68036000D01*
X156174340Y-68036000D01*
X156138787Y-68032498D01*
X156067679Y-68025495D01*
X155930828Y-67983981D01*
X155930825Y-67983980D01*
X155804706Y-67916568D01*
X155694157Y-67825843D01*
X155603432Y-67715294D01*
X155536020Y-67589175D01*
X155536019Y-67589172D01*
X155494505Y-67452321D01*
X155480488Y-67310000D01*
X155494505Y-67167679D01*
X155536019Y-67030828D01*
X155536020Y-67030825D01*
X155603432Y-66904706D01*
X155694157Y-66794157D01*
X155804706Y-66703432D01*
X155930825Y-66636020D01*
X155930828Y-66636019D01*
X156067679Y-66594505D01*
X156151475Y-66586252D01*
X156174340Y-66584000D01*
X156245660Y-66584000D01*
X156268525Y-66586252D01*
X156268525Y-66586252D01*
G37*
G36*
X153108665Y-65419622D02*
G01*
X153182222Y-65426867D01*
X153323786Y-65469810D01*
X153454252Y-65539546D01*
X153480717Y-65561265D01*
X153568607Y-65633393D01*
X153638008Y-65717960D01*
X153662454Y-65747748D01*
X153732190Y-65878214D01*
X153775133Y-66019778D01*
X153789633Y-66167000D01*
X153775133Y-66314222D01*
X153750407Y-66395732D01*
X153732189Y-66455788D01*
X153730337Y-66459252D01*
X153662454Y-66586252D01*
X153638040Y-66616000D01*
X153568607Y-66700607D01*
X153507195Y-66751005D01*
X153454252Y-66794454D01*
X153323786Y-66864190D01*
X153182222Y-66907133D01*
X153108665Y-66914378D01*
X153071888Y-66918000D01*
X152998112Y-66918000D01*
X152961335Y-66914378D01*
X152887778Y-66907133D01*
X152746214Y-66864190D01*
X152615748Y-66794454D01*
X152562805Y-66751005D01*
X152501393Y-66700607D01*
X152431960Y-66616000D01*
X152407546Y-66586252D01*
X152339663Y-66459252D01*
X152337811Y-66455788D01*
X152319593Y-66395732D01*
X152294867Y-66314222D01*
X152280367Y-66167000D01*
X152294867Y-66019778D01*
X152337810Y-65878214D01*
X152407546Y-65747748D01*
X152431992Y-65717960D01*
X152501393Y-65633393D01*
X152589283Y-65561265D01*
X152615748Y-65539546D01*
X152746214Y-65469810D01*
X152887778Y-65426867D01*
X152961335Y-65419622D01*
X152998112Y-65416000D01*
X153071888Y-65416000D01*
X153108665Y-65419622D01*
X153108665Y-65419622D01*
G37*
G36*
X146216823Y-65201313D02*
G01*
X146377242Y-65249976D01*
X146477578Y-65303607D01*
X146525078Y-65328996D01*
X146654659Y-65435341D01*
X146761004Y-65564922D01*
X146761005Y-65564924D01*
X146840024Y-65712758D01*
X146888687Y-65873177D01*
X146905117Y-66040000D01*
X146888687Y-66206823D01*
X146840024Y-66367242D01*
X146769114Y-66499906D01*
X146761004Y-66515078D01*
X146654659Y-66644659D01*
X146525078Y-66751004D01*
X146525076Y-66751005D01*
X146377242Y-66830024D01*
X146216823Y-66878687D01*
X146091804Y-66891000D01*
X146008196Y-66891000D01*
X145883177Y-66878687D01*
X145722758Y-66830024D01*
X145574924Y-66751005D01*
X145574922Y-66751004D01*
X145445341Y-66644659D01*
X145338996Y-66515078D01*
X145330886Y-66499906D01*
X145259976Y-66367242D01*
X145211313Y-66206823D01*
X145194883Y-66040000D01*
X145211313Y-65873177D01*
X145259976Y-65712758D01*
X145338995Y-65564924D01*
X145338996Y-65564922D01*
X145445341Y-65435341D01*
X145574922Y-65328996D01*
X145622422Y-65303607D01*
X145722758Y-65249976D01*
X145883177Y-65201313D01*
X146008196Y-65189000D01*
X146091804Y-65189000D01*
X146216823Y-65201313D01*
X146216823Y-65201313D01*
G37*
G36*
X150711000Y-66891000D02*
G01*
X149009000Y-66891000D01*
X149009000Y-65189000D01*
X150711000Y-65189000D01*
X150711000Y-66891000D01*
X150711000Y-66891000D01*
G37*
G36*
X142298879Y-65291166D02*
G01*
X142387222Y-65299867D01*
X142528786Y-65342810D01*
X142659252Y-65412546D01*
X142676702Y-65426867D01*
X142773607Y-65506393D01*
X142841540Y-65589172D01*
X142867454Y-65620748D01*
X142867455Y-65620750D01*
X142935339Y-65747750D01*
X142937190Y-65751214D01*
X142980133Y-65892778D01*
X142994633Y-66040000D01*
X142980133Y-66187222D01*
X142937190Y-66328786D01*
X142867454Y-66459252D01*
X142843008Y-66489040D01*
X142773607Y-66573607D01*
X142689040Y-66643008D01*
X142659252Y-66667454D01*
X142528786Y-66737190D01*
X142387222Y-66780133D01*
X142313665Y-66787378D01*
X142276888Y-66791000D01*
X142203112Y-66791000D01*
X142166335Y-66787378D01*
X142092778Y-66780133D01*
X141951214Y-66737190D01*
X141820748Y-66667454D01*
X141790960Y-66643008D01*
X141706393Y-66573607D01*
X141636992Y-66489040D01*
X141612546Y-66459252D01*
X141542810Y-66328786D01*
X141499867Y-66187222D01*
X141485367Y-66040000D01*
X141499867Y-65892778D01*
X141542810Y-65751214D01*
X141544662Y-65747750D01*
X141612545Y-65620750D01*
X141612546Y-65620748D01*
X141638460Y-65589172D01*
X141706393Y-65506393D01*
X141803298Y-65426867D01*
X141820748Y-65412546D01*
X141951214Y-65342810D01*
X142092778Y-65299867D01*
X142181121Y-65291166D01*
X142203112Y-65289000D01*
X142276888Y-65289000D01*
X142298879Y-65291166D01*
X142298879Y-65291166D01*
G37*
G36*
X121978879Y-65291166D02*
G01*
X122067222Y-65299867D01*
X122208786Y-65342810D01*
X122339252Y-65412546D01*
X122356702Y-65426867D01*
X122453607Y-65506393D01*
X122521540Y-65589172D01*
X122547454Y-65620748D01*
X122547455Y-65620750D01*
X122615339Y-65747750D01*
X122617190Y-65751214D01*
X122660133Y-65892778D01*
X122674633Y-66040000D01*
X122660133Y-66187222D01*
X122617190Y-66328786D01*
X122547454Y-66459252D01*
X122523008Y-66489040D01*
X122453607Y-66573607D01*
X122369040Y-66643008D01*
X122339252Y-66667454D01*
X122208786Y-66737190D01*
X122067222Y-66780133D01*
X121993665Y-66787378D01*
X121956888Y-66791000D01*
X121883112Y-66791000D01*
X121846335Y-66787378D01*
X121772778Y-66780133D01*
X121631214Y-66737190D01*
X121500748Y-66667454D01*
X121470960Y-66643008D01*
X121386393Y-66573607D01*
X121316992Y-66489040D01*
X121292546Y-66459252D01*
X121222810Y-66328786D01*
X121179867Y-66187222D01*
X121165367Y-66040000D01*
X121179867Y-65892778D01*
X121222810Y-65751214D01*
X121224662Y-65747750D01*
X121292545Y-65620750D01*
X121292546Y-65620748D01*
X121318460Y-65589172D01*
X121386393Y-65506393D01*
X121483298Y-65426867D01*
X121500748Y-65412546D01*
X121631214Y-65342810D01*
X121772778Y-65299867D01*
X121861121Y-65291166D01*
X121883112Y-65289000D01*
X121956888Y-65289000D01*
X121978879Y-65291166D01*
X121978879Y-65291166D01*
G37*
G36*
X117059059Y-65317860D02*
G01*
X117119294Y-65342810D01*
X117195732Y-65374472D01*
X117318735Y-65456660D01*
X117423340Y-65561265D01*
X117471534Y-65633393D01*
X117505529Y-65684270D01*
X117562140Y-65820941D01*
X117591000Y-65966032D01*
X117591000Y-66113968D01*
X117562140Y-66259059D01*
X117539292Y-66314220D01*
X117505528Y-66395732D01*
X117423340Y-66518735D01*
X117318735Y-66623340D01*
X117195732Y-66705528D01*
X117195731Y-66705529D01*
X117195730Y-66705529D01*
X117059059Y-66762140D01*
X116913968Y-66791000D01*
X116766032Y-66791000D01*
X116620941Y-66762140D01*
X116484270Y-66705529D01*
X116484269Y-66705529D01*
X116484268Y-66705528D01*
X116361265Y-66623340D01*
X116256660Y-66518735D01*
X116174472Y-66395732D01*
X116140709Y-66314220D01*
X116117860Y-66259059D01*
X116089000Y-66113968D01*
X116089000Y-65966032D01*
X116117860Y-65820941D01*
X116174471Y-65684270D01*
X116208466Y-65633393D01*
X116256660Y-65561265D01*
X116361265Y-65456660D01*
X116484268Y-65374472D01*
X116560707Y-65342810D01*
X116620941Y-65317860D01*
X116766032Y-65289000D01*
X116913968Y-65289000D01*
X117059059Y-65317860D01*
X117059059Y-65317860D01*
G37*
G36*
X112379373Y-62928926D02*
G01*
X112421566Y-62941725D01*
X112460444Y-62962506D01*
X112494525Y-62990475D01*
X112522494Y-63024556D01*
X112543275Y-63063434D01*
X112556074Y-63105627D01*
X112561000Y-63155641D01*
X112561000Y-63844359D01*
X112556074Y-63894373D01*
X112543275Y-63936566D01*
X112522494Y-63975444D01*
X112494525Y-64009525D01*
X112459371Y-64038375D01*
X112442044Y-64055702D01*
X112428431Y-64076076D01*
X112419053Y-64098715D01*
X112414273Y-64122748D01*
X112414273Y-64147253D01*
X112419054Y-64171286D01*
X112428431Y-64193925D01*
X112442045Y-64214299D01*
X112459371Y-64231625D01*
X112494525Y-64260475D01*
X112522494Y-64294556D01*
X112543275Y-64333434D01*
X112556074Y-64375627D01*
X112561000Y-64425641D01*
X112561000Y-65114359D01*
X112556074Y-65164373D01*
X112543275Y-65206566D01*
X112522494Y-65245444D01*
X112510793Y-65259702D01*
X112497179Y-65280076D01*
X112487802Y-65302715D01*
X112483021Y-65326748D01*
X112483021Y-65351252D01*
X112487801Y-65375286D01*
X112497178Y-65397925D01*
X112510792Y-65418299D01*
X112528119Y-65435626D01*
X112548493Y-65449240D01*
X112561000Y-65454420D01*
X112561000Y-66616000D01*
X110959000Y-66616000D01*
X110959000Y-65454915D01*
X110960417Y-65454485D01*
X110982028Y-65442934D01*
X111000970Y-65427389D01*
X111016515Y-65408447D01*
X111028066Y-65386836D01*
X111035179Y-65363387D01*
X111037581Y-65339001D01*
X111035179Y-65314615D01*
X111028066Y-65291166D01*
X111016515Y-65269555D01*
X111009207Y-65259702D01*
X110997506Y-65245444D01*
X110976725Y-65206566D01*
X110963926Y-65164373D01*
X110959000Y-65114359D01*
X110959000Y-64425641D01*
X110963926Y-64375627D01*
X110976725Y-64333434D01*
X110997506Y-64294556D01*
X111025475Y-64260475D01*
X111060629Y-64231625D01*
X111077956Y-64214298D01*
X111091569Y-64193924D01*
X111100947Y-64171285D01*
X111105727Y-64147252D01*
X111105727Y-64122747D01*
X111100946Y-64098714D01*
X111091569Y-64076075D01*
X111077955Y-64055701D01*
X111060629Y-64038375D01*
X111025475Y-64009525D01*
X110997506Y-63975444D01*
X110976725Y-63936566D01*
X110963926Y-63894373D01*
X110959000Y-63844359D01*
X110959000Y-63155641D01*
X110963926Y-63105627D01*
X110976725Y-63063434D01*
X110997506Y-63024556D01*
X111025475Y-62990475D01*
X111059556Y-62962506D01*
X111098434Y-62941725D01*
X111140627Y-62928926D01*
X111190641Y-62924000D01*
X112329359Y-62924000D01*
X112379373Y-62928926D01*
X112379373Y-62928926D01*
G37*
G36*
X156281213Y-64587502D02*
G01*
X156352321Y-64594505D01*
X156489172Y-64636019D01*
X156489175Y-64636020D01*
X156615294Y-64703432D01*
X156725843Y-64794157D01*
X156816568Y-64904706D01*
X156883980Y-65030825D01*
X156883981Y-65030828D01*
X156925495Y-65167679D01*
X156939512Y-65310000D01*
X156925495Y-65452321D01*
X156883981Y-65589172D01*
X156883980Y-65589175D01*
X156816568Y-65715294D01*
X156725843Y-65825843D01*
X156615294Y-65916568D01*
X156489175Y-65983980D01*
X156489172Y-65983981D01*
X156352321Y-66025495D01*
X156281213Y-66032498D01*
X156245660Y-66036000D01*
X156174340Y-66036000D01*
X156138787Y-66032498D01*
X156067679Y-66025495D01*
X155930828Y-65983981D01*
X155930825Y-65983980D01*
X155804706Y-65916568D01*
X155694157Y-65825843D01*
X155603432Y-65715294D01*
X155536020Y-65589175D01*
X155536019Y-65589172D01*
X155494505Y-65452321D01*
X155480488Y-65310000D01*
X155494505Y-65167679D01*
X155536019Y-65030828D01*
X155536020Y-65030825D01*
X155603432Y-64904706D01*
X155694157Y-64794157D01*
X155804706Y-64703432D01*
X155930825Y-64636020D01*
X155930828Y-64636019D01*
X156067679Y-64594505D01*
X156138787Y-64587502D01*
X156174340Y-64584000D01*
X156245660Y-64584000D01*
X156281213Y-64587502D01*
X156281213Y-64587502D01*
G37*
G36*
X106753665Y-64022622D02*
G01*
X106827222Y-64029867D01*
X106968786Y-64072810D01*
X107099252Y-64142546D01*
X107104986Y-64147252D01*
X107213607Y-64236393D01*
X107283008Y-64320960D01*
X107307454Y-64350748D01*
X107377190Y-64481214D01*
X107420133Y-64622778D01*
X107434633Y-64770000D01*
X107420133Y-64917222D01*
X107377190Y-65058786D01*
X107307454Y-65189252D01*
X107283858Y-65218004D01*
X107213607Y-65303607D01*
X107140763Y-65363387D01*
X107099252Y-65397454D01*
X107043248Y-65427389D01*
X106996608Y-65452319D01*
X106968786Y-65467190D01*
X106827222Y-65510133D01*
X106753665Y-65517378D01*
X106716888Y-65521000D01*
X106643112Y-65521000D01*
X106606335Y-65517378D01*
X106532778Y-65510133D01*
X106391214Y-65467190D01*
X106363393Y-65452319D01*
X106316752Y-65427389D01*
X106260748Y-65397454D01*
X106219237Y-65363387D01*
X106146393Y-65303607D01*
X106076142Y-65218004D01*
X106052546Y-65189252D01*
X105982810Y-65058786D01*
X105939867Y-64917222D01*
X105925367Y-64770000D01*
X105939867Y-64622778D01*
X105982810Y-64481214D01*
X106052546Y-64350748D01*
X106076992Y-64320960D01*
X106146393Y-64236393D01*
X106255014Y-64147252D01*
X106260748Y-64142546D01*
X106391214Y-64072810D01*
X106532778Y-64029867D01*
X106606335Y-64022622D01*
X106643112Y-64019000D01*
X106716888Y-64019000D01*
X106753665Y-64022622D01*
X106753665Y-64022622D01*
G37*
G36*
X125978228Y-63316703D02*
G01*
X126133100Y-63380853D01*
X126272481Y-63473985D01*
X126391015Y-63592519D01*
X126484147Y-63731900D01*
X126548297Y-63886772D01*
X126581000Y-64051184D01*
X126581000Y-64218816D01*
X126548297Y-64383228D01*
X126484147Y-64538100D01*
X126391015Y-64677481D01*
X126272481Y-64796015D01*
X126133100Y-64889147D01*
X125978228Y-64953297D01*
X125813816Y-64986000D01*
X125646184Y-64986000D01*
X125481772Y-64953297D01*
X125326900Y-64889147D01*
X125187519Y-64796015D01*
X125068985Y-64677481D01*
X124975853Y-64538100D01*
X124911703Y-64383228D01*
X124879000Y-64218816D01*
X124879000Y-64051184D01*
X124911703Y-63886772D01*
X124975853Y-63731900D01*
X125068985Y-63592519D01*
X125187519Y-63473985D01*
X125326900Y-63380853D01*
X125481772Y-63316703D01*
X125646184Y-63284000D01*
X125813816Y-63284000D01*
X125978228Y-63316703D01*
X125978228Y-63316703D01*
G37*
G36*
X130978228Y-63316703D02*
G01*
X131133100Y-63380853D01*
X131272481Y-63473985D01*
X131391015Y-63592519D01*
X131484147Y-63731900D01*
X131548297Y-63886772D01*
X131581000Y-64051184D01*
X131581000Y-64218816D01*
X131548297Y-64383228D01*
X131484147Y-64538100D01*
X131391015Y-64677481D01*
X131272481Y-64796015D01*
X131133100Y-64889147D01*
X130978228Y-64953297D01*
X130813816Y-64986000D01*
X130646184Y-64986000D01*
X130481772Y-64953297D01*
X130326900Y-64889147D01*
X130187519Y-64796015D01*
X130068985Y-64677481D01*
X129975853Y-64538100D01*
X129911703Y-64383228D01*
X129879000Y-64218816D01*
X129879000Y-64051184D01*
X129911703Y-63886772D01*
X129975853Y-63731900D01*
X130068985Y-63592519D01*
X130187519Y-63473985D01*
X130326900Y-63380853D01*
X130481772Y-63316703D01*
X130646184Y-63284000D01*
X130813816Y-63284000D01*
X130978228Y-63316703D01*
X130978228Y-63316703D01*
G37*
G36*
X134058665Y-63387622D02*
G01*
X134132222Y-63394867D01*
X134273786Y-63437810D01*
X134404252Y-63507546D01*
X134434040Y-63531992D01*
X134518607Y-63601393D01*
X134588008Y-63685960D01*
X134612454Y-63715748D01*
X134612455Y-63715750D01*
X134681199Y-63844359D01*
X134682190Y-63846214D01*
X134725133Y-63987778D01*
X134739633Y-64135000D01*
X134725133Y-64282222D01*
X134682190Y-64423786D01*
X134682189Y-64423788D01*
X134681106Y-64425814D01*
X134612454Y-64554252D01*
X134588040Y-64584000D01*
X134518607Y-64668607D01*
X134458004Y-64718341D01*
X134404252Y-64762454D01*
X134273786Y-64832190D01*
X134132222Y-64875133D01*
X134058665Y-64882378D01*
X134021888Y-64886000D01*
X133948112Y-64886000D01*
X133911335Y-64882378D01*
X133837778Y-64875133D01*
X133696214Y-64832190D01*
X133565748Y-64762454D01*
X133511996Y-64718341D01*
X133451393Y-64668607D01*
X133381960Y-64584000D01*
X133357546Y-64554252D01*
X133288894Y-64425814D01*
X133287811Y-64423788D01*
X133287810Y-64423786D01*
X133244867Y-64282222D01*
X133230367Y-64135000D01*
X133244867Y-63987778D01*
X133287810Y-63846214D01*
X133288802Y-63844359D01*
X133357545Y-63715750D01*
X133357546Y-63715748D01*
X133381992Y-63685960D01*
X133451393Y-63601393D01*
X133535960Y-63531992D01*
X133565748Y-63507546D01*
X133696214Y-63437810D01*
X133837778Y-63394867D01*
X133911335Y-63387622D01*
X133948112Y-63384000D01*
X134021888Y-63384000D01*
X134058665Y-63387622D01*
X134058665Y-63387622D01*
G37*
G36*
X139284059Y-63412860D02*
G01*
X139344294Y-63437810D01*
X139420732Y-63469472D01*
X139543735Y-63551660D01*
X139648340Y-63656265D01*
X139730528Y-63779268D01*
X139730529Y-63779270D01*
X139787140Y-63915941D01*
X139816000Y-64061032D01*
X139816000Y-64208968D01*
X139787140Y-64354059D01*
X139734471Y-64481214D01*
X139730528Y-64490732D01*
X139648340Y-64613735D01*
X139543735Y-64718340D01*
X139420732Y-64800528D01*
X139420731Y-64800529D01*
X139420730Y-64800529D01*
X139284059Y-64857140D01*
X139138968Y-64886000D01*
X138991032Y-64886000D01*
X138845941Y-64857140D01*
X138709270Y-64800529D01*
X138709269Y-64800529D01*
X138709268Y-64800528D01*
X138586265Y-64718340D01*
X138481660Y-64613735D01*
X138399472Y-64490732D01*
X138395530Y-64481214D01*
X138342860Y-64354059D01*
X138314000Y-64208968D01*
X138314000Y-64061032D01*
X138342860Y-63915941D01*
X138399471Y-63779270D01*
X138399472Y-63779268D01*
X138481660Y-63656265D01*
X138586265Y-63551660D01*
X138709268Y-63469472D01*
X138785707Y-63437810D01*
X138845941Y-63412860D01*
X138991032Y-63384000D01*
X139138968Y-63384000D01*
X139284059Y-63412860D01*
X139284059Y-63412860D01*
G37*
G36*
X156936000Y-64036000D02*
G01*
X155484000Y-64036000D01*
X155484000Y-62584000D01*
X156936000Y-62584000D01*
X156936000Y-64036000D01*
X156936000Y-64036000D01*
G37*
G36*
X142567665Y-62054122D02*
G01*
X142641222Y-62061367D01*
X142782786Y-62104310D01*
X142913252Y-62174046D01*
X142943040Y-62198492D01*
X143027607Y-62267893D01*
X143097008Y-62352460D01*
X143121454Y-62382248D01*
X143191190Y-62512714D01*
X143234133Y-62654278D01*
X143248633Y-62801500D01*
X143234133Y-62948722D01*
X143191190Y-63090286D01*
X143121454Y-63220752D01*
X143097008Y-63250540D01*
X143027607Y-63335107D01*
X142967004Y-63384841D01*
X142913252Y-63428954D01*
X142913250Y-63428955D01*
X142829006Y-63473985D01*
X142782786Y-63498690D01*
X142641222Y-63541633D01*
X142567665Y-63548878D01*
X142530888Y-63552500D01*
X142457112Y-63552500D01*
X142420335Y-63548878D01*
X142346778Y-63541633D01*
X142205214Y-63498690D01*
X142158995Y-63473985D01*
X142074750Y-63428955D01*
X142074748Y-63428954D01*
X142020996Y-63384841D01*
X141960393Y-63335107D01*
X141890992Y-63250540D01*
X141866546Y-63220752D01*
X141796810Y-63090286D01*
X141753867Y-62948722D01*
X141739367Y-62801500D01*
X141753867Y-62654278D01*
X141796810Y-62512714D01*
X141866546Y-62382248D01*
X141890992Y-62352460D01*
X141960393Y-62267893D01*
X142044960Y-62198492D01*
X142074748Y-62174046D01*
X142205214Y-62104310D01*
X142346778Y-62061367D01*
X142420335Y-62054122D01*
X142457112Y-62050500D01*
X142530888Y-62050500D01*
X142567665Y-62054122D01*
X142567665Y-62054122D01*
G37*
G36*
X147793059Y-62079360D02*
G01*
X147853294Y-62104310D01*
X147929732Y-62135972D01*
X148052735Y-62218160D01*
X148157340Y-62322765D01*
X148239528Y-62445768D01*
X148239529Y-62445770D01*
X148296140Y-62582441D01*
X148325000Y-62727532D01*
X148325000Y-62875468D01*
X148296140Y-63020559D01*
X148240116Y-63155814D01*
X148239528Y-63157232D01*
X148157340Y-63280235D01*
X148052735Y-63384840D01*
X147929732Y-63467028D01*
X147929731Y-63467029D01*
X147929730Y-63467029D01*
X147793059Y-63523640D01*
X147647968Y-63552500D01*
X147500032Y-63552500D01*
X147354941Y-63523640D01*
X147218270Y-63467029D01*
X147218269Y-63467029D01*
X147218268Y-63467028D01*
X147095265Y-63384840D01*
X146990660Y-63280235D01*
X146908472Y-63157232D01*
X146907885Y-63155814D01*
X146851860Y-63020559D01*
X146823000Y-62875468D01*
X146823000Y-62727532D01*
X146851860Y-62582441D01*
X146908471Y-62445770D01*
X146908472Y-62445768D01*
X146990660Y-62322765D01*
X147095265Y-62218160D01*
X147218268Y-62135972D01*
X147294707Y-62104310D01*
X147354941Y-62079360D01*
X147500032Y-62050500D01*
X147647968Y-62050500D01*
X147793059Y-62079360D01*
X147793059Y-62079360D01*
G37*
G36*
X134131865Y-60541000D02*
G01*
X134204059Y-60555360D01*
X134340732Y-60611972D01*
X134463735Y-60694160D01*
X134568340Y-60798765D01*
X134650528Y-60921768D01*
X134707140Y-61058441D01*
X134736000Y-61203533D01*
X134736000Y-61351467D01*
X134707140Y-61496559D01*
X134650528Y-61633232D01*
X134568340Y-61756235D01*
X134463735Y-61860840D01*
X134340732Y-61943028D01*
X134340731Y-61943029D01*
X134340730Y-61943029D01*
X134204059Y-61999640D01*
X134058968Y-62028500D01*
X133911032Y-62028500D01*
X133765941Y-61999640D01*
X133629270Y-61943029D01*
X133629269Y-61943029D01*
X133629268Y-61943028D01*
X133506265Y-61860840D01*
X133401660Y-61756235D01*
X133319472Y-61633232D01*
X133262860Y-61496559D01*
X133234000Y-61351467D01*
X133234000Y-61203533D01*
X133262860Y-61058441D01*
X133319472Y-60921768D01*
X133401660Y-60798765D01*
X133506265Y-60694160D01*
X133629268Y-60611972D01*
X133765941Y-60555360D01*
X133838135Y-60541000D01*
X133911032Y-60526500D01*
X134058968Y-60526500D01*
X134131865Y-60541000D01*
X134131865Y-60541000D01*
G37*
G36*
X118770500Y-60541000D02*
G01*
X117068500Y-60541000D01*
X117068500Y-58839000D01*
X118770500Y-58839000D01*
X118770500Y-60541000D01*
X118770500Y-60541000D01*
G37*
G36*
X120667728Y-58871703D02*
G01*
X120822600Y-58935853D01*
X120961981Y-59028985D01*
X121080515Y-59147519D01*
X121173647Y-59286900D01*
X121237797Y-59441772D01*
X121270500Y-59606184D01*
X121270500Y-59773816D01*
X121237797Y-59938228D01*
X121173647Y-60093100D01*
X121080515Y-60232481D01*
X120961981Y-60351015D01*
X120822600Y-60444147D01*
X120667728Y-60508297D01*
X120503316Y-60541000D01*
X120335684Y-60541000D01*
X120171272Y-60508297D01*
X120016400Y-60444147D01*
X119877019Y-60351015D01*
X119758485Y-60232481D01*
X119665353Y-60093100D01*
X119601203Y-59938228D01*
X119568500Y-59773816D01*
X119568500Y-59606184D01*
X119601203Y-59441772D01*
X119665353Y-59286900D01*
X119758485Y-59147519D01*
X119877019Y-59028985D01*
X120016400Y-58935853D01*
X120171272Y-58871703D01*
X120335684Y-58839000D01*
X120503316Y-58839000D01*
X120667728Y-58871703D01*
X120667728Y-58871703D01*
G37*
G36*
X114373665Y-58942622D02*
G01*
X114447222Y-58949867D01*
X114588786Y-58992810D01*
X114719252Y-59062546D01*
X114749040Y-59086992D01*
X114833607Y-59156393D01*
X114900822Y-59238297D01*
X114927454Y-59270748D01*
X114997190Y-59401214D01*
X115040133Y-59542778D01*
X115054633Y-59690000D01*
X115040133Y-59837222D01*
X114997190Y-59978786D01*
X114927454Y-60109252D01*
X114903008Y-60139040D01*
X114833607Y-60223607D01*
X114773004Y-60273341D01*
X114719252Y-60317454D01*
X114588786Y-60387190D01*
X114447222Y-60430133D01*
X114373665Y-60437378D01*
X114336888Y-60441000D01*
X114263112Y-60441000D01*
X114226335Y-60437378D01*
X114152778Y-60430133D01*
X114011214Y-60387190D01*
X113880748Y-60317454D01*
X113826996Y-60273341D01*
X113766393Y-60223607D01*
X113696992Y-60139040D01*
X113672546Y-60109252D01*
X113602810Y-59978786D01*
X113559867Y-59837222D01*
X113545367Y-59690000D01*
X113559867Y-59542778D01*
X113602810Y-59401214D01*
X113672546Y-59270748D01*
X113699178Y-59238297D01*
X113766393Y-59156393D01*
X113850960Y-59086992D01*
X113880748Y-59062546D01*
X114011214Y-58992810D01*
X114152778Y-58949867D01*
X114226335Y-58942622D01*
X114263112Y-58939000D01*
X114336888Y-58939000D01*
X114373665Y-58942622D01*
X114373665Y-58942622D01*
G37*
G36*
X109439059Y-58967860D02*
G01*
X109499294Y-58992810D01*
X109575732Y-59024472D01*
X109698735Y-59106660D01*
X109803340Y-59211265D01*
X109885528Y-59334268D01*
X109942140Y-59470941D01*
X109971000Y-59616033D01*
X109971000Y-59763967D01*
X109942140Y-59909059D01*
X109885528Y-60045732D01*
X109803340Y-60168735D01*
X109698735Y-60273340D01*
X109575732Y-60355528D01*
X109575731Y-60355529D01*
X109575730Y-60355529D01*
X109439059Y-60412140D01*
X109293968Y-60441000D01*
X109146032Y-60441000D01*
X109000941Y-60412140D01*
X108864270Y-60355529D01*
X108864269Y-60355529D01*
X108864268Y-60355528D01*
X108741265Y-60273340D01*
X108636660Y-60168735D01*
X108554472Y-60045732D01*
X108497860Y-59909059D01*
X108469000Y-59763967D01*
X108469000Y-59616033D01*
X108497860Y-59470941D01*
X108554472Y-59334268D01*
X108636660Y-59211265D01*
X108741265Y-59106660D01*
X108864268Y-59024472D01*
X108940707Y-58992810D01*
X109000941Y-58967860D01*
X109146032Y-58939000D01*
X109293968Y-58939000D01*
X109439059Y-58967860D01*
X109439059Y-58967860D01*
G37*
G36*
X106899059Y-58967860D02*
G01*
X106959294Y-58992810D01*
X107035732Y-59024472D01*
X107158735Y-59106660D01*
X107263340Y-59211265D01*
X107345528Y-59334268D01*
X107402140Y-59470941D01*
X107431000Y-59616033D01*
X107431000Y-59763967D01*
X107402140Y-59909059D01*
X107345528Y-60045732D01*
X107263340Y-60168735D01*
X107158735Y-60273340D01*
X107035732Y-60355528D01*
X107035731Y-60355529D01*
X107035730Y-60355529D01*
X106899059Y-60412140D01*
X106753968Y-60441000D01*
X106606032Y-60441000D01*
X106460941Y-60412140D01*
X106324270Y-60355529D01*
X106324269Y-60355529D01*
X106324268Y-60355528D01*
X106201265Y-60273340D01*
X106096660Y-60168735D01*
X106014472Y-60045732D01*
X105957860Y-59909059D01*
X105929000Y-59763967D01*
X105929000Y-59616033D01*
X105957860Y-59470941D01*
X106014472Y-59334268D01*
X106096660Y-59211265D01*
X106201265Y-59106660D01*
X106324268Y-59024472D01*
X106400707Y-58992810D01*
X106460941Y-58967860D01*
X106606032Y-58939000D01*
X106753968Y-58939000D01*
X106899059Y-58967860D01*
X106899059Y-58967860D01*
G37*
G36*
X154561000Y-59906000D02*
G01*
X152859000Y-59906000D01*
X152859000Y-58204000D01*
X154561000Y-58204000D01*
X154561000Y-59906000D01*
X154561000Y-59906000D01*
G37*
G36*
X127851000Y-59906000D02*
G01*
X126149000Y-59906000D01*
X126149000Y-58204000D01*
X127851000Y-58204000D01*
X127851000Y-59906000D01*
X127851000Y-59906000D01*
G37*
G36*
X156458228Y-58236703D02*
G01*
X156613100Y-58300853D01*
X156752481Y-58393985D01*
X156871015Y-58512519D01*
X156964147Y-58651900D01*
X157028297Y-58806772D01*
X157061000Y-58971184D01*
X157061000Y-59138816D01*
X157028297Y-59303228D01*
X156964147Y-59458100D01*
X156871015Y-59597481D01*
X156752481Y-59716015D01*
X156613100Y-59809147D01*
X156458228Y-59873297D01*
X156293816Y-59906000D01*
X156126184Y-59906000D01*
X155961772Y-59873297D01*
X155806900Y-59809147D01*
X155667519Y-59716015D01*
X155548985Y-59597481D01*
X155455853Y-59458100D01*
X155391703Y-59303228D01*
X155359000Y-59138816D01*
X155359000Y-58971184D01*
X155391703Y-58806772D01*
X155455853Y-58651900D01*
X155548985Y-58512519D01*
X155667519Y-58393985D01*
X155806900Y-58300853D01*
X155961772Y-58236703D01*
X156126184Y-58204000D01*
X156293816Y-58204000D01*
X156458228Y-58236703D01*
X156458228Y-58236703D01*
G37*
G36*
X139112873Y-55943926D02*
G01*
X139155066Y-55956725D01*
X139193944Y-55977506D01*
X139228025Y-56005475D01*
X139255994Y-56039556D01*
X139276775Y-56078434D01*
X139289574Y-56120627D01*
X139294500Y-56170641D01*
X139294500Y-56859359D01*
X139289574Y-56909373D01*
X139276775Y-56951566D01*
X139255994Y-56990444D01*
X139228025Y-57024525D01*
X139192871Y-57053375D01*
X139175544Y-57070702D01*
X139161931Y-57091076D01*
X139152553Y-57113715D01*
X139147773Y-57137748D01*
X139147773Y-57162253D01*
X139152554Y-57186286D01*
X139161931Y-57208925D01*
X139175545Y-57229299D01*
X139192871Y-57246625D01*
X139228025Y-57275475D01*
X139255994Y-57309556D01*
X139276775Y-57348434D01*
X139289574Y-57390627D01*
X139294500Y-57440641D01*
X139294500Y-58129359D01*
X139289574Y-58179373D01*
X139276775Y-58221566D01*
X139255994Y-58260444D01*
X139244293Y-58274702D01*
X139230679Y-58295076D01*
X139221302Y-58317715D01*
X139216521Y-58341748D01*
X139216521Y-58366252D01*
X139221301Y-58390286D01*
X139230678Y-58412925D01*
X139244292Y-58433299D01*
X139261619Y-58450626D01*
X139281993Y-58464240D01*
X139294500Y-58469420D01*
X139294500Y-59631000D01*
X137692500Y-59631000D01*
X137692500Y-58469915D01*
X137693917Y-58469485D01*
X137715528Y-58457934D01*
X137734470Y-58442389D01*
X137750015Y-58423447D01*
X137761566Y-58401836D01*
X137768679Y-58378387D01*
X137771081Y-58354001D01*
X137768679Y-58329615D01*
X137761566Y-58306166D01*
X137750015Y-58284555D01*
X137742707Y-58274702D01*
X137731006Y-58260444D01*
X137710225Y-58221566D01*
X137697426Y-58179373D01*
X137692500Y-58129359D01*
X137692500Y-57440641D01*
X137697426Y-57390627D01*
X137710225Y-57348434D01*
X137731006Y-57309556D01*
X137758975Y-57275475D01*
X137794129Y-57246625D01*
X137811456Y-57229298D01*
X137825069Y-57208924D01*
X137834447Y-57186285D01*
X137839227Y-57162252D01*
X137839227Y-57137747D01*
X137834446Y-57113714D01*
X137825069Y-57091075D01*
X137811455Y-57070701D01*
X137794129Y-57053375D01*
X137758975Y-57024525D01*
X137731006Y-56990444D01*
X137710225Y-56951566D01*
X137697426Y-56909373D01*
X137692500Y-56859359D01*
X137692500Y-56170641D01*
X137697426Y-56120627D01*
X137710225Y-56078434D01*
X137731006Y-56039556D01*
X137758975Y-56005475D01*
X137793056Y-55977506D01*
X137831934Y-55956725D01*
X137874127Y-55943926D01*
X137924141Y-55939000D01*
X139062859Y-55939000D01*
X139112873Y-55943926D01*
X139112873Y-55943926D01*
G37*
G36*
X142742228Y-57601703D02*
G01*
X142897100Y-57665853D01*
X143036481Y-57758985D01*
X143155015Y-57877519D01*
X143248147Y-58016900D01*
X143312297Y-58171772D01*
X143345000Y-58336184D01*
X143345000Y-58503816D01*
X143312297Y-58668228D01*
X143248147Y-58823100D01*
X143155015Y-58962481D01*
X143036481Y-59081015D01*
X142897100Y-59174147D01*
X142742228Y-59238297D01*
X142577816Y-59271000D01*
X142410184Y-59271000D01*
X142245772Y-59238297D01*
X142090900Y-59174147D01*
X141951519Y-59081015D01*
X141832985Y-58962481D01*
X141739853Y-58823100D01*
X141675703Y-58668228D01*
X141643000Y-58503816D01*
X141643000Y-58336184D01*
X141675703Y-58171772D01*
X141739853Y-58016900D01*
X141832985Y-57877519D01*
X141951519Y-57758985D01*
X142090900Y-57665853D01*
X142245772Y-57601703D01*
X142410184Y-57569000D01*
X142577816Y-57569000D01*
X142742228Y-57601703D01*
X142742228Y-57601703D01*
G37*
G36*
X147742228Y-57601703D02*
G01*
X147897100Y-57665853D01*
X148036481Y-57758985D01*
X148155015Y-57877519D01*
X148248147Y-58016900D01*
X148312297Y-58171772D01*
X148345000Y-58336184D01*
X148345000Y-58503816D01*
X148312297Y-58668228D01*
X148248147Y-58823100D01*
X148155015Y-58962481D01*
X148036481Y-59081015D01*
X147897100Y-59174147D01*
X147742228Y-59238297D01*
X147577816Y-59271000D01*
X147410184Y-59271000D01*
X147245772Y-59238297D01*
X147090900Y-59174147D01*
X146951519Y-59081015D01*
X146832985Y-58962481D01*
X146739853Y-58823100D01*
X146675703Y-58668228D01*
X146643000Y-58503816D01*
X146643000Y-58336184D01*
X146675703Y-58171772D01*
X146739853Y-58016900D01*
X146832985Y-57877519D01*
X146951519Y-57758985D01*
X147090900Y-57665853D01*
X147245772Y-57601703D01*
X147410184Y-57569000D01*
X147577816Y-57569000D01*
X147742228Y-57601703D01*
X147742228Y-57601703D01*
G37*
G36*
X109502559Y-56110360D02*
G01*
X109602853Y-56151903D01*
X109639232Y-56166972D01*
X109762235Y-56249160D01*
X109866840Y-56353765D01*
X109949028Y-56476768D01*
X109949029Y-56476770D01*
X110005640Y-56613441D01*
X110034500Y-56758532D01*
X110034500Y-56906468D01*
X110005640Y-57051559D01*
X109949835Y-57186285D01*
X109949028Y-57188232D01*
X109866840Y-57311235D01*
X109762235Y-57415840D01*
X109639232Y-57498028D01*
X109639231Y-57498029D01*
X109639230Y-57498029D01*
X109502559Y-57554640D01*
X109357468Y-57583500D01*
X109209532Y-57583500D01*
X109064441Y-57554640D01*
X108927770Y-57498029D01*
X108927769Y-57498029D01*
X108927768Y-57498028D01*
X108804765Y-57415840D01*
X108700160Y-57311235D01*
X108617972Y-57188232D01*
X108617166Y-57186285D01*
X108561360Y-57051559D01*
X108532500Y-56906468D01*
X108532500Y-56758532D01*
X108561360Y-56613441D01*
X108617971Y-56476770D01*
X108617972Y-56476768D01*
X108700160Y-56353765D01*
X108804765Y-56249160D01*
X108927768Y-56166972D01*
X108964148Y-56151903D01*
X109064441Y-56110360D01*
X109209532Y-56081500D01*
X109357468Y-56081500D01*
X109502559Y-56110360D01*
X109502559Y-56110360D01*
G37*
G36*
X114437165Y-56085122D02*
G01*
X114510722Y-56092367D01*
X114652286Y-56135310D01*
X114652288Y-56135311D01*
X114683329Y-56151903D01*
X114782752Y-56205046D01*
X114809503Y-56227000D01*
X114897107Y-56298893D01*
X114966508Y-56383460D01*
X114990954Y-56413248D01*
X115060690Y-56543714D01*
X115103633Y-56685278D01*
X115118133Y-56832500D01*
X115103633Y-56979722D01*
X115060690Y-57121286D01*
X114990954Y-57251752D01*
X114986206Y-57257537D01*
X114897107Y-57366107D01*
X114836504Y-57415841D01*
X114782752Y-57459954D01*
X114652286Y-57529690D01*
X114510722Y-57572633D01*
X114437165Y-57579878D01*
X114400388Y-57583500D01*
X114326612Y-57583500D01*
X114289835Y-57579878D01*
X114216278Y-57572633D01*
X114074714Y-57529690D01*
X113944248Y-57459954D01*
X113890496Y-57415841D01*
X113829893Y-57366107D01*
X113740794Y-57257537D01*
X113736046Y-57251752D01*
X113666310Y-57121286D01*
X113623367Y-56979722D01*
X113608867Y-56832500D01*
X113623367Y-56685278D01*
X113666310Y-56543714D01*
X113736046Y-56413248D01*
X113760492Y-56383460D01*
X113829893Y-56298893D01*
X113917497Y-56227000D01*
X113944248Y-56205046D01*
X114043671Y-56151903D01*
X114074712Y-56135311D01*
X114074714Y-56135310D01*
X114216278Y-56092367D01*
X114289835Y-56085122D01*
X114326612Y-56081500D01*
X114400388Y-56081500D01*
X114437165Y-56085122D01*
X114437165Y-56085122D01*
G37*
G36*
X127248228Y-55736703D02*
G01*
X127403100Y-55800853D01*
X127542481Y-55893985D01*
X127661015Y-56012519D01*
X127754147Y-56151900D01*
X127818297Y-56306772D01*
X127851000Y-56471184D01*
X127851000Y-56638816D01*
X127818297Y-56803228D01*
X127754147Y-56958100D01*
X127661015Y-57097481D01*
X127542481Y-57216015D01*
X127403100Y-57309147D01*
X127248228Y-57373297D01*
X127083816Y-57406000D01*
X126916184Y-57406000D01*
X126751772Y-57373297D01*
X126596900Y-57309147D01*
X126457519Y-57216015D01*
X126338985Y-57097481D01*
X126245853Y-56958100D01*
X126181703Y-56803228D01*
X126149000Y-56638816D01*
X126149000Y-56471184D01*
X126181703Y-56306772D01*
X126245853Y-56151900D01*
X126338985Y-56012519D01*
X126457519Y-55893985D01*
X126596900Y-55800853D01*
X126751772Y-55736703D01*
X126916184Y-55704000D01*
X127083816Y-55704000D01*
X127248228Y-55736703D01*
X127248228Y-55736703D01*
G37*
G36*
X122456559Y-55792860D02*
G01*
X122593232Y-55849472D01*
X122716235Y-55931660D01*
X122820840Y-56036265D01*
X122903028Y-56159268D01*
X122959640Y-56295941D01*
X122988500Y-56441033D01*
X122988500Y-56588967D01*
X122959640Y-56734059D01*
X122903028Y-56870732D01*
X122820840Y-56993735D01*
X122716235Y-57098340D01*
X122593232Y-57180528D01*
X122593231Y-57180529D01*
X122593230Y-57180529D01*
X122456559Y-57237140D01*
X122311468Y-57266000D01*
X122163532Y-57266000D01*
X122018441Y-57237140D01*
X121881770Y-57180529D01*
X121881769Y-57180529D01*
X121881768Y-57180528D01*
X121758765Y-57098340D01*
X121654160Y-56993735D01*
X121571972Y-56870732D01*
X121515360Y-56734059D01*
X121486500Y-56588967D01*
X121486500Y-56441033D01*
X121515360Y-56295941D01*
X121571972Y-56159268D01*
X121654160Y-56036265D01*
X121758765Y-55931660D01*
X121881768Y-55849472D01*
X122018441Y-55792860D01*
X122163532Y-55764000D01*
X122311468Y-55764000D01*
X122456559Y-55792860D01*
X122456559Y-55792860D01*
G37*
G36*
X134058665Y-55450122D02*
G01*
X134132222Y-55457367D01*
X134273786Y-55500310D01*
X134404252Y-55570046D01*
X134434040Y-55594492D01*
X134518607Y-55663893D01*
X134578359Y-55736703D01*
X134612454Y-55778248D01*
X134682190Y-55908714D01*
X134725133Y-56050278D01*
X134739633Y-56197500D01*
X134725133Y-56344722D01*
X134682190Y-56486286D01*
X134612454Y-56616752D01*
X134588008Y-56646540D01*
X134518607Y-56731107D01*
X134434040Y-56800508D01*
X134404252Y-56824954D01*
X134273786Y-56894690D01*
X134132222Y-56937633D01*
X134058665Y-56944878D01*
X134021888Y-56948500D01*
X133948112Y-56948500D01*
X133911335Y-56944878D01*
X133837778Y-56937633D01*
X133696214Y-56894690D01*
X133565748Y-56824954D01*
X133535960Y-56800508D01*
X133451393Y-56731107D01*
X133381992Y-56646540D01*
X133357546Y-56616752D01*
X133287810Y-56486286D01*
X133244867Y-56344722D01*
X133230367Y-56197500D01*
X133244867Y-56050278D01*
X133287810Y-55908714D01*
X133357546Y-55778248D01*
X133391641Y-55736703D01*
X133451393Y-55663893D01*
X133535960Y-55594492D01*
X133565748Y-55570046D01*
X133696214Y-55500310D01*
X133837778Y-55457367D01*
X133911335Y-55450122D01*
X133948112Y-55446500D01*
X134021888Y-55446500D01*
X134058665Y-55450122D01*
X134058665Y-55450122D01*
G37*
G36*
X141678665Y-53862622D02*
G01*
X141752222Y-53869867D01*
X141893786Y-53912810D01*
X142024252Y-53982546D01*
X142054040Y-54006992D01*
X142138607Y-54076393D01*
X142208008Y-54160960D01*
X142232454Y-54190748D01*
X142302190Y-54321214D01*
X142345133Y-54462778D01*
X142359633Y-54610000D01*
X142345133Y-54757222D01*
X142302190Y-54898786D01*
X142232454Y-55029252D01*
X142208008Y-55059040D01*
X142138607Y-55143607D01*
X142078004Y-55193341D01*
X142024252Y-55237454D01*
X141893786Y-55307190D01*
X141752222Y-55350133D01*
X141678665Y-55357378D01*
X141641888Y-55361000D01*
X141568112Y-55361000D01*
X141531335Y-55357378D01*
X141457778Y-55350133D01*
X141316214Y-55307190D01*
X141185748Y-55237454D01*
X141131996Y-55193341D01*
X141071393Y-55143607D01*
X141001992Y-55059040D01*
X140977546Y-55029252D01*
X140907810Y-54898786D01*
X140864867Y-54757222D01*
X140850367Y-54610000D01*
X140864867Y-54462778D01*
X140907810Y-54321214D01*
X140977546Y-54190748D01*
X141001992Y-54160960D01*
X141071393Y-54076393D01*
X141155960Y-54006992D01*
X141185748Y-53982546D01*
X141316214Y-53912810D01*
X141457778Y-53869867D01*
X141531335Y-53862622D01*
X141568112Y-53859000D01*
X141641888Y-53859000D01*
X141678665Y-53862622D01*
X141678665Y-53862622D01*
G37*
G36*
X146904059Y-53887860D02*
G01*
X146964294Y-53912810D01*
X147040732Y-53944472D01*
X147163735Y-54026660D01*
X147268340Y-54131265D01*
X147350528Y-54254268D01*
X147407140Y-54390941D01*
X147436000Y-54536033D01*
X147436000Y-54683967D01*
X147407140Y-54829059D01*
X147350528Y-54965732D01*
X147268340Y-55088735D01*
X147163735Y-55193340D01*
X147040732Y-55275528D01*
X147040731Y-55275529D01*
X147040730Y-55275529D01*
X146904059Y-55332140D01*
X146758968Y-55361000D01*
X146611032Y-55361000D01*
X146465941Y-55332140D01*
X146329270Y-55275529D01*
X146329269Y-55275529D01*
X146329268Y-55275528D01*
X146206265Y-55193340D01*
X146101660Y-55088735D01*
X146019472Y-54965732D01*
X145962860Y-54829059D01*
X145934000Y-54683967D01*
X145934000Y-54536033D01*
X145962860Y-54390941D01*
X146019472Y-54254268D01*
X146101660Y-54131265D01*
X146206265Y-54026660D01*
X146329268Y-53944472D01*
X146405707Y-53912810D01*
X146465941Y-53887860D01*
X146611032Y-53859000D01*
X146758968Y-53859000D01*
X146904059Y-53887860D01*
X146904059Y-53887860D01*
G37*
G36*
X104680604Y-51179585D02*
G01*
X104849126Y-51249389D01*
X105000791Y-51350728D01*
X105129772Y-51479709D01*
X105231111Y-51631374D01*
X105300915Y-51799896D01*
X105336500Y-51978797D01*
X105336500Y-52161203D01*
X105300915Y-52340104D01*
X105231111Y-52508626D01*
X105129772Y-52660291D01*
X105000791Y-52789272D01*
X104849126Y-52890611D01*
X104680604Y-52960415D01*
X104501703Y-52996000D01*
X104319297Y-52996000D01*
X104140396Y-52960415D01*
X103971874Y-52890611D01*
X103820209Y-52789272D01*
X103691228Y-52660291D01*
X103589889Y-52508626D01*
X103520085Y-52340104D01*
X103484500Y-52161203D01*
X103484500Y-51978797D01*
X103520085Y-51799896D01*
X103589889Y-51631374D01*
X103691228Y-51479709D01*
X103820209Y-51350728D01*
X103971874Y-51249389D01*
X104140396Y-51179585D01*
X104319297Y-51144000D01*
X104501703Y-51144000D01*
X104680604Y-51179585D01*
X104680604Y-51179585D01*
G37*
G36*
X134236000Y-52996000D02*
G01*
X132384000Y-52996000D01*
X132384000Y-51144000D01*
X134236000Y-51144000D01*
X134236000Y-52996000D01*
X134236000Y-52996000D01*
G37*
G36*
X131080104Y-51179585D02*
G01*
X131248626Y-51249389D01*
X131400291Y-51350728D01*
X131529272Y-51479709D01*
X131630611Y-51631374D01*
X131700415Y-51799896D01*
X131736000Y-51978797D01*
X131736000Y-52161203D01*
X131700415Y-52340104D01*
X131630611Y-52508626D01*
X131529272Y-52660291D01*
X131400291Y-52789272D01*
X131248626Y-52890611D01*
X131080104Y-52960415D01*
X130901203Y-52996000D01*
X130718797Y-52996000D01*
X130539896Y-52960415D01*
X130371374Y-52890611D01*
X130219709Y-52789272D01*
X130090728Y-52660291D01*
X129989389Y-52508626D01*
X129919585Y-52340104D01*
X129884000Y-52161203D01*
X129884000Y-51978797D01*
X129919585Y-51799896D01*
X129989389Y-51631374D01*
X130090728Y-51479709D01*
X130219709Y-51350728D01*
X130371374Y-51249389D01*
X130539896Y-51179585D01*
X130718797Y-51144000D01*
X130901203Y-51144000D01*
X131080104Y-51179585D01*
X131080104Y-51179585D01*
G37*
G36*
X128580104Y-51179585D02*
G01*
X128748626Y-51249389D01*
X128900291Y-51350728D01*
X129029272Y-51479709D01*
X129130611Y-51631374D01*
X129200415Y-51799896D01*
X129236000Y-51978797D01*
X129236000Y-52161203D01*
X129200415Y-52340104D01*
X129130611Y-52508626D01*
X129029272Y-52660291D01*
X128900291Y-52789272D01*
X128748626Y-52890611D01*
X128580104Y-52960415D01*
X128401203Y-52996000D01*
X128218797Y-52996000D01*
X128039896Y-52960415D01*
X127871374Y-52890611D01*
X127719709Y-52789272D01*
X127590728Y-52660291D01*
X127489389Y-52508626D01*
X127419585Y-52340104D01*
X127384000Y-52161203D01*
X127384000Y-51978797D01*
X127419585Y-51799896D01*
X127489389Y-51631374D01*
X127590728Y-51479709D01*
X127719709Y-51350728D01*
X127871374Y-51249389D01*
X128039896Y-51179585D01*
X128218797Y-51144000D01*
X128401203Y-51144000D01*
X128580104Y-51179585D01*
X128580104Y-51179585D01*
G37*
G36*
X110336500Y-52996000D02*
G01*
X108484500Y-52996000D01*
X108484500Y-51144000D01*
X110336500Y-51144000D01*
X110336500Y-52996000D01*
X110336500Y-52996000D01*
G37*
G36*
X107180604Y-51179585D02*
G01*
X107349126Y-51249389D01*
X107500791Y-51350728D01*
X107629772Y-51479709D01*
X107731111Y-51631374D01*
X107800915Y-51799896D01*
X107836500Y-51978797D01*
X107836500Y-52161203D01*
X107800915Y-52340104D01*
X107731111Y-52508626D01*
X107629772Y-52660291D01*
X107500791Y-52789272D01*
X107349126Y-52890611D01*
X107180604Y-52960415D01*
X107001703Y-52996000D01*
X106819297Y-52996000D01*
X106640396Y-52960415D01*
X106471874Y-52890611D01*
X106320209Y-52789272D01*
X106191228Y-52660291D01*
X106089889Y-52508626D01*
X106020085Y-52340104D01*
X105984500Y-52161203D01*
X105984500Y-51978797D01*
X106020085Y-51799896D01*
X106089889Y-51631374D01*
X106191228Y-51479709D01*
X106320209Y-51350728D01*
X106471874Y-51249389D01*
X106640396Y-51179585D01*
X106819297Y-51144000D01*
X107001703Y-51144000D01*
X107180604Y-51179585D01*
X107180604Y-51179585D01*
G37*
G36*
X151162604Y-51116085D02*
G01*
X151331126Y-51185889D01*
X151482791Y-51287228D01*
X151611772Y-51416209D01*
X151713111Y-51567874D01*
X151782915Y-51736396D01*
X151818500Y-51915297D01*
X151818500Y-52097703D01*
X151782915Y-52276604D01*
X151713111Y-52445126D01*
X151611772Y-52596791D01*
X151482791Y-52725772D01*
X151331126Y-52827111D01*
X151162604Y-52896915D01*
X150983703Y-52932500D01*
X150801297Y-52932500D01*
X150622396Y-52896915D01*
X150453874Y-52827111D01*
X150302209Y-52725772D01*
X150173228Y-52596791D01*
X150071889Y-52445126D01*
X150002085Y-52276604D01*
X149966500Y-52097703D01*
X149966500Y-51915297D01*
X150002085Y-51736396D01*
X150071889Y-51567874D01*
X150173228Y-51416209D01*
X150302209Y-51287228D01*
X150453874Y-51185889D01*
X150622396Y-51116085D01*
X150801297Y-51080500D01*
X150983703Y-51080500D01*
X151162604Y-51116085D01*
X151162604Y-51116085D01*
G37*
G36*
X156818500Y-52932500D02*
G01*
X154966500Y-52932500D01*
X154966500Y-51080500D01*
X156818500Y-51080500D01*
X156818500Y-52932500D01*
X156818500Y-52932500D01*
G37*
G36*
X153662604Y-51116085D02*
G01*
X153831126Y-51185889D01*
X153982791Y-51287228D01*
X154111772Y-51416209D01*
X154213111Y-51567874D01*
X154282915Y-51736396D01*
X154318500Y-51915297D01*
X154318500Y-52097703D01*
X154282915Y-52276604D01*
X154213111Y-52445126D01*
X154111772Y-52596791D01*
X153982791Y-52725772D01*
X153831126Y-52827111D01*
X153662604Y-52896915D01*
X153483703Y-52932500D01*
X153301297Y-52932500D01*
X153122396Y-52896915D01*
X152953874Y-52827111D01*
X152802209Y-52725772D01*
X152673228Y-52596791D01*
X152571889Y-52445126D01*
X152502085Y-52276604D01*
X152466500Y-52097703D01*
X152466500Y-51915297D01*
X152502085Y-51736396D01*
X152571889Y-51567874D01*
X152673228Y-51416209D01*
X152802209Y-51287228D01*
X152953874Y-51185889D01*
X153122396Y-51116085D01*
X153301297Y-51080500D01*
X153483703Y-51080500D01*
X153662604Y-51116085D01*
X153662604Y-51116085D01*
G37*
G36*
X118961000Y-52286000D02*
G01*
X117259000Y-52286000D01*
X117259000Y-50584000D01*
X118961000Y-50584000D01*
X118961000Y-52286000D01*
X118961000Y-52286000D01*
G37*
G36*
X115858228Y-50616703D02*
G01*
X116013100Y-50680853D01*
X116152481Y-50773985D01*
X116271015Y-50892519D01*
X116364147Y-51031900D01*
X116428297Y-51186772D01*
X116461000Y-51351184D01*
X116461000Y-51518816D01*
X116428297Y-51683228D01*
X116364147Y-51838100D01*
X116271015Y-51977481D01*
X116152481Y-52096015D01*
X116013100Y-52189147D01*
X115858228Y-52253297D01*
X115693816Y-52286000D01*
X115526184Y-52286000D01*
X115361772Y-52253297D01*
X115206900Y-52189147D01*
X115067519Y-52096015D01*
X114948985Y-51977481D01*
X114855853Y-51838100D01*
X114791703Y-51683228D01*
X114759000Y-51518816D01*
X114759000Y-51351184D01*
X114791703Y-51186772D01*
X114855853Y-51031900D01*
X114948985Y-50892519D01*
X115067519Y-50773985D01*
X115206900Y-50680853D01*
X115361772Y-50616703D01*
X115526184Y-50584000D01*
X115693816Y-50584000D01*
X115858228Y-50616703D01*
X115858228Y-50616703D01*
G37*
G36*
X122311165Y-50687622D02*
G01*
X122384722Y-50694867D01*
X122526286Y-50737810D01*
X122656752Y-50807546D01*
X122686540Y-50831992D01*
X122771107Y-50901393D01*
X122840508Y-50985960D01*
X122864954Y-51015748D01*
X122934690Y-51146214D01*
X122977633Y-51287778D01*
X122992133Y-51435000D01*
X122977633Y-51582222D01*
X122934690Y-51723786D01*
X122864954Y-51854252D01*
X122840508Y-51884040D01*
X122771107Y-51968607D01*
X122686540Y-52038008D01*
X122656752Y-52062454D01*
X122526286Y-52132190D01*
X122384722Y-52175133D01*
X122311165Y-52182378D01*
X122274388Y-52186000D01*
X122200612Y-52186000D01*
X122163835Y-52182378D01*
X122090278Y-52175133D01*
X121948714Y-52132190D01*
X121818248Y-52062454D01*
X121788460Y-52038008D01*
X121703893Y-51968607D01*
X121634492Y-51884040D01*
X121610046Y-51854252D01*
X121540310Y-51723786D01*
X121497367Y-51582222D01*
X121482867Y-51435000D01*
X121497367Y-51287778D01*
X121540310Y-51146214D01*
X121610046Y-51015748D01*
X121634492Y-50985960D01*
X121703893Y-50901393D01*
X121788460Y-50831992D01*
X121818248Y-50807546D01*
X121948714Y-50737810D01*
X122090278Y-50694867D01*
X122163835Y-50687622D01*
X122200612Y-50684000D01*
X122274388Y-50684000D01*
X122311165Y-50687622D01*
X122311165Y-50687622D01*
G37*
G36*
X144948228Y-49981703D02*
G01*
X145103100Y-50045853D01*
X145242481Y-50138985D01*
X145361015Y-50257519D01*
X145454147Y-50396900D01*
X145518297Y-50551772D01*
X145551000Y-50716184D01*
X145551000Y-50883816D01*
X145518297Y-51048228D01*
X145454147Y-51203100D01*
X145361015Y-51342481D01*
X145242481Y-51461015D01*
X145103100Y-51554147D01*
X144948228Y-51618297D01*
X144783816Y-51651000D01*
X144616184Y-51651000D01*
X144451772Y-51618297D01*
X144296900Y-51554147D01*
X144157519Y-51461015D01*
X144038985Y-51342481D01*
X143945853Y-51203100D01*
X143881703Y-51048228D01*
X143849000Y-50883816D01*
X143849000Y-50716184D01*
X143881703Y-50551772D01*
X143945853Y-50396900D01*
X144038985Y-50257519D01*
X144157519Y-50138985D01*
X144296900Y-50045853D01*
X144451772Y-49981703D01*
X144616184Y-49949000D01*
X144783816Y-49949000D01*
X144948228Y-49981703D01*
X144948228Y-49981703D01*
G37*
G36*
X139948228Y-49981703D02*
G01*
X140103100Y-50045853D01*
X140242481Y-50138985D01*
X140361015Y-50257519D01*
X140454147Y-50396900D01*
X140518297Y-50551772D01*
X140551000Y-50716184D01*
X140551000Y-50883816D01*
X140518297Y-51048228D01*
X140454147Y-51203100D01*
X140361015Y-51342481D01*
X140242481Y-51461015D01*
X140103100Y-51554147D01*
X139948228Y-51618297D01*
X139783816Y-51651000D01*
X139616184Y-51651000D01*
X139451772Y-51618297D01*
X139296900Y-51554147D01*
X139157519Y-51461015D01*
X139038985Y-51342481D01*
X138945853Y-51203100D01*
X138881703Y-51048228D01*
X138849000Y-50883816D01*
X138849000Y-50716184D01*
X138881703Y-50551772D01*
X138945853Y-50396900D01*
X139038985Y-50257519D01*
X139157519Y-50138985D01*
X139296900Y-50045853D01*
X139451772Y-49981703D01*
X139616184Y-49949000D01*
X139783816Y-49949000D01*
X139948228Y-49981703D01*
X139948228Y-49981703D01*
G37*
M02*
